<svg width="21" height="14" viewBox="0 0 21 14" fill="none" xmlns="http://www.w3.org/2000/svg">
<path fill-rule="evenodd" clip-rule="evenodd" d="M7 0C8.27501 0 9.47039 0.34088 10.5 0.936476C11.5296 0.340881 12.725 0 14 0C17.866 0 21 3.13401 21 7C21 10.866 17.866 14 14 14C12.725 14 11.5296 13.6591 10.5 13.0635C9.47039 13.6591 8.27501 14 7 14C3.13401 14 0 10.866 0 7C0 3.13401 3.13401 0 7 0ZM14 12.25C16.8995 12.25 19.25 9.8995 19.25 7C19.25 4.10051 16.8995 1.75 14 1.75C12.6685 1.75 11.4528 2.24565 10.5274 3.0625H12.7884C13.0669 3.47107 13.3032 3.91066 13.4912 4.375H9.45236C9.2923 4.65169 9.15677 4.94435 9.04873 5.25H13.7795C13.8884 5.67333 13.9588 6.11215 13.9866 6.5625H8.76797C8.75607 6.70676 8.75 6.85267 8.75 7C8.75 7.14733 8.75607 7.29324 8.76797 7.4375H13.9866C13.9588 7.88785 13.8884 8.32667 13.7795 8.75H9.04873C9.15677 9.05565 9.2923 9.34831 9.45236 9.625H13.4912C13.3032 10.0893 13.0669 10.5289 12.7884 10.9375H10.5274C11.4528 11.7544 12.6685 12.25 14 12.25Z" fill="#FA6BE1"/>
</svg>
