<svg width="18" height="19" viewBox="0 0 18 19" fill="none" xmlns="http://www.w3.org/2000/svg">
<path d="M15.1955 18.5188C15.8371 19.1604 16.8773 19.1604 17.5188 18.5188C18.1604 17.8773 18.1604 16.8371 17.5188 16.1955L11.3233 10L17.5188 3.80449C18.1604 3.16293 18.1604 2.12274 17.5188 1.48117C16.8773 0.839608 15.8371 0.839609 15.1955 1.48117L9 7.67668L2.80449 1.48117C2.16292 0.839609 1.12274 0.839608 0.481175 1.48117C-0.160392 2.12274 -0.160391 3.16292 0.481175 3.80449L6.67668 10L0.481175 16.1955C-0.160391 16.8371 -0.160392 17.8773 0.481175 18.5188C1.12274 19.1604 2.16292 19.1604 2.80449 18.5188L9 12.3233L15.1955 18.5188Z" fill="#FFB5F2"/>
<path d="M15.1955 17.5188C15.8371 18.1604 16.8773 18.1604 17.5188 17.5188C18.1604 16.8773 18.1604 15.8371 17.5188 15.1955L11.3233 9L17.5188 2.80449C18.1604 2.16293 18.1604 1.12274 17.5188 0.481175C16.8773 -0.160392 15.8371 -0.160391 15.1955 0.481175L9 6.67668L2.80449 0.481175C2.16292 -0.160391 1.12274 -0.160392 0.481175 0.481175C-0.160392 1.12274 -0.160391 2.16292 0.481175 2.80449L6.67668 9L0.481175 15.1955C-0.160391 15.8371 -0.160392 16.8773 0.481175 17.5188C1.12274 18.1604 2.16292 18.1604 2.80449 17.5188L9 11.3233L15.1955 17.5188Z" fill="white"/>
</svg>
