<svg width="22" height="22" viewBox="0 0 22 22" fill="none" xmlns="http://www.w3.org/2000/svg">
<path d="M1.42578 10.892C1.42578 13.4161 2.42848 15.8368 4.21329 17.6217C5.9981 19.4065 8.41882 20.4092 10.9429 20.4092C13.467 20.4092 15.8878 19.4065 17.6726 17.6217C19.4574 15.8368 20.4601 13.4161 20.4601 10.892C20.4601 8.36792 19.4574 5.9472 17.6726 4.16238C15.8878 2.37757 13.467 1.37488 10.9429 1.37488C8.41882 1.37488 5.9981 2.37757 4.21329 4.16238C2.42848 5.9472 1.42578 8.36792 1.42578 10.892V10.892Z" fill="#48A3FF"/>
<path d="M15.3129 11.1377L10.943 13.572L6.57324 11.1377L6.59345 11.1011L10.943 3.81409L15.2884 11.0971L15.3129 11.1377Z" fill="white"/>
<path d="M15.3087 11.9451L15.2883 11.9736L10.9429 17.9703L6.59331 11.9695L6.57715 11.9451L6.59331 11.9572L10.9429 14.5418L15.2883 11.9572L15.3087 11.9451Z" fill="white"/>
<path d="M15.3129 11.1378L10.943 13.572L6.57324 11.1378L6.59345 11.1012L10.943 9.12927L15.2884 11.0971L15.3129 11.1378Z" fill="white"/>
<path opacity="0.8" d="M15.3132 11.1377L10.9434 13.572V3.81409L15.2887 11.0971L15.3132 11.1377Z" fill="white"/>
<path d="M15.3091 11.9451L15.2887 11.9736L10.9434 17.9703V14.5418L15.2887 11.9572L15.3091 11.9451Z" fill="white"/>
</svg>
