<svg width="63" height="63" viewBox="0 0 63 63" fill="none" xmlns="http://www.w3.org/2000/svg">
<path d="M4.125 31.5092C4.125 38.8111 7.02566 45.8139 12.1889 50.9771C17.3521 56.1403 24.3549 59.041 31.6567 59.041C38.9586 59.041 45.9614 56.1403 51.1246 50.9771C56.2878 45.8139 59.1885 38.8111 59.1885 31.5092C59.1885 24.2073 56.2878 17.2045 51.1246 12.0413C45.9614 6.87813 38.9586 3.97748 31.6567 3.97748C24.3549 3.97748 17.3521 6.87813 12.1889 12.0413C7.02566 17.2045 4.125 24.2073 4.125 31.5092Z" fill="#48A3FF"/>
<path d="M44.2981 32.2198L31.6568 39.2618L19.0156 32.2198L19.0741 32.114L31.6568 11.0336L44.2273 32.1023L44.2981 32.2198Z" fill="white"/>
<path d="M44.2864 34.5553L44.2273 34.6377L31.6569 51.9855L19.0741 34.626L19.0273 34.5553L19.0741 34.5903L31.6569 42.0673L44.2273 34.5903L44.2864 34.5553Z" fill="white"/>
<path d="M44.2981 32.2198L31.6568 39.2618L19.0156 32.2198L19.0741 32.114L31.6568 26.4095L44.2273 32.1023L44.2981 32.2198Z" fill="white"/>
<path opacity="0.8" d="M44.2975 32.2198L31.6562 39.2618V11.0336L44.2267 32.1023L44.2975 32.2198Z" fill="white"/>
<path d="M44.2858 34.5553L44.2267 34.6377L31.6562 51.9855V42.0673L44.2267 34.5903L44.2858 34.5553Z" fill="white"/>
</svg>
