<svg width="11" height="11" viewBox="0 0 11 11" fill="none" xmlns="http://www.w3.org/2000/svg">
<path fill-rule="evenodd" clip-rule="evenodd" d="M5.5 11C8.53757 11 11 8.53757 11 5.5C11 2.46243 8.53757 0 5.5 0C2.46243 0 0 2.46243 0 5.5C0 8.53757 2.46243 11 5.5 11ZM5.41406 6.80469C4.98438 6.80469 4.76953 6.53613 4.76953 6.18457C4.76953 5.66211 5.02832 5.3252 5.63379 4.86621C5.64471 4.8579 5.65555 4.84965 5.66631 4.84147C6.07867 4.52777 6.36621 4.30903 6.36621 3.91406C6.36621 3.46973 5.95117 3.21094 5.4873 3.21094C5.10645 3.21094 4.81348 3.35254 4.58398 3.65039C4.41797 3.82129 4.28613 3.91406 4.06152 3.91406C3.69043 3.91406 3.5 3.65527 3.5 3.35742C3.5 3.05469 3.6709 2.74707 3.93945 2.5127C4.30078 2.2002 4.87695 2 5.63867 2C6.99609 2 7.94824 2.66895 7.94824 3.82129C7.94824 4.66113 7.44531 5.06641 6.85449 5.47656C6.4541 5.76953 6.26367 5.94043 6.1123 6.28711L6.11191 6.28781C5.94608 6.58044 5.81901 6.80469 5.41406 6.80469ZM5.4043 8.88477C4.93555 8.88477 4.5498 8.58203 4.5498 8.11328C4.5498 7.64453 4.93555 7.3418 5.4043 7.3418C5.87305 7.3418 6.25391 7.64453 6.25391 8.11328C6.25391 8.58203 5.87305 8.88477 5.4043 8.88477Z" fill="#FA6BE1"/>
</svg>
