<svg width="22" height="17" viewBox="0 0 22 17" fill="none" xmlns="http://www.w3.org/2000/svg">
<path fill-rule="evenodd" clip-rule="evenodd" d="M0.196689 8.46741C0.0667568 8.78447 0 9.12282 0 9.4643V14.3158C0 15.7982 1.23122 17 2.75 17H19.25C20.7688 17 22 15.7982 22 14.3158V9.4643C22 9.12282 21.9332 8.78447 21.8033 8.46741L18.7943 1.12488C18.5159 0.445491 17.8418 0 17.0921 0H4.90789C4.15824 0 3.4841 0.445492 3.20569 1.12488L0.196689 8.46741ZM5.04167 2.68421H16.9583L19.25 8.94737H14.6447C14.1506 8.94737 13.75 9.34796 13.75 9.8421C13.75 11.3246 12.5188 12.5263 11 12.5263C9.48122 12.5263 8.25 11.3246 8.25 9.8421C8.25 9.34796 7.84941 8.94737 7.35526 8.94737H2.75L5.04167 2.68421Z" fill="#FA6BE1"/>
</svg>
