<svg width="20" height="21" viewBox="0 0 20 21" fill="none" xmlns="http://www.w3.org/2000/svg">
<path d="M18.8015 10.478C18.8015 15.3969 14.8904 19.3534 10.1039 19.3534C5.31736 19.3534 1.40625 15.3969 1.40625 10.478C1.40625 5.55899 5.31736 1.60254 10.1039 1.60254C14.8904 1.60254 18.8015 5.55899 18.8015 10.478Z" stroke="#FA6BE1" stroke-width="2"/>
<path fill-rule="evenodd" clip-rule="evenodd" d="M9.79102 5.52148C9.23873 5.52148 8.79102 5.9692 8.79102 6.52148V10.9329C8.79102 11.4852 9.23873 11.9329 9.79102 11.9329H10.4149C10.9672 11.9329 11.4149 11.4852 11.4149 10.9329V6.52148C11.4149 5.9692 10.9672 5.52148 10.4149 5.52148H9.79102ZM9.79102 12.8868C9.23873 12.8868 8.79102 13.3345 8.79102 13.8868V14.4329C8.79102 14.9852 9.23873 15.4329 9.79102 15.4329H10.4149C10.9672 15.4329 11.4149 14.9852 11.4149 14.4329V13.8868C11.4149 13.3345 10.9672 12.8868 10.4149 12.8868H9.79102Z" fill="#FA6BE1"/>
</svg>
