<svg width="21" height="21" viewBox="0 0 21 21" fill="none" xmlns="http://www.w3.org/2000/svg">
<path d="M2.98698 8.24595C3.02952 8.95419 3.2785 9.62092 3.67913 10.0995C4.07976 10.578 4.59923 10.8292 5.12326 10.7977C5.64729 10.7662 6.13296 10.4547 6.47341 9.93159C6.81387 9.40853 6.98124 8.71679 6.93869 8.00854C6.89614 7.3003 6.64716 6.63357 6.24653 6.15503C5.8459 5.67648 5.32643 5.42533 4.8024 5.45681C4.27837 5.48829 3.79271 5.79983 3.45225 6.3229C3.11179 6.84596 2.94443 7.5377 2.98698 8.24595Z" fill="#FA6BE1"/>
<path d="M8.30518 7.10195C8.55571 7.122 8.80922 7.07272 9.05123 6.95692C9.29323 6.84113 9.51898 6.6611 9.71554 6.42713C9.9121 6.19317 10.0756 5.90986 10.1968 5.59341C10.3179 5.27697 10.3942 4.9336 10.4215 4.58295C10.4487 4.23231 10.4262 3.88127 10.3554 3.54992C10.2846 3.21858 10.1667 2.91342 10.0086 2.65192C9.85051 2.39042 9.65526 2.17771 9.43402 2.02596C9.21279 1.8742 8.96992 1.78638 8.7193 1.76752C8.46877 1.74748 8.21526 1.79676 7.97325 1.91256C7.73125 2.02835 7.50551 2.20838 7.30894 2.44235C7.11238 2.67631 6.94886 2.95962 6.82772 3.27607C6.70659 3.59251 6.63023 3.93588 6.60301 4.28652C6.57579 4.63717 6.59824 4.98821 6.66909 5.31955C6.73993 5.6509 6.85777 5.95606 7.01587 6.21755C7.17397 6.47905 7.36922 6.69177 7.59046 6.84352C7.81169 6.99528 8.05457 7.0831 8.30518 7.10195Z" fill="#FA6BE1"/>
<path d="M12.3202 7.39647C12.5654 7.45164 12.8233 7.4386 13.0792 7.3581C13.3351 7.27761 13.584 7.13124 13.8116 6.92737C14.0391 6.7235 14.241 6.46613 14.4056 6.16998C14.5702 5.87383 14.6942 5.54471 14.7707 5.20146C14.8471 4.8582 14.8745 4.50754 14.8511 4.16954C14.8278 3.83154 14.7542 3.51282 14.6347 3.23163C14.5151 2.95044 14.3519 2.71229 14.1543 2.5308C13.9568 2.34932 13.7288 2.22805 13.4834 2.17395C13.2382 2.11879 12.9803 2.13183 12.7244 2.21232C12.4685 2.29282 12.2196 2.43918 11.992 2.64306C11.7644 2.84693 11.5625 3.1043 11.398 3.40045C11.2334 3.6966 11.1093 4.02571 11.0329 4.36897C10.9564 4.71223 10.9291 5.06289 10.9524 5.40089C10.9758 5.73889 11.0493 6.0576 11.1689 6.33879C11.2884 6.61998 11.4517 6.85814 11.6492 7.03962C11.8468 7.22111 12.0748 7.34237 12.3202 7.39647Z" fill="#FA6BE1"/>
<path d="M15.7197 11.6997C15.9935 11.7216 16.27 11.6741 16.5335 11.5599C16.797 11.4458 17.0423 11.2673 17.2553 11.0346C17.4683 10.8019 17.6449 10.5196 17.7749 10.2039C17.905 9.88811 17.9859 9.5451 18.0131 9.19446C18.0403 8.84381 18.0133 8.49242 17.9336 8.16038C17.8538 7.82834 17.7229 7.52217 17.5484 7.2594C17.3738 6.99662 17.159 6.78239 16.9163 6.62897C16.6736 6.47555 16.4077 6.38594 16.1338 6.36527C15.86 6.34342 15.5835 6.39092 15.32 6.50504C15.0565 6.61917 14.8112 6.79768 14.5982 7.03037C14.3852 7.26306 14.2086 7.54536 14.0785 7.86111C13.9485 8.17687 13.8676 8.51988 13.8403 8.87052C13.8131 9.22117 13.8402 9.57256 13.9199 9.9046C13.9997 10.2366 14.1306 10.5428 14.3051 10.8056C14.4797 11.0684 14.6945 11.2826 14.9372 11.436C15.1799 11.5894 15.4458 11.679 15.7197 11.6997Z" fill="#FA6BE1"/>
<path d="M16.0461 13.3795C13.7316 11.7475 12.7819 10.1747 12.7819 10.1747C12.2776 9.22503 11.4763 8.63174 11.4763 8.63174C9.28055 7.59322 7.94529 9.81873 7.94529 9.81873C7.17379 11.0057 5.36377 12.4597 5.36377 12.4597C3.90976 13.4685 3.9395 14.9818 3.9395 14.9818C4.05824 18.0085 6.19474 17.9788 6.19474 17.9788C7.32247 18.0676 8.628 17.6523 8.628 17.6523C9.4885 17.148 11.4468 17.4743 11.4468 17.4743C11.7731 17.5338 14.0283 17.9788 14.0283 17.9788C15.5119 18.2456 16.4316 16.4358 16.4316 16.4358C17.1738 14.2402 16.0461 13.3795 16.0461 13.3795Z" fill="#FA6BE1"/>
</svg>
