<svg width="13" height="14" viewBox="0 0 13 14" fill="none" xmlns="http://www.w3.org/2000/svg">
<path fill-rule="evenodd" clip-rule="evenodd" d="M6.5 0C3.90733 0 1.80556 2.0371 1.80556 4.55V5.6H1.44444C0.6467 5.6 0 6.2268 0 7V12.6C0 13.3732 0.6467 14 1.44444 14H11.5556C12.3533 14 13 13.3732 13 12.6V7C13 6.2268 12.3533 5.6 11.5556 5.6H11.1944V4.55C11.1944 2.0371 9.09267 0 6.5 0ZM9.02778 5.6V4.55C9.02778 3.1969 7.89605 2.1 6.5 2.1C5.10395 2.1 3.97222 3.1969 3.97222 4.55V5.6H9.02778Z" fill="#343E73"/>
</svg>
