<svg width="13" height="13" viewBox="0 0 13 13" fill="none" xmlns="http://www.w3.org/2000/svg">
<path d="M6.49123 0.806976C3.35116 0.806976 0.805664 3.3525 0.805664 6.49255C0.805664 9.63259 3.35118 12.1781 6.49123 12.1781C9.63127 12.1781 12.1768 9.63259 12.1768 6.49255C12.1768 3.3525 9.63128 0.806976 6.49123 0.806976ZM6.49123 11.3615C3.80219 11.3615 1.6223 9.18158 1.6223 6.49255C1.6223 3.8035 3.80217 1.62362 6.49123 1.62362C9.18025 1.62362 11.3602 3.8035 11.3602 6.49255C11.3602 9.18158 9.18025 11.3615 6.49123 11.3615Z" fill="white"/>
<path d="M6.37305 3.43435C5.53619 3.4618 4.6582 3.87335 4.37012 5.14918C5.05604 5.24522 5.3853 5.28638 5.3853 5.28638C5.3853 5.28638 5.56366 4.18887 6.66114 4.31235C7.75864 4.43583 7.51171 5.25895 7.40194 5.42358C7.2922 5.69796 6.27702 6.35646 6.11238 6.75429C5.94775 7.15213 5.96147 7.89296 5.96147 7.89296H6.94923C6.94923 7.89296 6.89435 7.11098 7.44311 6.78173C7.99185 6.45248 8.92473 5.49216 8.51318 4.57301C7.85467 3.51667 7.20989 3.40692 6.37305 3.43435Z" fill="white"/>
<path d="M5.94727 8.26335H6.97617V9.38814H5.94727V8.26335Z" fill="white"/>
</svg>
