<svg width="232" height="56" viewBox="0 0 232 56" fill="none" xmlns="http://www.w3.org/2000/svg">
<path d="M6.78571 15.4286C6.78571 10.6553 10.6553 6.78571 15.4286 6.78571H216.571C221.345 6.78571 225.214 10.6553 225.214 15.4286V40.5714C225.214 45.3447 221.345 49.2143 216.571 49.2143H15.4286C10.6553 49.2143 6.78571 45.3447 6.78571 40.5714V15.4286Z" stroke="url(#paint0_linear_323_2384)" stroke-width="1.57143"/>
<g filter="url(#filter0_di_323_2384)">
<path d="M15.4286 4.82143C9.57041 4.82143 4.82143 9.57041 4.82143 15.4286V40.5714C4.82143 46.4296 9.57042 51.1786 15.4286 51.1786H216.571C222.43 51.1786 227.179 46.4296 227.179 40.5714V15.4286C227.179 9.57041 222.43 4.82143 216.571 4.82143H15.4286Z" stroke="#364666" stroke-width="2.35714" shape-rendering="crispEdges"/>
</g>
<path d="M46.6978 33.4473V23.2654H50.9435C51.7058 23.2654 52.3438 23.3732 52.8576 23.5886C53.3746 23.804 53.7624 24.1056 54.0209 24.4934C54.2828 24.8812 54.4137 25.3303 54.4137 25.8407C54.4137 26.2285 54.3325 26.5749 54.1701 26.8798C54.0077 27.1814 53.7839 27.4316 53.4989 27.6305C53.2139 27.8294 52.8841 27.9686 52.5096 28.0481V28.1475C52.9205 28.1674 53.3 28.2785 53.6481 28.4806C53.9994 28.6828 54.2811 28.9645 54.4932 29.3258C54.7053 29.6838 54.8114 30.108 54.8114 30.5985C54.8114 31.1454 54.6722 31.6343 54.3938 32.0652C54.1154 32.4927 53.7127 32.8308 53.1857 33.0794C52.6587 33.3246 52.019 33.4473 51.2667 33.4473H46.6978ZM49.1587 31.4636H50.68C51.2136 31.4636 51.6064 31.3625 51.8583 31.1603C52.1135 30.9582 52.2411 30.6764 52.2411 30.3152C52.2411 30.0533 52.1798 29.8279 52.0571 29.639C51.9345 29.4468 51.7605 29.2993 51.5351 29.1966C51.3098 29.0905 51.0396 29.0375 50.7248 29.0375H49.1587V31.4636ZM49.1587 27.4515H50.5209C50.7894 27.4515 51.028 27.4068 51.2368 27.3173C51.4456 27.2278 51.608 27.0985 51.7241 26.9295C51.8434 26.7605 51.903 26.5566 51.903 26.318C51.903 25.9766 51.7821 25.7082 51.5401 25.5126C51.2982 25.3171 50.9717 25.2193 50.5607 25.2193H49.1587V27.4515ZM58.1971 33.4473H55.5522L58.9875 23.2654H62.2638L65.6992 33.4473H63.0543L60.663 25.8308H60.5834L58.1971 33.4473ZM57.8441 29.4402H63.3725V31.3095H57.8441V29.4402ZM75.5591 26.9544H73.0733C73.0402 26.6992 72.9722 26.4688 72.8695 26.2633C72.7667 26.0578 72.6308 25.8822 72.4618 25.7363C72.2928 25.5905 72.0922 25.4795 71.8602 25.4032C71.6315 25.3237 71.378 25.2839 71.0996 25.2839C70.6057 25.2839 70.1798 25.4049 69.8219 25.6468C69.4672 25.8888 69.1938 26.2385 69.0016 26.6958C68.8127 27.1532 68.7182 27.7067 68.7182 28.3564C68.7182 29.0325 68.8143 29.5993 69.0065 30.0566C69.2021 30.5107 69.4755 30.8538 69.8269 31.0858C70.1815 31.3145 70.6008 31.4288 71.0847 31.4288C71.3565 31.4288 71.6034 31.394 71.8254 31.3244C72.0508 31.2548 72.248 31.1537 72.4171 31.0211C72.5894 30.8852 72.7303 30.7212 72.8396 30.5289C72.9523 30.3334 73.0302 30.113 73.0733 29.8677L75.5591 29.8826C75.516 30.3334 75.3851 30.7775 75.1663 31.215C74.9509 31.6525 74.6543 32.0519 74.2764 32.4132C73.8986 32.7711 73.4379 33.0562 72.8943 33.2683C72.3541 33.4804 71.7343 33.5865 71.035 33.5865C70.1136 33.5865 69.2883 33.3843 68.5591 32.9799C67.8332 32.5723 67.2599 31.979 66.8389 31.2001C66.418 30.4212 66.2075 29.4733 66.2075 28.3564C66.2075 27.2361 66.4213 26.2865 66.8489 25.5076C67.2764 24.7288 67.8548 24.1371 68.584 23.7328C69.3131 23.3284 70.1301 23.1262 71.035 23.1262C71.6514 23.1262 72.2215 23.2124 72.7452 23.3848C73.2689 23.5538 73.7296 23.8024 74.1273 24.1305C74.525 24.4553 74.8482 24.8547 75.0967 25.3287C75.3453 25.8026 75.4994 26.3445 75.5591 26.9544ZM76.9673 33.4473V23.2654H79.4282V27.5708H79.5625L82.9282 23.2654H85.8267L82.2173 27.8095L85.8913 33.4473H82.9481L80.4126 29.4451L79.4282 30.688V33.4473H76.9673ZM89.4721 25.264V23.2654H98.0779V25.264H94.9906V33.4473H92.5644V25.264H89.4721ZM108.425 28.3564C108.425 29.4766 108.21 30.4262 107.779 31.2051C107.348 31.984 106.765 32.5756 106.029 32.9799C105.296 33.3843 104.474 33.5865 103.563 33.5865C102.648 33.5865 101.824 33.3826 101.092 32.975C100.359 32.5673 99.7778 31.9757 99.3469 31.2001C98.9194 30.4212 98.7056 29.4733 98.7056 28.3564C98.7056 27.2361 98.9194 26.2865 99.3469 25.5076C99.7778 24.7288 100.359 24.1371 101.092 23.7328C101.824 23.3284 102.648 23.1262 103.563 23.1262C104.474 23.1262 105.296 23.3284 106.029 23.7328C106.765 24.1371 107.348 24.7288 107.779 25.5076C108.21 26.2865 108.425 27.2361 108.425 28.3564ZM105.909 28.3564C105.909 27.6935 105.815 27.1333 105.626 26.676C105.44 26.2186 105.172 25.8722 104.821 25.6369C104.473 25.4016 104.053 25.2839 103.563 25.2839C103.076 25.2839 102.656 25.4016 102.305 25.6369C101.954 25.8722 101.684 26.2186 101.495 26.676C101.309 27.1333 101.216 27.6935 101.216 28.3564C101.216 29.0192 101.309 29.5794 101.495 30.0368C101.684 30.4941 101.954 30.8405 102.305 31.0758C102.656 31.3111 103.076 31.4288 103.563 31.4288C104.053 31.4288 104.473 31.3111 104.821 31.0758C105.172 30.8405 105.44 30.4941 105.626 30.0368C105.815 29.5794 105.909 29.0192 105.909 28.3564ZM118.373 26.318C118.34 25.9534 118.193 25.67 117.931 25.4679C117.672 25.2624 117.303 25.1596 116.822 25.1596C116.504 25.1596 116.239 25.2011 116.027 25.2839C115.814 25.3668 115.655 25.4811 115.549 25.627C115.443 25.7695 115.389 25.9335 115.385 26.1191C115.379 26.2716 115.408 26.4058 115.475 26.5218C115.544 26.6378 115.644 26.7406 115.773 26.8301C115.906 26.9163 116.065 26.9925 116.25 27.0588C116.436 27.1251 116.645 27.1831 116.877 27.2328L117.752 27.4316C118.256 27.541 118.7 27.6868 119.084 27.8691C119.472 28.0514 119.797 28.2685 120.059 28.5204C120.324 28.7723 120.524 29.0623 120.66 29.3904C120.796 29.7186 120.866 30.0865 120.869 30.4941C120.866 31.1371 120.703 31.689 120.382 32.1497C120.06 32.6104 119.598 32.9634 118.995 33.2086C118.395 33.4539 117.671 33.5765 116.822 33.5765C115.97 33.5765 115.228 33.4489 114.595 33.1937C113.962 32.9385 113.47 32.5507 113.118 32.0304C112.767 31.51 112.586 30.8521 112.576 30.0566H114.933C114.953 30.3848 115.041 30.6582 115.196 30.877C115.352 31.0957 115.566 31.2614 115.838 31.3741C116.113 31.4868 116.431 31.5431 116.792 31.5431C117.124 31.5431 117.405 31.4984 117.637 31.4089C117.873 31.3194 118.053 31.1951 118.179 31.036C118.305 30.877 118.37 30.6947 118.373 30.4892C118.37 30.2969 118.31 30.1329 118.194 29.997C118.078 29.8578 117.899 29.7385 117.657 29.639C117.419 29.5363 117.114 29.4418 116.743 29.3556L115.679 29.1071C114.797 28.9049 114.103 28.5784 113.596 28.1277C113.088 27.6736 112.837 27.0604 112.84 26.2882C112.837 25.6584 113.006 25.1066 113.347 24.6326C113.688 24.1587 114.161 23.7891 114.764 23.524C115.367 23.2588 116.055 23.1262 116.827 23.1262C117.616 23.1262 118.3 23.2605 118.88 23.5289C119.464 23.7941 119.916 24.167 120.238 24.6475C120.559 25.1281 120.723 25.685 120.73 26.318H118.373ZM122.112 33.4473V23.2654H124.573V27.3521H128.585V23.2654H131.041V33.4473H128.585V29.3556H124.573V33.4473H122.112ZM142.195 28.3564C142.195 29.4766 141.979 30.4262 141.548 31.2051C141.117 31.984 140.534 32.5756 139.798 32.9799C139.066 33.3843 138.244 33.5865 137.332 33.5865C136.418 33.5865 135.594 33.3826 134.861 32.975C134.129 32.5673 133.547 31.9757 133.116 31.2001C132.689 30.4212 132.475 29.4733 132.475 28.3564C132.475 27.2361 132.689 26.2865 133.116 25.5076C133.547 24.7288 134.129 24.1371 134.861 23.7328C135.594 23.3284 136.418 23.1262 137.332 23.1262C138.244 23.1262 139.066 23.3284 139.798 23.7328C140.534 24.1371 141.117 24.7288 141.548 25.5076C141.979 26.2865 142.195 27.2361 142.195 28.3564ZM139.679 28.3564C139.679 27.6935 139.584 27.1333 139.396 26.676C139.21 26.2186 138.942 25.8722 138.59 25.6369C138.242 25.4016 137.823 25.2839 137.332 25.2839C136.845 25.2839 136.426 25.4016 136.075 25.6369C135.723 25.8722 135.453 26.2186 135.264 26.676C135.079 27.1333 134.986 27.6935 134.986 28.3564C134.986 29.0192 135.079 29.5794 135.264 30.0368C135.453 30.4941 135.723 30.8405 136.075 31.0758C136.426 31.3111 136.845 31.4288 137.332 31.4288C137.823 31.4288 138.242 31.3111 138.59 31.0758C138.942 30.8405 139.21 30.4941 139.396 30.0368C139.584 29.5794 139.679 29.0192 139.679 28.3564ZM143.631 33.4473V23.2654H147.837C148.6 23.2654 149.258 23.4146 149.811 23.7129C150.368 24.0079 150.797 24.4205 151.099 24.9508C151.4 25.4778 151.551 26.091 151.551 26.7903C151.551 27.493 151.397 28.1078 151.089 28.6348C150.784 29.1584 150.348 29.5645 149.781 29.8528C149.214 30.1412 148.542 30.2853 147.763 30.2853H145.168V28.3464H147.305C147.677 28.3464 147.986 28.2818 148.235 28.1525C148.487 28.0233 148.678 27.8426 148.807 27.6106C148.936 27.3753 149.001 27.1019 149.001 26.7903C149.001 26.4754 148.936 26.2037 148.807 25.975C148.678 25.743 148.487 25.564 148.235 25.438C147.983 25.3121 147.673 25.2491 147.305 25.2491H146.092V33.4473H143.631ZM152.764 33.4473V23.2654H156.97C157.732 23.2654 158.39 23.4146 158.944 23.7129C159.501 24.0079 159.93 24.4205 160.232 24.9508C160.533 25.4778 160.684 26.091 160.684 26.7903C160.684 27.493 160.53 28.1078 160.222 28.6348C159.917 29.1584 159.481 29.5645 158.914 29.8528C158.347 30.1412 157.674 30.2853 156.896 30.2853H154.3V28.3464H156.438C156.809 28.3464 157.119 28.2818 157.368 28.1525C157.62 28.0233 157.81 27.8426 157.94 27.6106C158.069 27.3753 158.133 27.1019 158.133 26.7903C158.133 26.4754 158.069 26.2037 157.94 25.975C157.81 25.743 157.62 25.564 157.368 25.438C157.116 25.3121 156.806 25.2491 156.438 25.2491H155.225V33.4473H152.764ZM164.358 23.2654V33.4473H161.897V23.2654H164.358ZM174.568 23.2654V33.4473H172.48L168.428 27.5708H168.364V33.4473H165.903V23.2654H168.021L172.028 29.1319H172.112V23.2654H174.568ZM182.798 26.5914C182.741 26.3826 182.658 26.1987 182.549 26.0396C182.44 25.8772 182.305 25.7396 182.146 25.627C181.987 25.5143 181.805 25.4297 181.599 25.3734C181.394 25.3137 181.169 25.2839 180.923 25.2839C180.429 25.2839 180.002 25.4032 179.641 25.6419C179.283 25.8805 179.006 26.2285 178.81 26.6859C178.615 27.14 178.517 27.6918 178.517 28.3414C178.517 28.9944 178.611 29.5512 178.8 30.0119C178.989 30.4726 179.263 30.8239 179.621 31.0659C179.979 31.3078 180.413 31.4288 180.923 31.4288C181.374 31.4288 181.755 31.3559 182.067 31.21C182.382 31.0609 182.62 30.8504 182.783 30.5787C182.945 30.3069 183.026 29.987 183.026 29.6191L183.484 29.6738H181.008V27.8791H185.398V29.2264C185.398 30.1378 185.204 30.9184 184.816 31.568C184.432 32.2176 183.901 32.7164 183.225 33.0645C182.552 33.4125 181.778 33.5865 180.903 33.5865C179.932 33.5865 179.079 33.376 178.343 32.9551C177.607 32.5342 177.034 31.9342 176.623 31.1554C176.212 30.3732 176.006 29.4451 176.006 28.3713C176.006 27.536 176.131 26.7953 176.379 26.149C176.628 25.4993 176.974 24.9492 177.418 24.4984C177.866 24.0476 178.383 23.7063 178.969 23.4743C179.559 23.2422 180.194 23.1262 180.874 23.1262C181.464 23.1262 182.012 23.2108 182.519 23.3798C183.03 23.5488 183.48 23.7875 183.871 24.0957C184.266 24.4039 184.586 24.7702 184.831 25.1944C185.076 25.6187 185.229 26.0843 185.288 26.5914H182.798Z" fill="#FA6BE1"/>
<defs>
<filter id="filter0_di_323_2384" x="0.499721" y="0.500209" width="231.001" height="54.9996" filterUnits="userSpaceOnUse" color-interpolation-filters="sRGB">
<feFlood flood-opacity="0" result="BackgroundImageFix"/>
<feColorMatrix in="SourceAlpha" type="matrix" values="0 0 0 0 0 0 0 0 0 0 0 0 0 0 0 0 0 0 127 0" result="hardAlpha"/>
<feOffset/>
<feGaussianBlur stdDeviation="1.57143"/>
<feComposite in2="hardAlpha" operator="out"/>
<feColorMatrix type="matrix" values="0 0 0 0 0 0 0 0 0 0 0 0 0 0 0 0 0 0 0.25 0"/>
<feBlend mode="normal" in2="BackgroundImageFix" result="effect1_dropShadow_323_2384"/>
<feBlend mode="normal" in="SourceGraphic" in2="effect1_dropShadow_323_2384" result="shape"/>
<feColorMatrix in="SourceAlpha" type="matrix" values="0 0 0 0 0 0 0 0 0 0 0 0 0 0 0 0 0 0 127 0" result="hardAlpha"/>
<feOffset/>
<feGaussianBlur stdDeviation="1.17857"/>
<feComposite in2="hardAlpha" operator="arithmetic" k2="-1" k3="1"/>
<feColorMatrix type="matrix" values="0 0 0 0 0 0 0 0 0 0 0 0 0 0 0 0 0 0 0.8 0"/>
<feBlend mode="normal" in2="shape" result="effect2_innerShadow_323_2384"/>
</filter>
<linearGradient id="paint0_linear_323_2384" x1="-70.5864" y1="-27.0241" x2="100.025" y2="26.6617" gradientUnits="userSpaceOnUse">
<stop stop-color="#6C54FF"/>
<stop offset="0.296962" stop-color="#54E0FF"/>
<stop offset="1" stop-color="#F182DE"/>
</linearGradient>
</defs>
</svg>
