<svg width="232" height="56" viewBox="0 0 232 56" fill="none" xmlns="http://www.w3.org/2000/svg">
<path d="M6.78571 15.4286C6.78571 10.6553 10.6553 6.78571 15.4286 6.78571H216.571C221.345 6.78571 225.214 10.6553 225.214 15.4286V40.5714C225.214 45.3447 221.345 49.2143 216.571 49.2143H15.4286C10.6553 49.2143 6.78571 45.3447 6.78571 40.5714V15.4286Z" stroke="url(#paint0_linear_323_2456)" stroke-width="1.57143"/>
<g filter="url(#filter0_di_323_2456)">
<path d="M15.4286 4.82143C9.57041 4.82143 4.82143 9.57041 4.82143 15.4286V40.5714C4.82143 46.4296 9.57042 51.1786 15.4286 51.1786H216.571C222.43 51.1786 227.179 46.4296 227.179 40.5714V15.4286C227.179 9.57041 222.43 4.82143 216.571 4.82143H15.4286Z" stroke="#364666" stroke-width="2.35714" shape-rendering="crispEdges"/>
</g>
<path d="M83.0114 29.7928H85.0001L85.8452 30.8716L86.9539 32.1444L88.6592 34.2474H86.4319L85.2387 32.8205L84.5327 31.8063L83.0114 29.7928ZM88.7288 28.361C88.7288 29.4813 88.5133 30.4308 88.0825 31.2097C87.6516 31.9886 87.0682 32.5802 86.3325 32.9846C85.6 33.3889 84.778 33.5911 83.8665 33.5911C82.9518 33.5911 82.1281 33.3873 81.3957 32.9796C80.6632 32.5719 80.0815 31.9803 79.6506 31.2047C79.2231 30.4259 79.0093 29.4779 79.0093 28.361C79.0093 27.2407 79.2231 26.2912 79.6506 25.5123C80.0815 24.7334 80.6632 24.1418 81.3957 23.7374C82.1281 23.3331 82.9518 23.1309 83.8665 23.1309C84.778 23.1309 85.6 23.3331 86.3325 23.7374C87.0682 24.1418 87.6516 24.7334 88.0825 25.5123C88.5133 26.2912 88.7288 27.2407 88.7288 28.361ZM86.2131 28.361C86.2131 27.6981 86.1187 27.138 85.9298 26.6806C85.7441 26.2232 85.4757 25.8769 85.1244 25.6415C84.7763 25.4062 84.3571 25.2886 83.8665 25.2886C83.3793 25.2886 82.9601 25.4062 82.6087 25.6415C82.2574 25.8769 81.9873 26.2232 81.7984 26.6806C81.6128 27.138 81.52 27.6981 81.52 28.361C81.52 29.0239 81.6128 29.584 81.7984 30.0414C81.9873 30.4988 82.2574 30.8451 82.6087 31.0805C82.9601 31.3158 83.3793 31.4334 83.8665 31.4334C84.3571 31.4334 84.7763 31.3158 85.1244 31.0805C85.4757 30.8451 85.7441 30.4988 85.9298 30.0414C86.1187 29.584 86.2131 29.0239 86.2131 28.361ZM96.339 23.2701H98.795V29.8376C98.795 30.5966 98.6144 31.2578 98.2531 31.8212C97.8918 32.3814 97.388 32.8155 96.7417 33.1238C96.0954 33.4287 95.3447 33.5812 94.4896 33.5812C93.6245 33.5812 92.8689 33.4287 92.2225 33.1238C91.5762 32.8155 91.0741 32.3814 90.7162 31.8212C90.3582 31.2578 90.1792 30.5966 90.1792 29.8376V23.2701H92.6402V29.6238C92.6402 29.9751 92.7164 30.2883 92.8689 30.5634C93.0246 30.8385 93.2417 31.0539 93.5201 31.2097C93.7985 31.3655 94.1217 31.4434 94.4896 31.4434C94.8575 31.4434 95.179 31.3655 95.4541 31.2097C95.7325 31.0539 95.9496 30.8385 96.1054 30.5634C96.2611 30.2883 96.339 29.9751 96.339 29.6238V23.2701ZM102.798 23.2701V33.4519H100.337V23.2701H102.798ZM104.01 25.2687V23.2701H112.616V25.2687H109.529V33.4519H107.103V25.2687H104.01ZM116.826 33.4519V23.2701H121.032C121.794 23.2701 122.452 23.4192 123.005 23.7175C123.562 24.0125 123.991 24.4252 124.293 24.9555C124.595 25.4824 124.745 26.0956 124.745 26.7949C124.745 27.4976 124.591 28.1124 124.283 28.6394C123.978 29.1631 123.542 29.5691 122.976 29.8574C122.409 30.1458 121.736 30.29 120.957 30.29H118.362V28.3511H120.5C120.871 28.3511 121.181 28.2864 121.429 28.1572C121.681 28.0279 121.872 27.8473 122.001 27.6153C122.13 27.3799 122.195 27.1065 122.195 26.7949C122.195 26.4801 122.13 26.2083 122.001 25.9796C121.872 25.7476 121.681 25.5686 121.429 25.4427C121.178 25.3167 120.868 25.2538 120.5 25.2538H119.287V33.4519H116.826ZM126.93 33.4519H124.286L127.721 23.2701H130.997L134.433 33.4519H131.788L129.396 25.8354H129.317L126.93 33.4519ZM126.577 29.4448H132.106V31.3141H126.577V29.4448ZM141.732 26.5961C141.676 26.3873 141.593 26.2033 141.484 26.0442C141.374 25.8818 141.24 25.7443 141.081 25.6316C140.922 25.5189 140.739 25.4344 140.534 25.378C140.328 25.3184 140.103 25.2886 139.858 25.2886C139.364 25.2886 138.936 25.4079 138.575 25.6465C138.217 25.8851 137.94 26.2332 137.745 26.6905C137.549 27.1446 137.452 27.6965 137.452 28.3461C137.452 28.999 137.546 29.5558 137.735 30.0165C137.924 30.4772 138.197 30.8286 138.555 31.0705C138.913 31.3125 139.347 31.4334 139.858 31.4334C140.309 31.4334 140.69 31.3605 141.001 31.2147C141.316 31.0655 141.555 30.8551 141.717 30.5833C141.88 30.3115 141.961 29.9917 141.961 29.6238L142.418 29.6785H139.942V27.8837H144.332V29.231C144.332 30.1425 144.138 30.923 143.751 31.5726C143.366 32.2223 142.836 32.7211 142.16 33.0691C141.487 33.4171 140.713 33.5911 139.838 33.5911C138.867 33.5911 138.013 33.3806 137.278 32.9597C136.542 32.5388 135.968 31.9389 135.557 31.16C135.146 30.3778 134.941 29.4498 134.941 28.3759C134.941 27.5407 135.065 26.7999 135.314 26.1536C135.562 25.504 135.909 24.9538 136.353 24.503C136.8 24.0523 137.317 23.7109 137.904 23.4789C138.494 23.2469 139.129 23.1309 139.808 23.1309C140.398 23.1309 140.947 23.2154 141.454 23.3844C141.964 23.5535 142.415 23.7921 142.806 24.1003C143.2 24.4086 143.52 24.7748 143.766 25.1991C144.011 25.6233 144.163 26.089 144.223 26.5961H141.732ZM145.783 33.4519V23.2701H152.882V25.2687H148.244V27.3567H152.519V29.3603H148.244V31.4533H152.882V33.4519H145.783Z" fill="#FA6BE1"/>
<defs>
<filter id="filter0_di_323_2456" x="0.499721" y="0.499965" width="231.001" height="55.0001" filterUnits="userSpaceOnUse" color-interpolation-filters="sRGB">
<feFlood flood-opacity="0" result="BackgroundImageFix"/>
<feColorMatrix in="SourceAlpha" type="matrix" values="0 0 0 0 0 0 0 0 0 0 0 0 0 0 0 0 0 0 127 0" result="hardAlpha"/>
<feOffset/>
<feGaussianBlur stdDeviation="1.57143"/>
<feComposite in2="hardAlpha" operator="out"/>
<feColorMatrix type="matrix" values="0 0 0 0 0 0 0 0 0 0 0 0 0 0 0 0 0 0 0.25 0"/>
<feBlend mode="normal" in2="BackgroundImageFix" result="effect1_dropShadow_323_2456"/>
<feBlend mode="normal" in="SourceGraphic" in2="effect1_dropShadow_323_2456" result="shape"/>
<feColorMatrix in="SourceAlpha" type="matrix" values="0 0 0 0 0 0 0 0 0 0 0 0 0 0 0 0 0 0 127 0" result="hardAlpha"/>
<feOffset/>
<feGaussianBlur stdDeviation="1.17857"/>
<feComposite in2="hardAlpha" operator="arithmetic" k2="-1" k3="1"/>
<feColorMatrix type="matrix" values="0 0 0 0 0 0 0 0 0 0 0 0 0 0 0 0 0 0 0.8 0"/>
<feBlend mode="normal" in2="shape" result="effect2_innerShadow_323_2456"/>
</filter>
<linearGradient id="paint0_linear_323_2456" x1="-70.5864" y1="-27.0241" x2="100.025" y2="26.6617" gradientUnits="userSpaceOnUse">
<stop stop-color="#6C54FF"/>
<stop offset="0.296962" stop-color="#54E0FF"/>
<stop offset="1" stop-color="#F182DE"/>
</linearGradient>
</defs>
</svg>
