<svg width="22" height="22" viewBox="0 0 22 22" fill="none" xmlns="http://www.w3.org/2000/svg">
<path fill-rule="evenodd" clip-rule="evenodd" d="M11 1C7.41015 1 4.5 3.91015 4.5 7.5V9H4C2.89543 9 2 9.89543 2 11V19C2 20.1046 2.89543 21 4 21H18C19.1046 21 20 20.1046 20 19V11C20 9.89543 19.1046 9 18 9H17.5V7.5C17.5 3.91015 14.5899 1 11 1ZM14.5 9V7.5C14.5 5.567 12.933 4 11 4C9.067 4 7.5 5.567 7.5 7.5V9H14.5Z" fill="url(#paint0_linear_456_1008)"/>
<defs>
<linearGradient id="paint0_linear_456_1008" x1="4.5" y1="1.5" x2="16.5" y2="20.5" gradientUnits="userSpaceOnUse">
<stop stop-color="#8243B9"/>
<stop offset="1" stop-color="#BB4DBD"/>
</linearGradient>
</defs>
</svg>
