<svg width="22" height="22" viewBox="0 0 22 22" fill="none" xmlns="http://www.w3.org/2000/svg">
<path fill-rule="evenodd" clip-rule="evenodd" d="M3 3C1.34315 3 0 4.34315 0 6V8H22V6C22 4.34315 20.6569 3 19 3H3ZM22 10H0V17C0 18.6569 1.34315 20 3 20H19C20.6569 20 22 18.6569 22 17V10ZM3 14C3 13.4477 3.44772 13 4 13H6C6.55228 13 7 13.4477 7 14V15C7 15.5523 6.55228 16 6 16H4C3.44772 16 3 15.5523 3 15V14Z" fill="url(#paint0_linear_456_1006)"/>
<defs>
<linearGradient id="paint0_linear_456_1006" x1="11" y1="3" x2="11" y2="20" gradientUnits="userSpaceOnUse">
<stop stop-color="#8443BA"/>
<stop offset="1" stop-color="#BA4BBA"/>
</linearGradient>
</defs>
</svg>
