<svg width="31" height="26" viewBox="0 0 31 26" fill="none" xmlns="http://www.w3.org/2000/svg">
<path d="M24.0482 13.8982L26.7063 7.44605C27.0562 6.55754 26.5597 5.83197 25.5948 5.83197H8.57456L8.43239 4.83406C8.26173 3.99256 7.48855 3.36621 6.62462 3.36621H2.12816C1.40478 3.36621 0.818359 3.94887 0.818359 4.66758C0.818359 5.38629 1.40478 5.96895 2.12816 5.96895H5.99023L8.48721 18.2823C6.8712 18.7666 5.69375 20.2556 5.69375 22.0192C5.69375 24.1754 7.453 25.9233 9.62317 25.9233C11.7933 25.9233 13.5526 24.1754 13.5526 22.0192C13.5526 21.5365 13.4603 21.0763 13.2991 20.6496H18.6017C18.4405 21.0763 18.3481 21.5365 18.3481 22.0192C18.3481 24.1754 20.1074 25.9233 22.2776 25.9233C24.4477 25.9233 26.207 24.1754 26.207 22.0192C26.207 20.0139 24.6846 18.3637 22.726 18.1423C22.575 18.0819 22.4109 18.0468 22.2382 18.0468H11.1118L10.5978 15.5123H21.6674C22.6277 15.5124 23.6972 14.7897 24.0482 13.8982ZM22.2776 23.3206C21.5542 23.3206 20.9678 22.738 20.9678 22.0192C20.9678 21.3005 21.5542 20.7179 22.2776 20.7179C23.001 20.7179 23.5874 21.3005 23.5874 22.0192C23.5874 22.7379 23.001 23.3206 22.2776 23.3206ZM10.933 22.0192C10.933 22.738 10.3465 23.3206 9.6232 23.3206C8.8998 23.3206 8.3134 22.738 8.3134 22.0192C8.3134 21.3005 8.89983 20.7179 9.6232 20.7179C10.3465 20.7178 10.933 21.3005 10.933 22.0192Z" fill="#EE84E1"/>
<path d="M21.9767 8.44119V9.92999C21.9767 10.8136 22.693 11.53 23.5767 11.53H24.6359C25.5196 11.53 26.2359 10.8136 26.2359 9.92999V8.44119H27.7249C28.6086 8.44119 29.3249 7.72485 29.3249 6.84119V5.78195C29.3249 4.8983 28.6086 4.18195 27.7249 4.18195H26.2359V2.69277C26.2359 1.80912 25.5196 1.09277 24.6359 1.09277H23.5767C22.693 1.09277 21.9767 1.80912 21.9767 2.69277V4.18195H20.4877C19.604 4.18195 18.8877 4.8983 18.8877 5.78195V6.84119C18.8877 7.72485 19.604 8.44119 20.4877 8.44119H21.9767Z" fill="#EE84E1" stroke="#0D1E42" stroke-width="2"/>
</svg>
