<svg width="21" height="13" viewBox="0 0 21 13" fill="none" xmlns="http://www.w3.org/2000/svg">
<path d="M9.48166 12.5043C9.45397 12.4932 9.42812 12.4673 9.39859 12.4526V12.4507C9.30628 12.3972 9.20474 12.3584 9.12166 12.2753C9.10689 12.2569 9.09766 12.2421 9.08289 12.2292C9.06443 12.207 9.03489 12.1997 9.01643 12.183L0.509084 3.35221C-0.154293 2.66361 -0.130305 1.5666 0.56254 0.907655C1.24307 0.260424 2.31652 0.277213 2.97647 0.945408L10.054 8.11127C10.054 8.11127 14.0325 4.32344 17.2844 0.977995C17.9326 0.311136 19.0077 0.312422 19.6456 0.989222C20.2344 1.61407 20.2324 2.59013 19.6411 3.2126L11.0767 12.2273C10.8749 12.4372 10.6114 12.5773 10.3246 12.6271C10.0377 12.6769 9.7424 12.6339 9.48166 12.5043Z" fill="#0B1A3C" fill-opacity="0.5"/>
</svg>
