<svg width="155" height="27" viewBox="0 0 155 27" fill="none" xmlns="http://www.w3.org/2000/svg">
<path d="M23.343 7.8455V17.3H21.6303V7.8455H23.343ZM26.535 13.1452V17.3H24.8638V10.2091H26.4611V11.414H26.5442C26.7074 11.017 26.9674 10.7016 27.3244 10.4677C27.6845 10.2338 28.1292 10.1168 28.6586 10.1168C29.1479 10.1168 29.5742 10.2215 29.9373 10.4307C30.3036 10.64 30.5867 10.9432 30.7868 11.3402C30.9899 11.7372 31.0899 12.2188 31.0869 12.7851V17.3H29.4157V13.0437C29.4157 12.5697 29.2926 12.1988 29.0464 11.9311C28.8032 11.6633 28.4662 11.5295 28.0354 11.5295C27.743 11.5295 27.4829 11.5941 27.2552 11.7233C27.0305 11.8495 26.8535 12.0326 26.7243 12.2727C26.5981 12.5128 26.535 12.8036 26.535 13.1452ZM38.6056 10.2091L36.0804 17.3H34.2338L31.7086 10.2091H33.4906L35.1202 15.4765H35.194L36.8283 10.2091H38.6056ZM42.4 17.4385C41.6891 17.4385 41.0751 17.2908 40.5581 16.9954C40.0441 16.6968 39.6486 16.2752 39.3716 15.7304C39.0946 15.1826 38.9561 14.5379 38.9561 13.7961C38.9561 13.0667 39.0946 12.4266 39.3716 11.8757C39.6517 11.3217 40.0426 10.8908 40.5442 10.5831C41.0459 10.2722 41.6352 10.1168 42.3123 10.1168C42.7494 10.1168 43.1618 10.1876 43.5495 10.3292C43.9404 10.4677 44.2851 10.6831 44.5836 10.9755C44.8852 11.2679 45.1222 11.6402 45.2946 12.0927C45.4669 12.542 45.5531 13.0775 45.5531 13.6992V14.2116H39.7409V13.0852H43.9512C43.9481 12.7651 43.8788 12.4804 43.7434 12.2312C43.608 11.9788 43.4187 11.7803 43.1756 11.6356C42.9355 11.491 42.6555 11.4187 42.3354 11.4187C41.9938 11.4187 41.6937 11.5018 41.4352 11.6679C41.1767 11.8311 40.9751 12.0465 40.8304 12.3143C40.6889 12.5789 40.6165 12.8698 40.6135 13.1868V14.1701C40.6135 14.5825 40.6889 14.9364 40.8397 15.2319C40.9905 15.5242 41.2013 15.7489 41.4721 15.9059C41.743 16.0598 42.06 16.1367 42.4231 16.1367C42.6663 16.1367 42.8863 16.1028 43.0833 16.0351C43.2802 15.9643 43.4511 15.8612 43.5957 15.7258C43.7404 15.5904 43.8496 15.4227 43.9235 15.2226L45.4838 15.3981C45.3854 15.8105 45.1976 16.1706 44.9206 16.4783C44.6467 16.783 44.2959 17.02 43.8681 17.1893C43.4403 17.3554 42.9509 17.4385 42.4 17.4385ZM52.3113 12.0834L50.7879 12.2496C50.7448 12.0957 50.6694 11.9511 50.5616 11.8157C50.457 11.6803 50.3154 11.571 50.1369 11.4879C49.9584 11.4048 49.7399 11.3633 49.4814 11.3633C49.1336 11.3633 48.8412 11.4387 48.6043 11.5895C48.3704 11.7403 48.2549 11.9357 48.258 12.1758C48.2549 12.382 48.3303 12.5497 48.4842 12.679C48.6412 12.8082 48.8997 12.9144 49.2598 12.9975L50.4693 13.256C51.1402 13.4007 51.6388 13.6299 51.9651 13.9439C52.2944 14.2578 52.4606 14.6687 52.4636 15.1765C52.4606 15.6227 52.3298 16.0167 52.0712 16.3583C51.8158 16.6968 51.4603 16.9615 51.0048 17.1523C50.5493 17.3431 50.0261 17.4385 49.4352 17.4385C48.5673 17.4385 47.8687 17.257 47.3393 16.8938C46.81 16.5276 46.4945 16.0182 46.393 15.3657L48.0226 15.2088C48.0964 15.5289 48.2534 15.7705 48.4935 15.9336C48.7335 16.0967 49.0459 16.1782 49.4306 16.1782C49.8276 16.1782 50.1462 16.0967 50.3862 15.9336C50.6294 15.7705 50.7509 15.5689 50.7509 15.3288C50.7509 15.1257 50.6724 14.958 50.5155 14.8256C50.3616 14.6933 50.1215 14.5917 49.7953 14.5209L48.5858 14.267C47.9056 14.1255 47.4024 13.8869 47.0762 13.5515C46.75 13.2129 46.5884 12.7851 46.5915 12.2681C46.5884 11.8311 46.7069 11.4525 46.9469 11.1324C47.1901 10.8093 47.5271 10.56 47.958 10.3846C48.3919 10.2061 48.892 10.1168 49.4583 10.1168C50.2893 10.1168 50.9433 10.2938 51.4203 10.6477C51.9004 11.0016 52.1974 11.4802 52.3113 12.0834ZM57.1225 10.2091V11.5018H53.0461V10.2091H57.1225ZM54.0525 8.51028H55.7237V15.1672C55.7237 15.3919 55.7576 15.5643 55.8253 15.6843C55.896 15.8012 55.9884 15.8813 56.1022 15.9243C56.2161 15.9674 56.3423 15.989 56.4808 15.989C56.5854 15.989 56.6808 15.9813 56.767 15.9659C56.8563 15.9505 56.924 15.9366 56.9701 15.9243L57.2518 17.2308C57.1625 17.2616 57.0348 17.2954 56.8686 17.3324C56.7055 17.3693 56.5054 17.3908 56.2684 17.397C55.8499 17.4093 55.4729 17.3462 55.1374 17.2077C54.8019 17.0661 54.5357 16.8476 54.3388 16.5522C54.1449 16.2567 54.0495 15.8874 54.0525 15.4442V8.51028ZM58.2601 17.3V10.2091H59.8574V11.414H59.9405C60.0883 11.0078 60.3329 10.6908 60.6745 10.463C61.0162 10.2322 61.424 10.1168 61.8979 10.1168C62.378 10.1168 62.7827 10.2338 63.112 10.4677C63.4444 10.6985 63.6783 11.0139 63.8137 11.414H63.8876C64.0446 11.0201 64.3093 10.7062 64.6816 10.4723C65.0571 10.2353 65.5018 10.1168 66.0158 10.1168C66.6683 10.1168 67.2007 10.323 67.6131 10.7354C68.0255 11.1478 68.2317 11.7495 68.2317 12.5405V17.3H66.5559V12.799C66.5559 12.3589 66.439 12.0373 66.2051 11.8341C65.9712 11.6279 65.685 11.5248 65.3464 11.5248C64.9432 11.5248 64.6278 11.651 64.4 11.9034C64.1754 12.1527 64.063 12.4774 64.063 12.8775V17.3H62.4242V12.7297C62.4242 12.3635 62.3134 12.0711 62.0918 11.8526C61.8733 11.6341 61.5871 11.5248 61.2331 11.5248C60.9931 11.5248 60.7746 11.5864 60.5776 11.7095C60.3806 11.8295 60.2237 12.0003 60.1067 12.2219C59.9898 12.4404 59.9313 12.6959 59.9313 12.9883V17.3H58.2601ZM72.8063 17.4385C72.0954 17.4385 71.4814 17.2908 70.9644 16.9954C70.4504 16.6968 70.0549 16.2752 69.7779 15.7304C69.5009 15.1826 69.3624 14.5379 69.3624 13.7961C69.3624 13.0667 69.5009 12.4266 69.7779 11.8757C70.058 11.3217 70.4488 10.8908 70.9505 10.5831C71.4522 10.2722 72.0415 10.1168 72.7186 10.1168C73.1556 10.1168 73.568 10.1876 73.9558 10.3292C74.3467 10.4677 74.6914 10.6831 74.9899 10.9755C75.2915 11.2679 75.5285 11.6402 75.7009 12.0927C75.8732 12.542 75.9594 13.0775 75.9594 13.6992V14.2116H70.1472V13.0852H74.3575C74.3544 12.7651 74.2851 12.4804 74.1497 12.2312C74.0143 11.9788 73.825 11.7803 73.5819 11.6356C73.3418 11.491 73.0618 11.4187 72.7417 11.4187C72.4001 11.4187 72.1 11.5018 71.8415 11.6679C71.583 11.8311 71.3814 12.0465 71.2367 12.3143C71.0952 12.5789 71.0228 12.8698 71.0197 13.1868V14.1701C71.0197 14.5825 71.0952 14.9364 71.246 15.2319C71.3968 15.5242 71.6076 15.7489 71.8784 15.9059C72.1492 16.0598 72.4662 16.1367 72.8294 16.1367C73.0725 16.1367 73.2926 16.1028 73.4896 16.0351C73.6865 15.9643 73.8573 15.8612 74.002 15.7258C74.1466 15.5904 74.2559 15.4227 74.3298 15.2226L75.8901 15.3981C75.7916 15.8105 75.6039 16.1706 75.3269 16.4783C75.053 16.783 74.7022 17.02 74.2744 17.1893C73.8466 17.3554 73.3572 17.4385 72.8063 17.4385ZM78.7843 13.1452V17.3H77.1132V10.2091H78.7105V11.414H78.7936C78.9567 11.017 79.2167 10.7016 79.5738 10.4677C79.9338 10.2338 80.3786 10.1168 80.9079 10.1168C81.3973 10.1168 81.8235 10.2215 82.1867 10.4307C82.5529 10.64 82.8361 10.9432 83.0361 11.3402C83.2392 11.7372 83.3393 12.2188 83.3362 12.7851V17.3H81.665V13.0437C81.665 12.5697 81.5419 12.1988 81.2957 11.9311C81.0526 11.6633 80.7156 11.5295 80.2847 11.5295C79.9923 11.5295 79.7323 11.5941 79.5045 11.7233C79.2798 11.8495 79.1029 12.0326 78.9736 12.2727C78.8474 12.5128 78.7843 12.8036 78.7843 13.1452ZM88.3159 10.2091V11.5018H84.2395V10.2091H88.3159ZM85.2459 8.51028H86.9171V15.1672C86.9171 15.3919 86.9509 15.5643 87.0187 15.6843C87.0894 15.8012 87.1818 15.8813 87.2956 15.9243C87.4095 15.9674 87.5357 15.989 87.6742 15.989C87.7788 15.989 87.8742 15.9813 87.9604 15.9659C88.0497 15.9505 88.1174 15.9366 88.1635 15.9243L88.4451 17.2308C88.3559 17.2616 88.2282 17.2954 88.062 17.3324C87.8989 17.3693 87.6988 17.3908 87.4618 17.397C87.0433 17.4093 86.6663 17.3462 86.3308 17.2077C85.9953 17.0661 85.7291 16.8476 85.5321 16.5522C85.3383 16.2567 85.2428 15.8874 85.2459 15.4442V8.51028ZM95.6958 17.3H92.492V7.8455H95.7605C96.6991 7.8455 97.5055 8.03478 98.1795 8.41333C98.8566 8.7888 99.3767 9.32893 99.7399 10.0337C100.103 10.7385 100.285 11.5818 100.285 12.5635C100.285 13.5484 100.101 14.3947 99.7353 15.1026C99.3721 15.8105 98.8474 16.3537 98.161 16.7322C97.4778 17.1108 96.6561 17.3 95.6958 17.3ZM94.2047 15.8182H95.6127C96.2714 15.8182 96.8207 15.6981 97.2608 15.4581C97.7009 15.2149 98.0318 14.8533 98.2534 14.3732C98.475 13.89 98.5858 13.2868 98.5858 12.5635C98.5858 11.8403 98.475 11.2402 98.2534 10.7631C98.0318 10.283 97.704 9.92446 97.2701 9.68748C96.8392 9.44742 96.3037 9.32739 95.6635 9.32739H94.2047V15.8182ZM104.717 17.4385C104.006 17.4385 103.392 17.2908 102.875 16.9954C102.361 16.6968 101.966 16.2752 101.689 15.7304C101.412 15.1826 101.273 14.5379 101.273 13.7961C101.273 13.0667 101.412 12.4266 101.689 11.8757C101.969 11.3217 102.36 10.8908 102.861 10.5831C103.363 10.2722 103.952 10.1168 104.63 10.1168C105.067 10.1168 105.479 10.1876 105.867 10.3292C106.258 10.4677 106.602 10.6831 106.901 10.9755C107.202 11.2679 107.439 11.6402 107.612 12.0927C107.784 12.542 107.87 13.0775 107.87 13.6992V14.2116H102.058V13.0852H106.268C106.265 12.7651 106.196 12.4804 106.061 12.2312C105.925 11.9788 105.736 11.7803 105.493 11.6356C105.253 11.491 104.973 11.4187 104.653 11.4187C104.311 11.4187 104.011 11.5018 103.752 11.6679C103.494 11.8311 103.292 12.0465 103.148 12.3143C103.006 12.5789 102.934 12.8698 102.931 13.1868V14.1701C102.931 14.5825 103.006 14.9364 103.157 15.2319C103.308 15.5242 103.519 15.7489 103.789 15.9059C104.06 16.0598 104.377 16.1367 104.74 16.1367C104.983 16.1367 105.204 16.1028 105.4 16.0351C105.597 15.9643 105.768 15.8612 105.913 15.7258C106.058 15.5904 106.167 15.4227 106.241 15.2226L107.801 15.3981C107.703 15.8105 107.515 16.1706 107.238 16.4783C106.964 16.783 106.613 17.02 106.185 17.1893C105.758 17.3554 105.268 17.4385 104.717 17.4385ZM112.565 10.2091V11.5018H108.489V10.2091H112.565ZM109.495 8.51028H111.166V15.1672C111.166 15.3919 111.2 15.5643 111.268 15.6843C111.339 15.8012 111.431 15.8813 111.545 15.9243C111.659 15.9674 111.785 15.989 111.923 15.989C112.028 15.989 112.123 15.9813 112.209 15.9659C112.299 15.9505 112.366 15.9366 112.413 15.9243L112.694 17.2308C112.605 17.2616 112.477 17.2954 112.311 17.3324C112.148 17.3693 111.948 17.3908 111.711 17.397C111.292 17.4093 110.915 17.3462 110.58 17.2077C110.244 17.0661 109.978 16.8476 109.781 16.5522C109.587 16.2567 109.492 15.8874 109.495 15.4442V8.51028ZM115.743 17.4432C115.294 17.4432 114.889 17.3631 114.529 17.2031C114.172 17.04 113.889 16.7999 113.68 16.4829C113.473 16.1659 113.37 15.7751 113.37 15.3103C113.37 14.9103 113.444 14.5794 113.592 14.3178C113.74 14.0562 113.941 13.8469 114.197 13.69C114.452 13.533 114.74 13.4145 115.06 13.3345C115.383 13.2514 115.717 13.1914 116.062 13.1545C116.477 13.1114 116.814 13.0729 117.073 13.039C117.331 13.0021 117.519 12.9467 117.636 12.8728C117.756 12.7959 117.816 12.6774 117.816 12.5174V12.4897C117.816 12.1419 117.713 11.8726 117.507 11.6818C117.3 11.491 117.003 11.3956 116.616 11.3956C116.206 11.3956 115.882 11.4848 115.642 11.6633C115.405 11.8418 115.244 12.0527 115.161 12.2958L113.601 12.0742C113.724 11.6433 113.927 11.2832 114.21 10.9939C114.494 10.7016 114.84 10.4831 115.249 10.3384C115.658 10.1907 116.111 10.1168 116.606 10.1168C116.948 10.1168 117.288 10.1568 117.627 10.2368C117.965 10.3169 118.274 10.4492 118.555 10.6339C118.835 10.8154 119.059 11.0632 119.229 11.3771C119.401 11.691 119.487 12.0834 119.487 12.5543V17.3H117.881V16.326H117.825C117.724 16.5229 117.58 16.7076 117.396 16.8799C117.214 17.0492 116.985 17.1862 116.708 17.2908C116.434 17.3924 116.112 17.4432 115.743 17.4432ZM116.177 16.2152C116.512 16.2152 116.803 16.149 117.05 16.0167C117.296 15.8813 117.485 15.7027 117.617 15.4812C117.753 15.2596 117.82 15.018 117.82 14.7564V13.9208C117.768 13.9639 117.679 14.0039 117.553 14.0408C117.43 14.0777 117.291 14.1101 117.137 14.1378C116.983 14.1655 116.831 14.1901 116.68 14.2116C116.529 14.2332 116.399 14.2516 116.288 14.267C116.039 14.3009 115.815 14.3563 115.618 14.4332C115.421 14.5102 115.266 14.6179 115.152 14.7564C115.038 14.8918 114.981 15.0672 114.981 15.2826C114.981 15.5904 115.094 15.8228 115.318 15.9797C115.543 16.1367 115.829 16.2152 116.177 16.2152ZM120.907 17.3V10.2091H122.579V17.3H120.907ZM121.748 9.20275C121.483 9.20275 121.255 9.11503 121.064 8.93961C120.874 8.7611 120.778 8.54721 120.778 8.29792C120.778 8.04555 120.874 7.83165 121.064 7.65623C121.255 7.47772 121.483 7.38847 121.748 7.38847C122.015 7.38847 122.243 7.47772 122.431 7.65623C122.622 7.83165 122.717 8.04555 122.717 8.29792C122.717 8.54721 122.622 8.7611 122.431 8.93961C122.243 9.11503 122.015 9.20275 121.748 9.20275ZM125.708 7.8455V17.3H124.037V7.8455H125.708ZM132.771 12.0834L131.248 12.2496C131.205 12.0957 131.129 11.9511 131.021 11.8157C130.917 11.6803 130.775 11.571 130.597 11.4879C130.418 11.4048 130.2 11.3633 129.941 11.3633C129.593 11.3633 129.301 11.4387 129.064 11.5895C128.83 11.7403 128.715 11.9357 128.718 12.1758C128.715 12.382 128.79 12.5497 128.944 12.679C129.101 12.8082 129.36 12.9144 129.72 12.9975L130.929 13.256C131.6 13.4007 132.099 13.6299 132.425 13.9439C132.754 14.2578 132.92 14.6687 132.923 15.1765C132.92 15.6227 132.79 16.0167 132.531 16.3583C132.276 16.6968 131.92 16.9615 131.465 17.1523C131.009 17.3431 130.486 17.4385 129.895 17.4385C129.027 17.4385 128.329 17.257 127.799 16.8938C127.27 16.5276 126.954 16.0182 126.853 15.3657L128.482 15.2088C128.556 15.5289 128.713 15.7705 128.953 15.9336C129.193 16.0967 129.506 16.1782 129.89 16.1782C130.287 16.1782 130.606 16.0967 130.846 15.9336C131.089 15.7705 131.211 15.5689 131.211 15.3288C131.211 15.1257 131.132 14.958 130.975 14.8256C130.821 14.6933 130.581 14.5917 130.255 14.5209L129.046 14.267C128.365 14.1255 127.862 13.8869 127.536 13.5515C127.21 13.2129 127.048 12.7851 127.051 12.2681C127.048 11.8311 127.167 11.4525 127.407 11.1324C127.65 10.8093 127.987 10.56 128.418 10.3846C128.852 10.2061 129.352 10.1168 129.918 10.1168C130.749 10.1168 131.403 10.2938 131.88 10.6477C132.36 11.0016 132.657 11.4802 132.771 12.0834Z" fill="#F182DE"/>
<path d="M0.570312 13.3084C0.570312 6.39634 6.17368 0.792969 13.0858 0.792969H141.055C147.967 0.792969 153.57 6.39634 153.57 13.3084C153.57 20.2205 147.967 25.8239 141.055 25.8239H13.0858C6.17368 25.8239 0.570312 20.2205 0.570312 13.3084Z" stroke="url(#paint0_linear_84_13759)"/>
<defs>
<linearGradient id="paint0_linear_84_13759" x1="-53.5402" y1="-19.2445" x2="61.7339" y2="23.6739" gradientUnits="userSpaceOnUse">
<stop stop-color="#6C54FF"/>
<stop offset="0.296962" stop-color="#54E0FF"/>
<stop offset="1" stop-color="#F182DE"/>
</linearGradient>
</defs>
</svg>
