<svg width="27" height="24" viewBox="0 0 27 24" fill="none" xmlns="http://www.w3.org/2000/svg">
<path d="M23.7738 11.0096L26.4318 4.55738C26.7818 3.66887 26.2853 2.9433 25.3204 2.9433H8.30015L8.15798 1.94538C7.98732 1.10388 7.21414 0.477539 6.3502 0.477539H1.85374C1.13037 0.477539 0.543945 1.0602 0.543945 1.77891C0.543945 2.49762 1.13037 3.08027 1.85374 3.08027H5.71581L8.2128 15.3936C6.59679 15.8779 5.41934 17.367 5.41934 19.1305C5.41934 21.2867 7.17858 23.0346 9.34876 23.0346C11.5189 23.0346 13.2782 21.2867 13.2782 19.1305C13.2782 18.6479 13.1858 18.1876 13.0246 17.7609H18.3273C18.1661 18.1876 18.0737 18.6479 18.0737 19.1305C18.0737 21.2867 19.833 23.0346 22.0031 23.0346C24.1733 23.0346 25.9326 21.2867 25.9326 19.1305C25.9326 17.1252 24.4102 15.475 22.4516 15.2536C22.3005 15.1933 22.1365 15.1582 21.9638 15.1582H10.8373L10.3234 12.6237H21.393C22.3533 12.6237 23.4228 11.901 23.7738 11.0096ZM22.0031 20.4319C21.2797 20.4319 20.6933 19.8493 20.6933 19.1305C20.6933 18.4118 21.2798 17.8292 22.0031 17.8292C22.7265 17.8292 23.3129 18.4118 23.3129 19.1305C23.3129 19.8493 22.7265 20.4319 22.0031 20.4319ZM10.6586 19.1305C10.6586 19.8493 10.0721 20.4319 9.34879 20.4319C8.62538 20.4319 8.03899 19.8493 8.03899 19.1305C8.03899 18.4118 8.62541 17.8292 9.34879 17.8292C10.0721 17.8292 10.6586 18.4118 10.6586 19.1305Z" fill="#FCFFFD"/>
</svg>
