<svg width="22" height="22" viewBox="0 0 22 22" fill="none" xmlns="http://www.w3.org/2000/svg">
<path d="M10.9951 8.40538L18.0277 1.37724C18.1956 1.199 18.3974 1.05612 18.6213 0.957035C18.8463 0.857501 19.089 0.804179 19.3349 0.800236C19.5809 0.796292 19.8252 0.841807 20.0532 0.934079C20.2812 1.02635 20.4884 1.1635 20.6623 1.33738C20.8363 1.51125 20.9735 1.71831 21.0658 1.94626C21.1582 2.1742 21.2037 2.41837 21.1998 2.66426C21.1958 2.91015 21.1425 3.15274 21.0429 3.3776C20.9437 3.60146 20.8008 3.80321 20.6224 3.97097L13.591 11L20.6224 18.029C20.8008 18.1968 20.9437 18.3985 21.0429 18.6224C21.1425 18.8473 21.1958 19.0898 21.1998 19.3357C21.2037 19.5816 21.1582 19.8258 21.0658 20.0537C20.9735 20.2817 20.8363 20.4887 20.6623 20.6626C20.4884 20.8365 20.2812 20.9736 20.0532 21.0659C19.8252 21.1582 19.5809 21.2037 19.3349 21.1998C19.089 21.1958 18.8463 21.1425 18.6213 21.043C18.3974 20.9439 18.1956 20.801 18.0277 20.6228L10.9951 13.5936L3.96301 20.6233C3.79452 20.7996 3.59256 20.9406 3.36894 21.038C3.14455 21.1357 2.90288 21.1876 2.65813 21.1906C2.41339 21.1936 2.17051 21.1477 1.9438 21.0554C1.71708 20.9632 1.5111 20.8266 1.33797 20.6537C1.16484 20.4807 1.02807 20.2749 0.935701 20.0483C0.843332 19.8217 0.797235 19.5789 0.800127 19.3342C0.803017 19.0896 0.854836 18.848 0.95253 18.6236C1.0499 18.4 1.19088 18.1981 1.36721 18.0296L8.40025 11L1.36721 3.97041C1.19088 3.80192 1.0499 3.59998 0.95253 3.37638C0.854836 3.15203 0.803017 2.91042 0.800127 2.66575C0.797235 2.42109 0.843332 2.17832 0.935701 1.95172C1.02807 1.72513 1.16485 1.5193 1.33797 1.34634C1.5111 1.17337 1.71708 1.03677 1.9438 0.94456C2.17051 0.85235 2.41339 0.806392 2.65813 0.80939C2.90288 0.812389 3.14455 0.864283 3.36894 0.96202C3.59258 1.05943 3.79454 1.20042 3.96304 1.37675L10.9951 8.40538Z" fill="#C4C4C4" stroke="#C4C4C4" stroke-width="0.4"/>
</svg>
