<svg width="14" height="14" viewBox="0 0 14 14" fill="none" xmlns="http://www.w3.org/2000/svg">
<path d="M13.1137 12.4622L12.9283 12.3872L13.1137 12.4622C13.0543 12.6089 12.966 12.7422 12.8541 12.8541C12.7422 12.966 12.6089 13.0543 12.4622 13.1137C12.3155 13.1731 12.1584 13.2024 12.0002 13.1998C11.8419 13.1973 11.6858 13.163 11.5411 13.0989C11.3974 13.0353 11.2678 12.9437 11.16 12.8294L7.00001 8.66934L2.84009 12.8299C2.73183 12.943 2.60213 13.0335 2.45854 13.0961C2.31418 13.159 2.1587 13.1924 2.00124 13.1944C1.84379 13.1963 1.68753 13.1667 1.54168 13.1074C1.39582 13.048 1.26331 12.9601 1.15194 12.8488C1.04056 12.7374 0.952579 12.605 0.893163 12.4591C0.833745 12.3133 0.804093 12.1571 0.805952 11.9996C0.807812 11.8421 0.841145 11.6866 0.903988 11.5423L1.08737 11.6221L0.903989 11.5423C0.966502 11.3986 1.05696 11.2689 1.17009 11.1606L5.33067 7L1.17009 2.83942C1.05696 2.73111 0.966502 2.60136 0.903989 2.45774L1.08737 2.37792L0.903988 2.45774C0.841145 2.31335 0.807812 2.15785 0.805952 2.0004C0.804093 1.84294 0.833745 1.6867 0.893163 1.54087C0.95258 1.39504 1.04056 1.26256 1.15194 1.15124C1.26331 1.03992 1.39582 0.951996 1.54168 0.892644C1.68753 0.833292 1.84379 0.80371 2.00124 0.80564C2.1587 0.80757 2.31418 0.840973 2.45854 0.903882L2.37864 1.08723L2.45854 0.903882C2.60212 0.966452 2.73181 1.05695 2.84006 1.17011L7.00001 5.33005L11.16 1.17064C11.2678 1.05634 11.3974 0.964689 11.5411 0.901077C11.6858 0.837012 11.8419 0.80269 12.0002 0.800152C12.1584 0.797614 12.3155 0.82691 12.4622 0.886302C12.6089 0.945693 12.7422 1.03397 12.8541 1.14588C12.966 1.25779 13.0543 1.39105 13.1137 1.53775C13.1731 1.68445 13.2024 1.8416 13.1998 1.99984C13.1973 2.15809 13.163 2.31421 13.0989 2.45893C13.0353 2.60262 12.9437 2.73216 12.8294 2.83997L8.66994 7L12.8294 11.16C12.9437 11.2678 13.0353 11.3974 13.0989 11.5411C13.163 11.6858 13.1973 11.8419 13.1998 12.0002C13.2024 12.1584 13.1731 12.3155 13.1137 12.4622Z" fill="url(#paint0_linear_356_3988)" stroke="#4D2699" stroke-width="0.4"/>
<defs>
<linearGradient id="paint0_linear_356_3988" x1="3.88116" y1="7" x2="9.66767" y2="6.5488" gradientUnits="userSpaceOnUse">
<stop stop-color="#3B1BB9"/>
<stop offset="1" stop-color="#8C06BB"/>
</linearGradient>
</defs>
</svg>
