<svg width="17" height="17" viewBox="0 0 17 17" fill="none" xmlns="http://www.w3.org/2000/svg">
<path d="M13.8744 15.9957C14.4602 16.5815 15.4099 16.5815 15.9957 15.9957C16.5815 15.4099 16.5815 14.4602 15.9957 13.8744L10.3388 8.21751L15.9957 2.56066C16.5815 1.97487 16.5815 1.02513 15.9957 0.43934C15.4099 -0.146447 14.4602 -0.146446 13.8744 0.43934L8.21751 6.09619L2.56066 0.43934C1.97487 -0.146447 1.02513 -0.146447 0.43934 0.43934C-0.146447 1.02513 -0.146447 1.97487 0.43934 2.56066L6.09619 8.21751L0.43934 13.8744C-0.146447 14.4602 -0.146447 15.4099 0.43934 15.9957C1.02513 16.5815 1.97487 16.5815 2.56066 15.9957L8.21751 10.3388L13.8744 15.9957Z" fill="white"/>
</svg>
