<svg width="24" height="24" viewBox="0 0 24 24" fill="none" xmlns="http://www.w3.org/2000/svg">
<path d="M16.5 12.375V13.0625C16.5 15.675 14.3 17.875 11.6875 17.875C9.075 17.875 6.875 15.675 6.875 13.0625V12.375H8.25V13.0625C8.25 14.9875 9.7625 16.5 11.6875 16.5C13.6125 16.5 15.125 14.9875 15.125 13.0625V12.375H16.5ZM11.6875 23.375C5.225 23.375 0 18.15 0 11.6875C0 5.225 5.225 0 11.6875 0C18.15 0 23.375 5.225 23.375 11.6875C23.375 18.15 18.15 23.375 11.6875 23.375ZM11.6875 22C17.325 22 22 17.325 22 11.6875C22 6.05 17.325 1.375 11.6875 1.375C6.05 1.375 1.375 6.05 1.375 11.6875C1.375 17.325 6.05 22 11.6875 22ZM9.625 6.875V9.625H8.25V6.875H9.625ZM15.125 6.875V9.625H13.75V6.875H15.125Z" fill="#FA6BE1"/>
</svg>
