<svg width="22" height="20" viewBox="0 0 22 20" fill="none" xmlns="http://www.w3.org/2000/svg">
<path d="M6 11.5L1.5 11.5C0.671573 11.5 -4.00902e-07 10.8284 -4.37114e-07 10C-4.73326e-07 9.17157 0.671572 8.5 1.5 8.5L6 8.5L6 8.58535C5.4174 8.79127 5 9.34689 5 10C5 10.6531 5.4174 11.2087 6 11.4146L6 11.5Z" fill="#FA6BE1"/>
<path d="M6 11.5L6 17C6 18.6569 7.34315 20 9 20L19 20C20.6569 20 22 18.6569 22 17L22 3C22 1.34314 20.6569 -9.0294e-07 19 -8.30516e-07L9 -3.93402e-07C7.34314 -3.20979e-07 6 1.34315 6 3L6 8.5L12.3787 8.5L10.9393 7.06066C10.3536 6.47487 10.3536 5.52513 10.9393 4.93934C11.5251 4.35355 12.4749 4.35355 13.0607 4.93934L17.0607 8.93934C17.6464 9.52513 17.6464 10.4749 17.0607 11.0607L13.0607 15.0607C12.4749 15.6464 11.5251 15.6464 10.9393 15.0607C10.3536 14.4749 10.3536 13.5251 10.9393 12.9393L12.3787 11.5L6 11.5Z" fill="#FA6BE1"/>
</svg>
