<svg width="27" height="27" viewBox="0 0 27 27" fill="none" xmlns="http://www.w3.org/2000/svg">
<path fill-rule="evenodd" clip-rule="evenodd" d="M2 0C0.89543 0 0 0.895431 0 2V10.15C0 11.2546 0.895431 12.15 2 12.15H10.15C11.2546 12.15 12.15 11.2546 12.15 10.15V2C12.15 0.89543 11.2546 0 10.15 0H2ZM2 14.85C0.89543 14.85 0 15.7455 0 16.85V25C0 26.1046 0.895431 27 2 27H10.15C11.2546 27 12.15 26.1046 12.15 25V16.85C12.15 15.7455 11.2546 14.85 10.15 14.85H2ZM14.8498 16.85C14.8498 15.7455 15.7453 14.85 16.8498 14.85H24.9998C26.1044 14.85 26.9998 15.7455 26.9998 16.85V25C26.9998 26.1046 26.1044 27 24.9998 27H16.8498C15.7453 27 14.8498 26.1046 14.8498 25V16.85ZM17.5498 0C16.0587 0 14.8498 1.20883 14.8498 2.7V9.45C14.8498 10.9412 16.0587 12.15 17.5498 12.15H24.2998C25.791 12.15 26.9998 10.9412 26.9998 9.45V2.7C26.9998 1.20883 25.791 0 24.2998 0H17.5498ZM17.5498 2.7H24.2998V9.45H17.5498V2.7Z" fill="#FA6BE1"/>
</svg>
