<svg width="19" height="14" viewBox="0 0 19 14" fill="none" xmlns="http://www.w3.org/2000/svg">
<path d="M11.784 6.49315L11.784 0.811723L18.0454 0.811724L18.0454 5.29729C18.0454 7.72575 17.6999 9.4839 17.0076 10.5712C16.0993 12.0209 14.6609 13.1171 12.6922 13.8604L11.2644 11.9574C12.4537 11.5405 13.3301 10.9197 13.8922 10.0952C14.4549 9.27067 14.7685 8.06981 14.833 6.49315L11.784 6.49315ZM1.26397 6.49315L1.26397 0.811722L7.52474 0.811723L7.52474 5.29729C7.52474 7.72575 7.17858 9.4839 6.48626 10.5712C5.57801 12.0209 4.13956 13.1171 2.17156 13.8604L0.743738 11.9574C1.93304 11.5405 2.81006 10.9197 3.37216 10.0952C3.93425 9.27067 4.24785 8.06981 4.31297 6.49315L1.26397 6.49315Z" fill="#C4C4C4" fill-opacity="0.1"/>
</svg>
