<svg width="36" height="37" viewBox="0 0 36 37" fill="none" xmlns="http://www.w3.org/2000/svg">
<rect y="0.5" width="36" height="36" rx="8" fill="#01132E" fill-opacity="0.5"/>
<path d="M11.6901 17.9812C11.7011 17.9535 11.727 17.9276 11.7418 17.8981L11.7436 17.8981C11.7971 17.8058 11.8359 17.7043 11.919 17.6212C11.9374 17.6064 11.9522 17.5972 11.9651 17.5824C11.9873 17.5639 11.9947 17.5344 12.0113 17.5159L20.8421 9.0086C21.5307 8.34522 22.6277 8.36921 23.2867 9.06205C23.9339 9.74258 23.9171 10.816 23.2489 11.476L16.0831 18.5535C16.0831 18.5535 19.8709 22.532 23.2163 25.7839C23.8832 26.4321 23.8819 27.5073 23.2051 28.1451C22.5803 28.7339 21.6042 28.7319 20.9817 28.1406L11.967 19.5763C11.7571 19.3745 11.617 19.111 11.5672 18.8241C11.5174 18.5372 11.5605 18.2419 11.6901 17.9812Z" fill="white" fill-opacity="0.7"/>
</svg>
