<svg width="24" height="25" viewBox="0 0 24 25" fill="none" xmlns="http://www.w3.org/2000/svg">
<mask id="mask0_84_13727" style="mask-type:alpha" maskUnits="userSpaceOnUse" x="0" y="0" width="24" height="25">
<rect y="0.0390625" width="24" height="24" fill="#C4C4C4"/>
</mask>
<g mask="url(#mask0_84_13727)">
<path d="M18.6892 17.7726C18.6892 18.3003 18.2612 18.7282 17.7335 18.7282H6.26596C5.73828 18.7282 5.31033 18.3003 5.31033 17.7726V6.30502C5.31033 5.77734 5.73828 5.34939 6.26596 5.34939H8.65594V3.91504H5.78724C4.73187 3.91504 3.87598 4.77094 3.87598 5.8263V18.2513C3.87598 19.3067 4.73187 20.1626 5.78724 20.1626H18.2122C19.2676 20.1626 20.1235 19.3067 20.1235 18.2513V15.3844H18.6892V17.7726ZM19.4072 3.91504H13.1947C12.7994 3.91504 12.4785 4.236 12.4785 4.63131C12.4785 5.02662 12.7994 5.34758 13.1947 5.34758H17.9149L10.9516 12.3108C10.6724 12.5901 10.6724 13.0452 10.9516 13.3245C11.2309 13.6037 11.686 13.6037 11.9653 13.3245L18.6892 6.6006V10.8438C18.6892 11.2391 19.0101 11.5601 19.4054 11.5601C19.8007 11.5601 20.1217 11.2391 20.1217 10.8438V4.63131C20.1235 4.236 19.8025 3.91504 19.4072 3.91504Z" fill="#6D798B" stroke="#6D798B" stroke-width="0.6"/>
</g>
</svg>
