<svg width="14" height="14" viewBox="0 0 14 14" fill="none" xmlns="http://www.w3.org/2000/svg">
<path d="M12.6824 7.22667C12.6824 7.03032 12.7865 6.84816 12.9568 6.75117C13.1271 6.65181 13.3377 6.65181 13.5056 6.75117C13.676 6.85053 13.7801 7.03032 13.7801 7.22667V10.4605C13.7801 12.2939 12.2944 13.7819 10.4587 13.7819H3.53672C1.70333 13.7819 0.215332 12.2963 0.215332 10.4605V3.53624C0.215332 1.70285 1.70097 0.214844 3.53672 0.214844H6.54348C6.84629 0.214844 7.09468 0.460873 7.09468 0.763678C7.09468 1.06648 6.84865 1.31251 6.54348 1.31251H3.53672C2.94767 1.31251 2.38228 1.54671 1.96592 1.96307C1.54942 2.37973 1.31542 2.94473 1.31537 3.53387V10.4582C1.31537 11.0472 1.54957 11.6126 1.96592 12.029C2.38228 12.4453 2.94767 12.6795 3.53672 12.6795H10.461C11.6864 12.6795 12.6824 11.6859 12.6824 10.4582V7.22667Z" fill="url(#paint0_linear_356_2859)"/>
<path d="M10.461 14H3.53667C1.58736 14 0 12.4126 0 10.4633V3.53667C0 1.58736 1.58736 0 3.53667 0H6.54343C6.96688 0 7.3099 0.343021 7.3099 0.766475C7.3099 1.18993 6.96688 1.53295 6.54343 1.53295H3.53667C3.00203 1.53295 2.49814 1.74113 2.11963 2.11964C1.74113 2.49814 1.53295 3.00203 1.53295 3.53667V10.461C1.53295 10.9956 1.74113 11.4995 2.11963 11.878C2.49814 12.2565 3.00203 12.4647 3.53667 12.4647H10.461C11.5657 12.4647 12.4647 11.5657 12.4647 10.461V7.2271C12.4647 6.95505 12.6114 6.69956 12.8479 6.56235C12.9638 6.49611 13.0963 6.46063 13.2312 6.46063C13.366 6.46063 13.4985 6.49611 13.6144 6.56235C13.851 6.69956 13.9976 6.95269 13.9976 7.2271V10.461C13.9976 12.4126 12.4126 14 10.461 14ZM3.53667 0.432917C1.82629 0.432917 0.432917 1.82629 0.432917 3.53667V10.461C0.432917 12.1713 1.82629 13.5647 3.53667 13.5647H10.461C12.1713 13.5647 13.5647 12.1713 13.5647 10.461V7.2271C13.5647 7.10882 13.5008 6.99763 13.3968 6.93849C13.295 6.87935 13.1649 6.87935 13.0632 6.93849C12.9615 6.99763 12.8976 7.10882 12.8976 7.2271V10.461C12.8976 11.8047 11.8047 12.8976 10.461 12.8976H3.53667C2.88611 12.8976 2.2734 12.6445 1.81446 12.1832C1.35316 11.7219 1.10003 11.1115 1.10003 10.461V3.53667C1.10003 2.88611 1.35316 2.2734 1.81446 1.81446C2.27577 1.35316 2.88611 1.10003 3.53667 1.10003H6.54343C6.72795 1.10003 6.87698 0.950997 6.87698 0.766475C6.87698 0.581953 6.72795 0.432917 6.54343 0.432917H3.53667ZM12.6823 1.31767H9.77019C9.46739 1.31767 9.22136 1.07165 9.22136 0.768841C9.22136 0.466036 9.46739 0.220007 9.77019 0.220007H13.2335C13.5363 0.220007 13.7847 0.466036 13.7847 0.768841V4.23217C13.7847 4.42852 13.6806 4.61068 13.5103 4.70767C13.34 4.80703 13.1294 4.80703 12.9615 4.70767C12.7911 4.60831 12.6871 4.42852 12.6871 4.23217V1.31767H12.6823Z" fill="url(#paint1_linear_356_2859)"/>
<path d="M13.2309 4.96325C13.1032 4.96325 12.9755 4.93013 12.8643 4.86625C12.6395 4.73614 12.4976 4.49248 12.4976 4.23226V1.49991H9.76998C9.36545 1.49991 9.03662 1.17109 9.03662 0.766559C9.03662 0.362031 9.36545 0.0332031 9.76998 0.0332031H13.2333C13.6378 0.0332031 13.9667 0.362031 13.9667 0.766559V4.22989C13.9667 4.49011 13.8271 4.73378 13.6 4.86389C13.4864 4.92776 13.3587 4.96325 13.2309 4.96325ZM9.76998 0.399881C9.56653 0.399881 9.4033 0.565478 9.4033 0.766559C9.4033 0.970006 9.5689 1.13324 9.76998 1.13324H12.8643V4.22752C12.8643 4.35764 12.9352 4.48065 13.0488 4.54689C13.16 4.61076 13.3043 4.61076 13.4155 4.54689C13.529 4.48065 13.6 4.36 13.6 4.22752V0.766559C13.6 0.563112 13.4344 0.399881 13.2333 0.399881H9.76998Z" fill="url(#paint2_linear_356_2859)"/>
<path d="M7.38805 7.38866C7.17041 7.58974 6.83448 7.58501 6.62394 7.37447C6.4134 7.16392 6.40866 6.828 6.60975 6.61036L12.8433 0.376836C13.0609 0.175755 13.3968 0.180486 13.6074 0.39103C13.8179 0.601574 13.8227 0.937498 13.6216 1.15514L7.38805 7.38866Z" fill="url(#paint3_linear_356_2859)"/>
<path d="M7.01182 7.7197C6.81547 7.7197 6.63331 7.644 6.49374 7.50443C6.35918 7.37048 6.28198 7.18946 6.27845 6.99964C6.27492 6.80981 6.34533 6.62605 6.47481 6.48719L6.47954 6.48246L12.7154 0.246568L12.7178 0.244202C12.8526 0.116456 13.0301 0.0478516 13.217 0.0478516C13.4133 0.0478516 13.5955 0.123553 13.735 0.263127C13.8696 0.397073 13.9468 0.578089 13.9503 0.767916C13.9539 0.957742 13.8834 1.1415 13.754 1.28036L13.7492 1.28509L7.51334 7.52099L7.51097 7.52335C7.37613 7.64873 7.1987 7.7197 7.01182 7.7197ZM6.74213 6.73795C6.60965 6.88462 6.61202 7.10699 6.75396 7.24657C6.82256 7.31517 6.91482 7.35539 7.01418 7.35539C7.10644 7.35539 7.19397 7.3199 7.26258 7.2584L13.4914 1.0296C13.6238 0.882931 13.6215 0.660559 13.4795 0.520985C13.4109 0.45238 13.3187 0.412164 13.2193 0.412164C13.1271 0.412164 13.0395 0.447649 12.9709 0.509156L6.74213 6.73795Z" fill="url(#paint4_linear_356_2859)"/>
<defs>
<linearGradient id="paint0_linear_356_2859" x1="14.2645" y1="-1.33972" x2="-4.48431" y2="-1.20428" gradientUnits="userSpaceOnUse">
<stop stop-color="#4528B9"/>
<stop offset="1" stop-color="#A630DE"/>
</linearGradient>
<linearGradient id="paint1_linear_356_2859" x1="14.4975" y1="-1.60417" x2="-4.84963" y2="-1.46441" gradientUnits="userSpaceOnUse">
<stop stop-color="#4528B9"/>
<stop offset="1" stop-color="#A630DE"/>
</linearGradient>
<linearGradient id="paint2_linear_356_2859" x1="14.1427" y1="-0.531699" x2="7.32856" y2="-0.482465" gradientUnits="userSpaceOnUse">
<stop stop-color="#4528B9"/>
<stop offset="1" stop-color="#A630DE"/>
</linearGradient>
<linearGradient id="paint3_linear_356_2859" x1="14.0299" y1="-0.607714" x2="3.93098" y2="-0.534748" gradientUnits="userSpaceOnUse">
<stop stop-color="#4528B9"/>
<stop offset="1" stop-color="#A630DE"/>
</linearGradient>
<linearGradient id="paint4_linear_356_2859" x1="14.2245" y1="-0.831216" x2="3.62023" y2="-0.754596" gradientUnits="userSpaceOnUse">
<stop stop-color="#4528B9"/>
<stop offset="1" stop-color="#A630DE"/>
</linearGradient>
</defs>
</svg>
