<svg width="16" height="16" viewBox="0 0 16 16" fill="none" xmlns="http://www.w3.org/2000/svg">
<path d="M14.0003 2.66699H4.66699C3.56699 2.66699 2.66699 3.56699 2.66699 4.66699V14.0003C2.66699 15.1003 3.56699 16.0003 4.66699 16.0003H14.0003C15.1003 16.0003 16.0003 15.1003 16.0003 14.0003V4.66699C16.0003 3.56699 15.1003 2.66699 14.0003 2.66699ZM14.0003 4.00033C14.3617 4.00033 14.667 4.30566 14.667 4.66699V14.0003C14.667 14.3617 14.3617 14.667 14.0003 14.667H4.66699C4.30566 14.667 4.00033 14.3617 4.00033 14.0003V4.66699C4.00033 4.30566 4.30566 4.00033 4.66699 4.00033H14.0003Z" fill="url(#paint0_linear_356_2866)"/>
<path d="M2.66667 12H2C1.63867 12 1.33333 11.6947 1.33333 11.3333V2C1.33333 1.63867 1.63867 1.33333 2 1.33333H11.3333C11.6947 1.33333 12 1.63867 12 2V2.664H13.3333V2C13.3333 0.9 12.4333 0 11.3333 0H2C0.9 0 0 0.9 0 2V11.3333C0 12.4333 0.9 13.3333 2 13.3333H2.66667V12Z" fill="url(#paint1_linear_356_2866)"/>
<path d="M8.66699 12V6.66667C8.66699 6.3 8.96699 6 9.33366 6C9.70032 6 10.0003 6.3 10.0003 6.66667V12C10.0003 12.3667 9.70032 12.6667 9.33366 12.6667C8.96699 12.6667 8.66699 12.3667 8.66699 12Z" fill="url(#paint2_linear_356_2866)"/>
<path d="M12 10.0003H6.66667C6.3 10.0003 6 9.70032 6 9.33366C6 8.96699 6.3 8.66699 6.66667 8.66699H12C12.3667 8.66699 12.6667 8.96699 12.6667 9.33366C12.6667 9.70032 12.3667 10.0003 12 10.0003Z" fill="url(#paint3_linear_356_2866)"/>
<defs>
<linearGradient id="paint0_linear_356_2866" x1="16.4765" y1="1.13921" x2="-1.95248" y2="1.27236" gradientUnits="userSpaceOnUse">
<stop stop-color="#4528B9"/>
<stop offset="1" stop-color="#A630DE"/>
</linearGradient>
<linearGradient id="paint1_linear_356_2866" x1="13.8095" y1="-1.52778" x2="-4.61947" y2="-1.39463" gradientUnits="userSpaceOnUse">
<stop stop-color="#4528B9"/>
<stop offset="1" stop-color="#A630DE"/>
</linearGradient>
<linearGradient id="paint2_linear_356_2866" x1="10.0479" y1="5.23611" x2="8.20495" y2="5.23877" gradientUnits="userSpaceOnUse">
<stop stop-color="#4528B9"/>
<stop offset="1" stop-color="#A630DE"/>
</linearGradient>
<linearGradient id="paint3_linear_356_2866" x1="12.9048" y1="8.51421" x2="3.70179" y2="8.84668" gradientUnits="userSpaceOnUse">
<stop stop-color="#4528B9"/>
<stop offset="1" stop-color="#A630DE"/>
</linearGradient>
</defs>
</svg>
