<svg width="24" height="25" viewBox="0 0 24 25" fill="none" xmlns="http://www.w3.org/2000/svg">
<mask id="mask0_84_13730" style="mask-type:alpha" maskUnits="userSpaceOnUse" x="0" y="0" width="24" height="25">
<rect y="0.0390625" width="24" height="24" fill="#C4C4C4"/>
</mask>
<g mask="url(#mask0_84_13730)">
<path d="M12.0004 5.08008C11.8113 5.08008 11.624 5.11732 11.4494 5.18968C11.2747 5.26203 11.116 5.36809 10.9823 5.50179C10.8486 5.63549 10.7425 5.79421 10.6701 5.96889C10.5978 6.14358 10.5605 6.3308 10.5605 6.51988C10.5605 6.70896 10.5978 6.89619 10.6701 7.07087C10.7425 7.24556 10.8486 7.40428 10.9823 7.53798C11.116 7.67168 11.2747 7.77773 11.4494 7.85009C11.624 7.92244 11.8113 7.95969 12.0004 7.95969C12.1894 7.95969 12.3767 7.92244 12.5513 7.85009C12.726 7.77773 12.8847 7.67168 13.0184 7.53798C13.1521 7.40428 13.2582 7.24556 13.3306 7.07087C13.4029 6.89619 13.4402 6.70896 13.4402 6.51988C13.4402 6.3308 13.4029 6.14358 13.3306 5.96889C13.2582 5.79421 13.1521 5.63549 13.0184 5.50179C12.8847 5.36809 12.726 5.26203 12.5513 5.18968C12.3767 5.11732 12.1894 5.08008 12.0004 5.08008ZM12.0004 10.5993C11.6185 10.5993 11.2523 10.751 10.9823 11.021C10.7122 11.2911 10.5605 11.6573 10.5605 12.0391C10.5605 12.421 10.7122 12.7872 10.9823 13.0572C11.2523 13.3272 11.6185 13.4789 12.0004 13.4789C12.3822 13.4789 12.7484 13.3272 13.0184 13.0572C13.2885 12.7872 13.4402 12.421 13.4402 12.0391C13.4402 11.6573 13.2885 11.2911 13.0184 11.021C12.7484 10.751 12.3822 10.5993 12.0004 10.5993ZM12.0004 16.1186C11.6185 16.1186 11.2523 16.2703 10.9823 16.5403C10.7122 16.8103 10.5605 17.1765 10.5605 17.5584C10.5605 17.9402 10.7122 18.3065 10.9823 18.5765C11.2523 18.8465 11.6185 18.9982 12.0004 18.9982C12.3822 18.9982 12.7484 18.8465 13.0184 18.5765C13.2885 18.3065 13.4402 17.9402 13.4402 17.5584C13.4402 17.1765 13.2885 16.8103 13.0184 16.5403C12.7484 16.2703 12.3822 16.1186 12.0004 16.1186Z" fill="#6D798B" stroke="#6D798B" stroke-width="0.4"/>
</g>
</svg>
