<svg width="24" height="25" viewBox="0 0 24 25" fill="none" xmlns="http://www.w3.org/2000/svg">
<mask id="mask0_84_13742" style="mask-type:alpha" maskUnits="userSpaceOnUse" x="0" y="0" width="24" height="25">
<rect y="0.5" width="24" height="24" fill="#C4C4C4"/>
</mask>
<g mask="url(#mask0_84_13742)">
<path d="M17.5278 18.9229C17.3069 18.9229 17.1278 18.7438 17.1278 18.5229V10.3359C17.1278 10.115 16.9487 9.93589 16.7278 9.93589H14.9636C14.7427 9.93589 14.5636 10.115 14.5636 10.3359V18.5229C14.5636 18.7438 14.3845 18.9229 14.1636 18.9229H11.6855C11.3289 18.9229 11.1505 19.3542 11.403 19.6061L15.564 23.7566C15.7202 23.9123 15.9729 23.9123 16.129 23.7566L20.29 19.6061C20.5425 19.3542 20.3642 18.9229 20.0076 18.9229H17.5278ZM8.43633 1.24359C8.28019 1.0879 8.02751 1.08792 7.8714 1.24364L3.71033 5.39416C3.45785 5.64599 3.63621 6.07736 3.99281 6.07736H6.47417C6.69508 6.07736 6.87417 6.25644 6.87417 6.47736V14.6643C6.87417 14.8853 7.05326 15.0643 7.27417 15.0643H9.03839C9.25931 15.0643 9.4384 14.8853 9.4384 14.6643V6.47736C9.4384 6.25644 9.61748 6.07736 9.8384 6.07736H12.3163C12.6729 6.07736 12.8513 5.64593 12.5987 5.39411L8.43633 1.24359Z" fill="#9BA3AF"/>
</g>
</svg>
