<svg width="24" height="25" viewBox="0 0 24 25" fill="none" xmlns="http://www.w3.org/2000/svg">
<mask id="mask0_84_13733" style="mask-type:alpha" maskUnits="userSpaceOnUse" x="0" y="0" width="24" height="25">
<rect y="0.0390625" width="24" height="24" fill="#C4C4C4"/>
</mask>
<g mask="url(#mask0_84_13733)">
<path d="M15.9922 16.7423C15.9922 15.7974 16.7584 15.0313 17.7033 15.0313C18.6482 15.0313 19.4143 15.7974 19.4143 16.7423C19.4143 17.6871 18.6482 18.4536 17.7033 18.4536C16.7584 18.4536 15.9922 17.6872 15.9922 16.7423ZM13.1404 5.33524C13.1404 4.39029 13.9066 3.62415 14.8515 3.62415C15.7964 3.62415 16.5625 4.39029 16.5625 5.33524C16.5625 6.28014 15.7964 7.0463 14.8515 7.0463C13.9066 7.0463 13.1404 6.28014 13.1404 5.33524ZM4.58505 14.1758C4.58505 12.6006 5.86195 11.324 7.43681 11.324C9.01171 11.324 10.2886 12.6006 10.2886 14.1758C10.2886 15.7509 9.01169 17.0276 7.43681 17.0276C5.86195 17.0276 4.58505 15.7509 4.58505 14.1758ZM3.44434 14.1758C3.44434 16.3809 5.232 18.1684 7.43681 18.1684C8.99916 18.1684 10.3513 17.2711 11.0074 15.9637L14.8529 16.641L14.8515 16.7423C14.8515 18.3176 16.1284 19.5943 17.7033 19.5943C19.2781 19.5943 20.555 18.3176 20.555 16.7423C20.555 15.1671 19.2781 13.8906 17.7033 13.8906C16.5611 13.8906 15.5764 14.5609 15.1208 15.5303L11.3695 14.87C11.409 14.6447 11.4293 14.4125 11.4293 14.1757C11.4293 13.1333 11.0297 12.1845 10.3758 11.4738L13.8447 8.00458C14.1577 8.12266 14.497 8.18698 14.8515 8.18698C16.4264 8.18698 17.7033 6.91037 17.7033 5.3352C17.7033 3.76004 16.4264 2.4834 14.8515 2.4834C13.2766 2.4834 11.9997 3.76004 11.9997 5.3352C11.9997 6.13504 12.3292 6.85772 12.8594 7.37573L9.48571 10.7494C8.88666 10.3902 8.18628 10.1833 7.43681 10.1833C5.232 10.1833 3.44434 11.9707 3.44434 14.1758Z" fill="#6D798B" stroke="#6D798B" stroke-width="0.6"/>
</g>
</svg>
