<svg width="29" height="29" viewBox="0 0 29 29" fill="none" xmlns="http://www.w3.org/2000/svg">
<path d="M18.8657 3.05765C16.4687 0.657863 12.582 0.657868 10.1851 3.05766L3.3226 9.92833C0.926319 12.3275 0.926323 16.2167 3.3226 18.6159L10.1851 25.4865C12.582 27.8863 16.4687 27.8863 18.8657 25.4865L25.7282 18.6159C28.1245 16.2167 28.1245 12.3275 25.7282 9.92833L18.8657 3.05765Z" fill="white" stroke="white" stroke-width="2"/>
<path d="M10.8926 3.76434C12.8989 1.75564 16.1518 1.75564 18.1581 3.76434L25.0207 10.635C27.027 12.6437 27.027 15.9005 25.0207 17.9092L18.1581 24.7799C16.1518 26.7886 12.899 26.7886 10.8926 24.7799L4.03013 17.9092C2.02381 15.9005 2.02381 12.6437 4.03013 10.635L10.8926 3.76434Z" fill="#6F89CB"/>
</svg>
