<svg width="28" height="29" viewBox="0 0 28 29" fill="none" xmlns="http://www.w3.org/2000/svg">
<path opacity="0.8" d="M6.39914 17.4479C6.39951 17.4479 6.39981 17.4476 6.39981 17.4472C6.39981 13.2926 6.39716 9.13811 6.39981 4.98357C6.39981 4.09289 6.78916 3.49955 7.50651 3.25822C8.7212 2.84885 9.86389 3.58622 9.88124 4.82758C9.90257 6.51827 9.88788 8.21032 9.88788 9.90104V12.5477C9.88788 12.9411 9.94923 13.3318 10.4906 13.3357C11.0306 13.3411 11.0999 12.9664 11.0999 12.5624C11.0959 9.32766 11.0973 6.09161 11.0973 2.85552C11.0973 1.9195 11.5426 1.27949 12.3506 1.05551C13.348 0.775486 14.3867 1.36215 14.5507 2.30885C14.5867 2.52484 14.5813 2.74885 14.5827 2.96884C14.5853 6.07561 14.5827 9.18232 14.5827 12.2891V12.5104C14.5933 12.9144 14.628 13.3464 15.2093 13.3384C15.792 13.3304 15.804 12.8957 15.8027 12.4931C15.8027 9.66234 15.7947 6.83029 15.8107 3.99956C15.8133 3.64221 15.8734 3.25688 16.0267 2.93285C16.3107 2.32619 17.0547 1.99285 17.7574 2.06618C18.4801 2.14619 19.0908 2.65818 19.2361 3.33287C19.2814 3.54621 19.2841 3.77156 19.2841 3.99155C19.2868 7.09829 19.2841 10.205 19.2868 13.3118C19.2868 13.5318 19.2388 13.7864 19.3428 13.9625C19.4548 14.1545 19.7161 14.3931 19.9134 14.3905C20.1015 14.3905 20.3388 14.1371 20.4628 13.9451C20.5535 13.8064 20.4988 13.5864 20.4988 13.4024L20.4975 7.33696C20.4975 6.0476 21.1828 5.25823 22.2802 5.28359C23.3762 5.30757 24.0029 6.07159 24.0002 7.3343C23.9922 11.8944 23.9922 16.4518 23.9922 21.0119C23.9922 22.2146 23.8455 23.3933 23.3482 24.5213C22.4548 26.5441 20.8695 27.8881 18.6041 28.5041C16.0187 29.2068 13.4173 29.1121 10.8506 28.4014C8.8414 27.865 7.08445 26.6399 5.88647 24.94C4.10243 22.4573 2.30373 19.9799 0.529022 17.4905C0.306054 17.1917 0.143047 16.8526 0.0489999 16.4918C-0.159009 15.5811 0.311685 14.7291 1.14903 14.3718C2.02505 14.0011 3.16241 14.2491 3.79443 15.0051C4.62135 15.9922 5.4095 17.0064 6.21614 18.0095C6.23975 18.0389 6.27759 18.0529 6.31464 18.0461V18.0461C6.36322 18.0371 6.39847 17.9947 6.39847 17.9453V17.4485C6.39847 17.4482 6.39877 17.4479 6.39914 17.4479V17.4479Z" fill="#9BA3AF"/>
</svg>
