<svg width="24" height="25" viewBox="0 0 24 25" fill="none" xmlns="http://www.w3.org/2000/svg">
<mask id="mask0_84_13724" style="mask-type:alpha" maskUnits="userSpaceOnUse" x="0" y="0" width="24" height="25">
<rect y="0.0390625" width="24" height="24" fill="#C4C4C4"/>
</mask>
<g mask="url(#mask0_84_13724)">
<path d="M21.7039 10.1714V5.81325L20.2825 7.23463C19.4889 6.03228 18.4096 5.04553 17.141 4.36275C15.8725 3.67996 14.4544 3.32246 13.0138 3.32227C8.1999 3.32227 4.29688 7.22466 4.29688 12.0392C4.29688 16.8537 8.1999 20.7561 13.0138 20.7561C14.7486 20.7564 16.444 20.2391 17.8832 19.2704C19.3224 18.3018 20.4398 16.9257 21.0925 15.3183C21.1671 15.1348 21.1657 14.9292 21.0886 14.7467C21.0115 14.5642 20.8651 14.4198 20.6816 14.3452C20.5907 14.3083 20.4935 14.2897 20.3954 14.2903C20.2973 14.291 20.2003 14.311 20.1099 14.3492C19.9274 14.4262 19.783 14.5726 19.7085 14.7561C19.1674 16.088 18.2414 17.2281 17.0488 18.0307C15.8562 18.8334 14.4513 19.262 13.0138 19.2618C9.02483 19.2618 5.79109 16.0281 5.79109 12.0392C5.79109 8.05022 9.02483 4.81648 13.0138 4.81648C15.5907 4.81648 17.9154 6.17996 19.2011 8.31544L17.3458 10.1714H21.7039Z" fill="#6D798B" stroke="#6D798B" stroke-width="0.6"/>
</g>
</svg>
