<svg width="168" height="50" viewBox="0 0 168 50" fill="none" xmlns="http://www.w3.org/2000/svg">
<path d="M25 8H143C152.389 8 160 15.6112 160 25C160 34.3888 152.389 42 143 42H25C15.6112 42 8 34.3888 8 25C8 15.6112 15.6112 8 25 8Z" stroke="url(#paint0_linear_119_3056)" stroke-width="2"/>
<g filter="url(#filter0_di_119_3056)">
<path d="M143 5.5H25C14.2304 5.5 5.5 14.2304 5.5 25C5.5 35.7696 14.2304 44.5 25 44.5H143C153.77 44.5 162.5 35.7696 162.5 25C162.5 14.2304 153.77 5.5 143 5.5Z" stroke="#364666" stroke-width="3" shape-rendering="crispEdges"/>
</g>
<path d="M70.1152 18.3636H72.8879V26.4091C72.8841 27.1629 72.7042 27.822 72.3481 28.3864C71.9921 28.947 71.4996 29.3826 70.8709 29.6932C70.2459 30.0038 69.5224 30.1591 68.7004 30.1591C67.9731 30.1591 67.3121 30.0322 66.7175 29.7784C66.1265 29.5246 65.655 29.1307 65.3027 28.5966C64.9542 28.0625 64.7818 27.3788 64.7856 26.5455H67.5868C67.5981 26.8447 67.655 27.1004 67.7572 27.3125C67.8633 27.5208 68.0091 27.678 68.1947 27.7841C68.3803 27.8902 68.6019 27.9432 68.8595 27.9432C69.1284 27.9432 69.3557 27.8864 69.5413 27.7727C69.7269 27.6553 69.8671 27.483 69.9618 27.2557C70.0603 27.0284 70.1114 26.7462 70.1152 26.4091V18.3636ZM85.6365 24.1818C85.6365 25.4621 85.3903 26.5473 84.8979 27.4375C84.4054 28.3277 83.7388 29.0038 82.8979 29.4659C82.0607 29.928 81.1213 30.1591 80.0797 30.1591C79.0342 30.1591 78.0929 29.9261 77.2558 29.4602C76.4187 28.9943 75.7539 28.3182 75.2615 27.4318C74.7729 26.5417 74.5285 25.4583 74.5285 24.1818C74.5285 22.9015 74.7729 21.8163 75.2615 20.9261C75.7539 20.036 76.4187 19.3598 77.2558 18.8977C78.0929 18.4356 79.0342 18.2045 80.0797 18.2045C81.1213 18.2045 82.0607 18.4356 82.8979 18.8977C83.7388 19.3598 84.4054 20.036 84.8979 20.9261C85.3903 21.8163 85.6365 22.9015 85.6365 24.1818ZM82.7615 24.1818C82.7615 23.4242 82.6535 22.7841 82.4376 22.2614C82.2255 21.7386 81.9187 21.3428 81.5172 21.0739C81.1194 20.8049 80.6403 20.6705 80.0797 20.6705C79.5229 20.6705 79.0437 20.8049 78.6422 21.0739C78.2407 21.3428 77.9319 21.7386 77.716 22.2614C77.5039 22.7841 77.3979 23.4242 77.3979 24.1818C77.3979 24.9394 77.5039 25.5795 77.716 26.1023C77.9319 26.625 78.2407 27.0208 78.6422 27.2898C79.0437 27.5587 79.5229 27.6932 80.0797 27.6932C80.6403 27.6932 81.1194 27.5587 81.5172 27.2898C81.9187 27.0208 82.2255 26.625 82.4376 26.1023C82.6535 25.5795 82.7615 24.9394 82.7615 24.1818ZM90.091 18.3636V30H87.2785V18.3636H90.091ZM101.76 18.3636V30H99.3737L94.743 23.2841H94.6692V30H91.8567V18.3636H94.2771L98.8567 25.0682H98.9532V18.3636H101.76Z" fill="#FA6BE1"/>
<defs>
<filter id="filter0_di_119_3056" x="0" y="0" width="168" height="50" filterUnits="userSpaceOnUse" color-interpolation-filters="sRGB">
<feFlood flood-opacity="0" result="BackgroundImageFix"/>
<feColorMatrix in="SourceAlpha" type="matrix" values="0 0 0 0 0 0 0 0 0 0 0 0 0 0 0 0 0 0 127 0" result="hardAlpha"/>
<feOffset/>
<feGaussianBlur stdDeviation="2"/>
<feComposite in2="hardAlpha" operator="out"/>
<feColorMatrix type="matrix" values="0 0 0 0 0 0 0 0 0 0 0 0 0 0 0 0 0 0 0.25 0"/>
<feBlend mode="normal" in2="BackgroundImageFix" result="effect1_dropShadow_119_3056"/>
<feBlend mode="normal" in="SourceGraphic" in2="effect1_dropShadow_119_3056" result="shape"/>
<feColorMatrix in="SourceAlpha" type="matrix" values="0 0 0 0 0 0 0 0 0 0 0 0 0 0 0 0 0 0 127 0" result="hardAlpha"/>
<feOffset/>
<feGaussianBlur stdDeviation="1.5"/>
<feComposite in2="hardAlpha" operator="arithmetic" k2="-1" k3="1"/>
<feColorMatrix type="matrix" values="0 0 0 0 0 0 0 0 0 0 0 0 0 0 0 0 0 0 0.8 0"/>
<feBlend mode="normal" in2="shape" result="effect2_innerShadow_119_3056"/>
</filter>
<linearGradient id="paint0_linear_119_3056" x1="-46.6105" y1="-20.0198" x2="75.7728" y2="12.9277" gradientUnits="userSpaceOnUse">
<stop stop-color="#6C54FF"/>
<stop offset="0.296962" stop-color="#54E0FF"/>
<stop offset="1" stop-color="#F182DE"/>
</linearGradient>
</defs>
</svg>
