<svg width="28" height="28" viewBox="0 0 28 28" fill="none" xmlns="http://www.w3.org/2000/svg">
<ellipse cx="14" cy="13" rx="14" ry="13" fill="#6D798B"/>
<path d="M11.8352 16.5469V16.2557C11.8352 15.4508 11.9015 14.8092 12.0341 14.331C12.1714 13.8527 12.3703 13.4692 12.6307 13.1804C12.8911 12.8868 13.2083 12.6193 13.5824 12.3778C13.8807 12.1884 14.1458 11.9967 14.3778 11.8026C14.6146 11.6037 14.8016 11.3906 14.9389 11.1634C15.0762 10.9361 15.1449 10.678 15.1449 10.3892C15.1449 10.1098 15.0786 9.86364 14.946 9.65057C14.8134 9.4375 14.6312 9.27415 14.3991 9.16051C14.1719 9.04214 13.9186 8.98295 13.6392 8.98295C13.3598 8.98295 13.0971 9.04687 12.8509 9.17472C12.6094 9.30256 12.4105 9.48485 12.2543 9.72159C12.1027 9.9536 12.0246 10.2353 12.0199 10.5668H8.75284C8.76705 9.57244 8.99669 8.75805 9.44176 8.12358C9.89157 7.48911 10.4858 7.02036 11.2244 6.71733C11.9631 6.40956 12.7775 6.25568 13.6676 6.25568C14.643 6.25568 15.5095 6.4072 16.267 6.71023C17.0294 7.01326 17.6283 7.4607 18.0639 8.05256C18.4995 8.64441 18.7173 9.36884 18.7173 10.2259C18.7173 10.7893 18.6226 11.2865 18.4332 11.7173C18.2438 12.1482 17.9787 12.5294 17.6378 12.8608C17.3016 13.1875 16.9063 13.4858 16.4517 13.7557C16.0966 13.964 15.8007 14.1818 15.5639 14.4091C15.3319 14.6364 15.1567 14.8968 15.0384 15.1903C14.92 15.4792 14.8608 15.8343 14.8608 16.2557V16.5469H11.8352ZM13.4048 21.206C12.8935 21.206 12.4555 21.026 12.0909 20.6662C11.7311 20.3063 11.5535 19.8707 11.5582 19.3594C11.5535 18.8575 11.7311 18.429 12.0909 18.0739C12.4555 17.714 12.8935 17.5341 13.4048 17.5341C13.8925 17.5341 14.321 17.714 14.6903 18.0739C15.0597 18.429 15.2467 18.8575 15.2514 19.3594C15.2467 19.7003 15.1567 20.0104 14.9815 20.2898C14.8111 20.5691 14.5862 20.7917 14.3068 20.9574C14.0322 21.1231 13.7315 21.206 13.4048 21.206Z" fill="white"/>
</svg>
