<svg width="15" height="15" viewBox="0 0 15 15" fill="none" xmlns="http://www.w3.org/2000/svg">
<path fill-rule="evenodd" clip-rule="evenodd" d="M7.2739 0.878906C3.41251 0.878906 0.282227 4.01751 0.282227 7.87891C0.282227 11.7403 3.41251 14.8789 7.2739 14.8789C11.1353 14.8789 14.2656 11.7403 14.2656 7.87891C14.2656 4.01751 11.1353 0.878906 7.2739 0.878906ZM6.96663 11.4721C6.54137 11.4721 6.19663 11.8169 6.19663 12.2421C6.19663 12.6674 6.54137 13.0121 6.96663 13.0121H7.0658C7.49106 13.0121 7.8358 12.6674 7.8358 12.2421C7.8358 11.8169 7.49106 11.4721 7.0658 11.4721H6.96663ZM9.74816 7.70939C11.4857 5.63039 10.2126 2.85839 7.28941 2.74546C6.41994 2.74546 5.58608 3.06996 4.97127 3.64757C4.56389 4.0303 4.27479 4.5034 4.12609 5.01671C4.00015 5.45148 4.37801 5.82546 4.83065 5.82546C5.28329 5.82546 5.63522 5.43241 5.87438 5.04811C5.94457 4.93533 6.03032 4.83048 6.13034 4.73651C6.43774 4.44771 6.85467 4.28546 7.28941 4.28546C9.10342 4.41893 9.43126 6.04619 8.10899 7.19606C7.9641 7.3043 7.79077 7.40888 7.61019 7.51782C7.22557 7.74987 6.80811 8.00173 6.56271 8.35106C6.32018 8.69114 6.23833 9.12359 6.2107 9.62603C6.18585 10.078 6.56357 10.4455 7.01621 10.4455C7.46886 10.4455 7.79674 10.0718 7.89302 9.62952C7.94203 9.4044 8.033 9.18928 8.20188 8.99273C8.37823 8.78186 8.64343 8.59309 8.92145 8.3952C9.21195 8.18842 9.51643 7.97169 9.74816 7.70939Z" fill="#C4C4C4" fill-opacity="0.5"/>
</svg>
