<svg width="24" height="24" viewBox="0 0 24 24" fill="none" xmlns="http://www.w3.org/2000/svg">
<path d="M12.1663 23.375C5.89967 23.375 0.833008 18.15 0.833008 11.6875C0.833008 5.225 5.89967 0 12.1663 0C18.433 0 23.4997 5.225 23.4997 11.6875C23.4997 18.15 18.433 23.375 12.1663 23.375ZM12.1663 22C17.633 22 22.1663 17.325 22.1663 11.6875C22.1663 6.05 17.633 1.375 12.1663 1.375C6.69967 1.375 2.16634 6.05 2.16634 11.6875C2.16634 17.325 6.69967 22 12.1663 22ZM8.83301 15.125H15.4997V16.5H8.83301V15.125ZM10.1663 8.25V11H8.83301V8.25H10.1663ZM15.4997 8.25V11H14.1663V8.25H15.4997Z" fill="white"/>
</svg>
