<svg width="24" height="24" viewBox="0 0 24 24" fill="none" xmlns="http://www.w3.org/2000/svg">
<path d="M15.4997 17.875V17.1875C15.4997 15.2625 14.033 13.75 12.1663 13.75C10.2997 13.75 8.83301 15.2625 8.83301 17.1875V17.875H7.49967V17.1875C7.49967 14.575 9.63301 12.375 12.1663 12.375C14.6997 12.375 16.833 14.575 16.833 17.1875V17.875H15.4997ZM12.1663 0C18.433 0 23.4997 5.225 23.4997 11.6875C23.4997 18.15 18.433 23.375 12.1663 23.375C5.89967 23.375 0.833008 18.15 0.833008 11.6875C0.833008 5.225 5.89967 0 12.1663 0ZM12.1663 1.375C6.69967 1.375 2.16634 6.05 2.16634 11.6875C2.16634 17.325 6.69967 22 12.1663 22C17.633 22 22.1663 17.325 22.1663 11.6875C22.1663 6.05 17.633 1.375 12.1663 1.375ZM14.1663 9.625V6.875H15.4997V9.625H14.1663ZM8.83301 9.625V6.875H10.1663V9.625H8.83301Z" fill="white"/>
</svg>
