<svg width="24" height="24" viewBox="0 0 24 24" fill="none" xmlns="http://www.w3.org/2000/svg">
<path d="M16.5 12.875V13.5625C16.5 16.175 14.3 18.375 11.6875 18.375C9.075 18.375 6.875 16.175 6.875 13.5625V12.875H8.25V13.5625C8.25 15.4875 9.7625 17 11.6875 17C13.6125 17 15.125 15.4875 15.125 13.5625V12.875H16.5ZM11.6875 23.875C5.225 23.875 0 18.65 0 12.1875C0 5.725 5.225 0.5 11.6875 0.5C18.15 0.5 23.375 5.725 23.375 12.1875C23.375 18.65 18.15 23.875 11.6875 23.875ZM11.6875 22.5C17.325 22.5 22 17.825 22 12.1875C22 6.55 17.325 1.875 11.6875 1.875C6.05 1.875 1.375 6.55 1.375 12.1875C1.375 17.825 6.05 22.5 11.6875 22.5ZM9.625 7.375V10.125H8.25V7.375H9.625ZM15.125 7.375V10.125H13.75V7.375H15.125Z" fill="#FA6BE1"/>
</svg>
