<svg width="36" height="36" viewBox="0 0 36 36" fill="none" xmlns="http://www.w3.org/2000/svg">
<rect x="0.5" y="0.5" width="35" height="35" rx="12.5" stroke="white" stroke-opacity="0.12"/>
<path d="M15.7475 24.7509H20.2458C20.2458 25.3474 20.0088 25.9195 19.587 26.3413C19.1652 26.7631 18.5931 27.0001 17.9966 27.0001C17.4001 27.0001 16.828 26.7631 16.4062 26.3413C15.9844 25.9195 15.7475 25.3474 15.7475 24.7509V24.7509ZM23.6195 23.6264H10.1246C9.82632 23.6264 9.54028 23.5079 9.32938 23.297C9.11848 23.0861 9 22.8 9 22.5018C9 22.2035 9.11848 21.9175 9.32938 21.7066C9.54028 21.4957 9.82632 21.3772 10.1246 21.3772H11.2492V15.7543C11.2492 13.9648 11.96 12.2485 13.2254 10.9831C14.4908 9.71773 16.2071 9.00684 17.9966 9.00684C19.7862 9.00684 21.5024 9.71773 22.7678 10.9831C24.0332 12.2485 24.7441 13.9648 24.7441 15.7543V21.3772H25.8687C26.1669 21.3772 26.453 21.4957 26.6639 21.7066C26.8748 21.9175 26.9933 22.2035 26.9933 22.5018C26.9933 22.8 26.8748 23.0861 26.6639 23.297C26.453 23.5079 26.1669 23.6264 25.8687 23.6264H23.6195ZM13.4983 15.7543V21.3772H22.4949V15.7543C22.4949 14.5613 22.021 13.4171 21.1774 12.5735C20.3338 11.7299 19.1897 11.256 17.9966 11.256C16.8036 11.256 15.6594 11.7299 14.8158 12.5735C13.9722 13.4171 13.4983 14.5613 13.4983 15.7543V15.7543Z" fill="#6D798B"/>
</svg>
