<svg width="123" height="49" viewBox="0 0 123 49" fill="none" xmlns="http://www.w3.org/2000/svg">
<g opacity="0.6">
<mask id="path-1-inside-1_84_13719" fill="white">
<path fill-rule="evenodd" clip-rule="evenodd" d="M114.407 10.8485H10.9597L0.556641 0.635742V44.6357C0.556641 46.8449 2.3475 48.6357 4.55664 48.6357H118.557C120.766 48.6357 122.557 46.8449 122.557 44.6357V18.9162L114.407 10.8485Z"/>
</mask>
<path fill-rule="evenodd" clip-rule="evenodd" d="M114.407 10.8485H10.9597L0.556641 0.635742V44.6357C0.556641 46.8449 2.3475 48.6357 4.55664 48.6357H118.557C120.766 48.6357 122.557 46.8449 122.557 44.6357V18.9162L114.407 10.8485Z" fill="#C3C9DA" fill-opacity="0.6"/>
<path d="M10.9597 10.8485L10.2592 11.5621L10.5509 11.8485H10.9597V10.8485ZM114.407 10.8485L115.11 10.1378L114.818 9.84851H114.407V10.8485ZM0.556641 0.635742L1.25719 -0.0778625L-0.443359 -1.7473V0.635742H0.556641ZM122.557 18.9162H123.557V18.499L123.26 18.2055L122.557 18.9162ZM10.9597 11.8485H114.407V9.84851H10.9597V11.8485ZM-0.143908 1.34935L10.2592 11.5621L11.6603 10.1349L1.25719 -0.0778625L-0.143908 1.34935ZM1.55664 44.6357V0.635742H-0.443359V44.6357H1.55664ZM4.55664 47.6357C2.89979 47.6357 1.55664 46.2926 1.55664 44.6357H-0.443359C-0.443359 47.3972 1.79522 49.6357 4.55664 49.6357V47.6357ZM118.557 47.6357H4.55664V49.6357H118.557V47.6357ZM121.557 44.6357C121.557 46.2926 120.213 47.6357 118.557 47.6357V49.6357C121.318 49.6357 123.557 47.3972 123.557 44.6357H121.557ZM121.557 18.9162V44.6357H123.557V18.9162H121.557ZM123.26 18.2055L115.11 10.1378L113.703 11.5592L121.853 19.6269L123.26 18.2055Z" fill="white" fill-opacity="0.6" mask="url(#path-1-inside-1_84_13719)"/>
</g>
</svg>
