<svg width="20" height="20" viewBox="0 0 20 20" fill="none" xmlns="http://www.w3.org/2000/svg">
<circle cx="10.1049" cy="9.97112" r="8.87541" stroke="#FCFFFD" stroke-opacity="0.5" stroke-width="2"/>
<path fill-rule="evenodd" clip-rule="evenodd" d="M9.76892 5.01465C9.21664 5.01465 8.76892 5.46236 8.76892 6.01465V10.4261C8.76892 10.9784 9.21664 11.4261 9.76892 11.4261H10.4409C10.9932 11.4261 11.4409 10.9784 11.4409 10.4261V6.01465C11.4409 5.46236 10.9932 5.01465 10.4409 5.01465H9.76892ZM9.76892 12.3799C9.21664 12.3799 8.76892 12.8277 8.76892 13.3799V13.926C8.76892 14.4783 9.21664 14.926 9.76892 14.926H10.4409C10.9932 14.926 11.4409 14.4783 11.4409 13.926V13.3799C11.4409 12.8277 10.9932 12.3799 10.4409 12.3799H9.76892Z" fill="#FCFFFD" fill-opacity="0.8"/>
</svg>
