<svg width="11" height="7" viewBox="0 0 11 7" fill="none" xmlns="http://www.w3.org/2000/svg">
<path d="M5.37452 6.65056C5.3603 6.64486 5.34702 6.63157 5.33186 6.62398V6.62303C5.28445 6.59549 5.2323 6.57556 5.18964 6.53283C5.18205 6.52334 5.17731 6.51574 5.16973 6.5091C5.16025 6.4977 5.14508 6.49391 5.1356 6.48536L0.765702 1.94301C0.425367 1.58925 0.437681 1.02616 0.793154 0.687609C1.143 0.354423 1.69531 0.36306 2.03456 0.707024L5.66843 4.39137C5.66843 4.39137 7.71099 2.44404 9.38084 0.723777C9.71403 0.38053 10.2672 0.381192 10.5951 0.729554C10.8971 1.05055 10.8961 1.55153 10.5927 1.8713L6.19368 6.50815C6.09005 6.61609 5.95473 6.68811 5.8074 6.71372C5.66007 6.73934 5.50842 6.71721 5.37452 6.65056Z" fill="white" fill-opacity="0.7"/>
</svg>
