<svg width="49" height="48" viewBox="0 0 49 48" fill="none" xmlns="http://www.w3.org/2000/svg">
<circle r="24" transform="matrix(-1 0 0 1 24.8672 24)" fill="#474B89"/>
<circle r="23.5" transform="matrix(-1 0 0 1 24.8672 24)" stroke="#FCFFFD" stroke-opacity="0.2"/>
<path fill-rule="evenodd" clip-rule="evenodd" d="M22.5347 24.7069C22.1442 24.3164 22.1442 23.6832 22.5347 23.2927L30.8123 15.0151C31.2028 14.6246 31.2028 13.9914 30.8123 13.6009L28.8638 11.6524C28.4733 11.2619 27.8402 11.2619 27.4496 11.6524L15.8093 23.2927C15.4188 23.6832 15.4188 24.3164 15.8093 24.7069L27.4496 36.3472C27.8402 36.7377 28.4733 36.7377 28.8638 36.3472L30.8123 34.3987C31.2028 34.0082 31.2028 33.375 30.8123 32.9845L22.5347 24.7069Z" fill="#FCFFFD" fill-opacity="0.8"/>
</svg>
