<svg width="25" height="24" viewBox="0 0 25 24" fill="none" xmlns="http://www.w3.org/2000/svg">
<g filter="url(#filter0_f_0_132)">
<path fill-rule="evenodd" clip-rule="evenodd" d="M16.768 10.4221L18.0487 11.7028C18.1728 11.8294 18.2423 11.9996 18.2423 12.1769C18.2423 12.3542 18.1728 12.5244 18.0487 12.651L16.768 13.9317V15.742C16.7669 15.9198 16.6955 16.09 16.5693 16.2154C16.4432 16.3407 16.2726 16.4111 16.0948 16.4111H14.2845L13.0038 17.6959C12.8772 17.82 12.707 17.8895 12.5297 17.8895C12.3524 17.8895 12.1822 17.82 12.0556 17.6959L10.7749 16.4111H8.9605C8.87263 16.4111 8.78563 16.3938 8.70445 16.3601C8.62327 16.3265 8.54951 16.2772 8.48738 16.2151C8.42525 16.153 8.37596 16.0792 8.34234 15.998C8.30871 15.9169 8.29141 15.8298 8.29141 15.742V13.9317L7.01069 12.651C6.94826 12.5888 6.89872 12.515 6.86492 12.4336C6.83112 12.3522 6.81372 12.265 6.81372 12.1769C6.81372 12.0888 6.83112 12.0016 6.86492 11.9202C6.89872 11.8388 6.94826 11.765 7.01069 11.7028L8.29141 10.4221V8.60772C8.29141 8.51985 8.30871 8.43284 8.34234 8.35167C8.37596 8.27049 8.42525 8.19673 8.48738 8.1346C8.54951 8.07247 8.62327 8.02318 8.70445 7.98956C8.78563 7.95593 8.87263 7.93862 8.9605 7.93862H10.7749L12.0556 6.6579C12.1177 6.59548 12.1916 6.54594 12.273 6.51214C12.3543 6.47834 12.4416 6.46094 12.5297 6.46094C12.6178 6.46094 12.705 6.47834 12.7864 6.51214C12.8677 6.54594 12.9416 6.59548 13.0038 6.6579L14.2845 7.93862H16.0948C16.2726 7.93862 16.4432 8.00898 16.5693 8.13435C16.6955 8.25971 16.7669 8.42989 16.768 8.60772V10.4221ZM14.8538 9.59907C15.0881 9.36475 15.468 9.36475 15.7023 9.59907L16.1038 10.0005C16.3381 10.2349 16.3381 10.6148 16.1038 10.8491L11.9523 15.0005C11.718 15.2349 11.3381 15.2349 11.1038 15.0005L8.95234 12.8491C8.71803 12.6148 8.71803 12.2349 8.95234 12.0005L9.35381 11.5991C9.58813 11.3648 9.96803 11.3648 10.2023 11.5991L11.1038 12.5005C11.3381 12.7349 11.718 12.7349 11.9523 12.5005L14.8538 9.59907Z" fill="#A3FCFF"/>
</g>
<path d="M15.7023 9.59907C15.468 9.36475 15.0881 9.36475 14.8538 9.59907L11.9523 12.5005C11.718 12.7349 11.3381 12.7349 11.1038 12.5005L10.2023 11.5991C9.96803 11.3648 9.58813 11.3648 9.35381 11.5991L8.95234 12.0005C8.71803 12.2349 8.71803 12.6148 8.95234 12.8491L11.1038 15.0005C11.3381 15.2349 11.718 15.2349 11.9523 15.0005L16.1038 10.8491C16.3381 10.6148 16.3381 10.2349 16.1038 10.0005L15.7023 9.59907Z" fill="#02142F"/>
<g filter="url(#filter1_i_0_132)">
<path d="M20.257 11.5134L18.464 9.72039V7.1803C18.4625 6.93133 18.3625 6.69308 18.1859 6.51758C18.0094 6.34207 17.7705 6.24356 17.5215 6.24356H14.9872L13.1942 4.45056C13.1071 4.36316 13.0037 4.29381 12.8898 4.24649C12.7759 4.19916 12.6538 4.1748 12.5304 4.1748C12.4071 4.1748 12.285 4.19916 12.171 4.24649C12.0571 4.29381 11.9537 4.36316 11.8667 4.45056L10.0737 6.24356H7.53357C7.41055 6.24356 7.28875 6.26779 7.1751 6.31487C7.06145 6.36194 6.95818 6.43094 6.8712 6.51793C6.78421 6.60491 6.71522 6.70818 6.66814 6.82182C6.62107 6.93547 6.59684 7.05728 6.59684 7.1803V9.72039L4.80383 11.5134C4.71643 11.6004 4.64708 11.7039 4.59976 11.8178C4.55244 11.9317 4.52808 12.0538 4.52808 12.1772C4.52808 12.3005 4.55244 12.4226 4.59976 12.5365C4.64708 12.6504 4.71643 12.7539 4.80383 12.8409L6.59684 14.6339V17.1683C6.59684 17.2913 6.62107 17.4131 6.66814 17.5267C6.71522 17.6404 6.78421 17.7436 6.8712 17.8306C6.95818 17.9176 7.06145 17.9866 7.1751 18.0337C7.28875 18.0808 7.41055 18.105 7.53357 18.105H10.0737L11.8667 19.9037C12.0439 20.0775 12.2822 20.1748 12.5304 20.1748C12.7786 20.1748 13.0169 20.0775 13.1942 19.9037L14.9872 18.105H17.5215C17.7705 18.105 18.0094 18.0065 18.1859 17.831C18.3625 17.6555 18.4625 17.4172 18.464 17.1683V14.6339L20.257 12.8409C20.4308 12.6637 20.5281 12.4254 20.5281 12.1772C20.5281 11.929 20.4308 11.6906 20.257 11.5134Z" fill="#31C2C7"/>
</g>
<path d="M15.7023 9.59907C15.468 9.36475 15.0881 9.36475 14.8538 9.59907L11.9523 12.5005C11.718 12.7349 11.3381 12.7349 11.1038 12.5005L10.2023 11.5991C9.96803 11.3648 9.58813 11.3648 9.35381 11.5991L8.95234 12.0005C8.71803 12.2349 8.71803 12.6148 8.95234 12.8491L11.1038 15.0005C11.3381 15.2349 11.718 15.2349 11.9523 15.0005L16.1038 10.8491C16.3381 10.6148 16.3381 10.2349 16.1038 10.0005L15.7023 9.59907Z" fill="#FCFFFD"/>
<defs>
<filter id="filter0_f_0_132" x="0.813721" y="0.460938" width="23.4286" height="23.4286" filterUnits="userSpaceOnUse" color-interpolation-filters="sRGB">
<feFlood flood-opacity="0" result="BackgroundImageFix"/>
<feBlend mode="normal" in="SourceGraphic" in2="BackgroundImageFix" result="shape"/>
<feGaussianBlur stdDeviation="3" result="effect1_foregroundBlur_0_132"/>
</filter>
<filter id="filter1_i_0_132" x="4.52808" y="4.1748" width="16" height="16" filterUnits="userSpaceOnUse" color-interpolation-filters="sRGB">
<feFlood flood-opacity="0" result="BackgroundImageFix"/>
<feBlend mode="normal" in="SourceGraphic" in2="BackgroundImageFix" result="shape"/>
<feColorMatrix in="SourceAlpha" type="matrix" values="0 0 0 0 0 0 0 0 0 0 0 0 0 0 0 0 0 0 127 0" result="hardAlpha"/>
<feOffset/>
<feGaussianBlur stdDeviation="1"/>
<feComposite in2="hardAlpha" operator="arithmetic" k2="-1" k3="1"/>
<feColorMatrix type="matrix" values="0 0 0 0 0.645833 0 0 0 0 1 0 0 0 0 0.97875 0 0 0 1 0"/>
<feBlend mode="normal" in2="shape" result="effect1_innerShadow_0_132"/>
</filter>
</defs>
</svg>
