<svg width="124" height="38" viewBox="0 0 124 38" fill="none" xmlns="http://www.w3.org/2000/svg">
<path d="M47.0223 24.5597V8.47034H61.8174V11.4424H49.9903V15.0178H59.4966V17.9899H49.9903V24.5597H47.0223ZM66.1166 24.5597C65.2686 24.5597 64.5397 24.2617 63.9297 23.6658C63.3347 23.055 63.0371 22.325 63.0371 21.4759V11.5988H65.9604V20.8502C65.9604 21.2673 65.9827 21.5057 66.0274 21.5653C66.0869 21.61 66.3249 21.6323 66.7415 21.6323H72.4765C72.8931 21.6323 73.1236 21.61 73.1683 21.5653C73.2278 21.5057 73.2575 21.2673 73.2575 20.8502V11.5988H76.1808V21.4759C76.1808 22.325 75.8759 23.055 75.2659 23.6658C74.6708 24.2617 73.9493 24.5597 73.1013 24.5597H66.1166ZM78.5309 24.5597V14.6826C78.5309 13.8335 78.8285 13.1109 79.4235 12.515C80.0335 11.9042 80.7625 11.5988 81.6104 11.5988H88.796V14.5262H82.2353C81.8187 14.5262 81.5807 14.556 81.5212 14.6156C81.4766 14.6603 81.4542 14.8912 81.4542 15.3083V24.5597H78.5309ZM90.4948 24.5597V11.5988H93.4181V24.5597H90.4948ZM90.4948 10.3027V7.35303H93.4181V10.3027H90.4948ZM98.499 24.5597C97.651 24.5597 96.922 24.2617 96.3121 23.6658C95.717 23.055 95.4194 22.325 95.4194 21.4759V14.6826C95.4194 13.8335 95.717 13.1109 96.3121 12.515C96.922 11.9042 97.651 11.5988 98.499 11.5988H105.484C106.332 11.5988 107.053 11.9042 107.648 12.515C108.258 13.1109 108.563 13.8335 108.563 14.6826V21.4759C108.563 22.325 108.258 23.055 107.648 23.6658C107.053 24.2617 106.332 24.5597 105.484 24.5597H98.499ZM99.1238 21.6323H104.859C105.275 21.6323 105.506 21.61 105.551 21.5653C105.61 21.5057 105.64 21.2673 105.64 20.8502V15.3083C105.64 14.8912 105.61 14.6603 105.551 14.6156C105.506 14.556 105.275 14.5262 104.859 14.5262H99.1238C98.7072 14.5262 98.4692 14.556 98.4097 14.6156C98.3651 14.6603 98.3428 14.8912 98.3428 15.3083V20.8502C98.3428 21.2673 98.3651 21.5057 98.4097 21.5653C98.4692 21.61 98.7072 21.6323 99.1238 21.6323ZM110.371 24.5597V11.5988H120.435C121.283 11.5988 122.004 11.9042 122.599 12.515C123.209 13.1109 123.514 13.8335 123.514 14.6826V24.5597H120.591V15.3083C120.591 14.8912 120.561 14.6603 120.502 14.6156C120.457 14.556 120.226 14.5262 119.81 14.5262H114.075C113.658 14.5262 113.42 14.556 113.361 14.6156C113.316 14.6603 113.294 14.8912 113.294 15.3083V24.5597H110.371Z" fill="#13458D"/>
<path d="M46.0237 24.5597V8.47034H60.8187V11.4424H48.9916V15.0178H58.4979V17.9899H48.9916V24.5597H46.0237ZM65.118 24.5597C64.27 24.5597 63.541 24.2617 62.9311 23.6658C62.336 23.055 62.0385 22.325 62.0385 21.4759V11.5988H64.9618V20.8502C64.9618 21.2673 64.9841 21.5057 65.0287 21.5653C65.0882 21.61 65.3263 21.6323 65.7428 21.6323H71.4778C71.8944 21.6323 72.125 21.61 72.1696 21.5653C72.2291 21.5057 72.2589 21.2673 72.2589 20.8502V11.5988H75.1822V21.4759C75.1822 22.325 74.8772 23.055 74.2673 23.6658C73.6722 24.2617 72.9507 24.5597 72.1027 24.5597H65.118ZM77.5323 24.5597V14.6826C77.5323 13.8335 77.8298 13.1109 78.4249 12.515C79.0348 11.9042 79.7638 11.5988 80.6118 11.5988H87.7973V14.5262H81.2366C80.8201 14.5262 80.582 14.556 80.5225 14.6156C80.4779 14.6603 80.4556 14.8912 80.4556 15.3083V24.5597H77.5323ZM89.4962 24.5597V11.5988H92.4195V24.5597H89.4962ZM89.4962 10.3027V7.35303H92.4195V10.3027H89.4962ZM97.5003 24.5597C96.6523 24.5597 95.9234 24.2617 95.3134 23.6658C94.7183 23.055 94.4208 22.325 94.4208 21.4759V14.6826C94.4208 13.8335 94.7183 13.1109 95.3134 12.515C95.9234 11.9042 96.6523 11.5988 97.5003 11.5988H104.485C105.333 11.5988 106.055 11.9042 106.65 12.515C107.26 13.1109 107.565 13.8335 107.565 14.6826V21.4759C107.565 22.325 107.26 23.055 106.65 23.6658C106.055 24.2617 105.333 24.5597 104.485 24.5597H97.5003ZM98.1251 21.6323H103.86C104.277 21.6323 104.507 21.61 104.552 21.5653C104.611 21.5057 104.641 21.2673 104.641 20.8502V15.3083C104.641 14.8912 104.611 14.6603 104.552 14.6156C104.507 14.556 104.277 14.5262 103.86 14.5262H98.1251C97.7086 14.5262 97.4705 14.556 97.411 14.6156C97.3664 14.6603 97.3441 14.8912 97.3441 15.3083V20.8502C97.3441 21.2673 97.3664 21.5057 97.411 21.5653C97.4705 21.61 97.7086 21.6323 98.1251 21.6323ZM109.372 24.5597V11.5988H119.436C120.284 11.5988 121.006 11.9042 121.601 12.515C122.211 13.1109 122.516 13.8335 122.516 14.6826V24.5597H119.592V15.3083C119.592 14.8912 119.563 14.6603 119.503 14.6156C119.458 14.556 119.228 14.5262 118.811 14.5262H113.076C112.66 14.5262 112.422 14.556 112.362 14.6156C112.317 14.6603 112.295 14.8912 112.295 15.3083V24.5597H109.372Z" fill="#FCFFFD"/>
<rect x="3.68097" y="0.0874023" width="31.7812" height="31.8253" rx="8.67962" fill="#08295A"/>
<g filter="url(#filter0_dii_1_63)">
<rect x="3.68097" y="0.0874023" width="31.7812" height="31.8253" rx="8.67962" fill="#08295A"/>
</g>
<g filter="url(#filter1_di_1_63)">
<path d="M20.8287 25.3827C18.147 25.3827 15.575 24.3159 13.6787 22.417C11.7824 20.518 10.7171 17.9425 10.7171 15.2571C10.7171 11.1544 13.0707 7.47599 16.7148 5.88775C16.8432 5.8317 16.9855 5.81568 17.1232 5.84179C17.2608 5.8679 17.3874 5.93492 17.4865 6.03412C17.5856 6.13333 17.6525 6.26011 17.6786 6.39795C17.7046 6.53579 17.6887 6.67831 17.6327 6.80691C17.2143 7.76885 16.9933 9.00095 16.9933 10.3688C16.9933 15.1819 20.9037 19.0978 25.7102 19.0978C27.0762 19.0978 28.3065 18.8765 29.2672 18.4575C29.3956 18.4015 29.5379 18.3855 29.6756 18.4116C29.8132 18.4377 29.9398 18.5047 30.0388 18.6039C30.1379 18.7031 30.2049 18.8299 30.2309 18.9678C30.2571 19.1056 30.2411 19.2481 30.1851 19.3767C28.599 23.0258 24.9257 25.3827 20.8287 25.3827Z" fill="#F181DE"/>
</g>
<defs>
<filter id="filter0_dii_1_63" x="0.787764" y="-0.635899" width="37.5676" height="38.3349" filterUnits="userSpaceOnUse" color-interpolation-filters="sRGB">
<feFlood flood-opacity="0" result="BackgroundImageFix"/>
<feColorMatrix in="SourceAlpha" type="matrix" values="0 0 0 0 0 0 0 0 0 0 0 0 0 0 0 0 0 0 127 0" result="hardAlpha"/>
<feOffset dy="2.89321"/>
<feGaussianBlur stdDeviation="1.4466"/>
<feComposite in2="hardAlpha" operator="out"/>
<feColorMatrix type="matrix" values="0 0 0 0 0 0 0 0 0 0 0 0 0 0 0 0 0 0 0.25 0"/>
<feBlend mode="normal" in2="BackgroundImageFix" result="effect1_dropShadow_1_63"/>
<feBlend mode="normal" in="SourceGraphic" in2="effect1_dropShadow_1_63" result="shape"/>
<feColorMatrix in="SourceAlpha" type="matrix" values="0 0 0 0 0 0 0 0 0 0 0 0 0 0 0 0 0 0 127 0" result="hardAlpha"/>
<feOffset dy="-0.723301"/>
<feGaussianBlur stdDeviation="0.361651"/>
<feComposite in2="hardAlpha" operator="arithmetic" k2="-1" k3="1"/>
<feColorMatrix type="matrix" values="0 0 0 0 0 0 0 0 0 0 0 0 0 0 0 0 0 0 0.25 0"/>
<feBlend mode="normal" in2="shape" result="effect2_innerShadow_1_63"/>
<feColorMatrix in="SourceAlpha" type="matrix" values="0 0 0 0 0 0 0 0 0 0 0 0 0 0 0 0 0 0 127 0" result="hardAlpha"/>
<feOffset dy="0.723301"/>
<feGaussianBlur stdDeviation="0.361651"/>
<feComposite in2="hardAlpha" operator="arithmetic" k2="-1" k3="1"/>
<feColorMatrix type="matrix" values="0 0 0 0 1 0 0 0 0 1 0 0 0 0 1 0 0 0 0.25 0"/>
<feBlend mode="normal" in2="effect2_innerShadow_1_63" result="effect3_innerShadow_1_63"/>
</filter>
<filter id="filter1_di_1_63" x="9.2705" y="5.82959" width="22.4193" height="22.4464" filterUnits="userSpaceOnUse" color-interpolation-filters="sRGB">
<feFlood flood-opacity="0" result="BackgroundImageFix"/>
<feColorMatrix in="SourceAlpha" type="matrix" values="0 0 0 0 0 0 0 0 0 0 0 0 0 0 0 0 0 0 127 0" result="hardAlpha"/>
<feOffset dy="1.4466"/>
<feGaussianBlur stdDeviation="0.723301"/>
<feComposite in2="hardAlpha" operator="out"/>
<feColorMatrix type="matrix" values="0 0 0 0 0 0 0 0 0 0 0 0 0 0 0 0 0 0 0.25 0"/>
<feBlend mode="normal" in2="BackgroundImageFix" result="effect1_dropShadow_1_63"/>
<feBlend mode="normal" in="SourceGraphic" in2="effect1_dropShadow_1_63" result="shape"/>
<feColorMatrix in="SourceAlpha" type="matrix" values="0 0 0 0 0 0 0 0 0 0 0 0 0 0 0 0 0 0 127 0" result="hardAlpha"/>
<feOffset dy="0.723301"/>
<feGaussianBlur stdDeviation="0.21699"/>
<feComposite in2="hardAlpha" operator="arithmetic" k2="-1" k3="1"/>
<feColorMatrix type="matrix" values="0 0 0 0 1 0 0 0 0 0.725 0 0 0 0 0.953348 0 0 0 1 0"/>
<feBlend mode="normal" in2="shape" result="effect2_innerShadow_1_63"/>
</filter>
</defs>
</svg>
