<svg width="23" height="23" viewBox="0 0 23 23" fill="none" xmlns="http://www.w3.org/2000/svg">
<path opacity="0.6" fill-rule="evenodd" clip-rule="evenodd" d="M9.23938 0.333984C14.0679 0.333984 17.9607 4.47882 17.9607 9.5633C17.9607 11.4981 17.3954 13.2864 16.4344 14.7678L22.3851 20.3392L22.3937 20.3484C22.8927 20.8777 22.8915 21.73 22.3946 22.2604L22.392 22.2632C22.1414 22.5256 21.8121 22.6663 21.4714 22.6663C21.1364 22.6663 20.8076 22.5301 20.5586 22.2713L14.6799 16.771C13.191 18.0322 11.3034 18.7949 9.24157 18.7949C4.41294 18.7949 0.522461 14.65 0.522461 9.56562C0.522461 4.4813 4.41307 0.336416 9.23938 0.333984ZM9.24157 3.0523C5.87459 3.0523 3.11053 5.95735 3.11053 9.5633C3.11053 13.1694 5.87476 16.0766 9.24157 16.0766C12.6085 16.0766 15.3726 13.1693 15.3726 9.56562C15.3726 5.96171 12.6083 3.0523 9.24157 3.0523Z" fill="white"/>
</svg>
