<svg width="25" height="25" viewBox="0 0 25 25" fill="none" xmlns="http://www.w3.org/2000/svg">
<mask id="mask0_0_52" style="mask-type:alpha" maskUnits="userSpaceOnUse" x="0" y="0" width="25" height="25">
<rect x="0.0844116" y="0.0874023" width="23.9667" height="24" fill="#FCFFFD" fill-opacity="0.9"/>
</mask>
<g mask="url(#mask0_0_52)">
<path fill-rule="evenodd" clip-rule="evenodd" d="M19.323 5.80506V7.47158C20.3233 7.47158 21.1368 8.28619 21.1368 9.28787V18.3693C21.1368 19.371 20.3233 20.1856 19.323 20.1856H6.57564C5.48194 20.1856 3.85498 19.46 3.85498 17.4612V6.71321C3.85498 5.21113 5.07565 3.98877 6.57564 3.98877H17.5092C18.5095 3.98877 19.323 4.80338 19.323 5.80506ZM17.7419 5.65529H6.39496C6.16145 5.66575 5.94098 5.766 5.77943 5.93516C5.61789 6.10433 5.52773 6.32937 5.52773 6.56344C5.52773 6.7975 5.61789 7.02254 5.77943 7.19171C5.94098 7.36087 6.16145 7.46112 6.39496 7.47158H17.7419V5.65529ZM16.6905 12.0874C16.5011 12.0874 16.3476 12.2409 16.3476 12.4303V16.0303C16.3476 16.2196 16.5011 16.3731 16.6905 16.3731H17.7167C17.906 16.3731 18.0595 16.2196 18.0595 16.0303V12.4303C18.0595 12.2409 17.906 12.0874 17.7167 12.0874H16.6905Z" fill="#FCFFFD"/>
</g>
</svg>
