<svg width="28" height="28" viewBox="0 0 28 28" fill="none" xmlns="http://www.w3.org/2000/svg">
<g filter="url(#filter0_d_942_948)">
<path d="M19.6186 12.794C18.9117 12.794 18.3316 12.1839 18.3316 11.4405C18.3316 10.695 18.9096 10.087 19.6186 10.087H23.6469V8.96123C23.6469 8.23506 23.084 7.64209 22.3943 7.64209H8.37363C7.68398 7.64209 7.12109 8.23506 7.12109 8.96123V18.0706C7.12109 18.7968 7.68398 19.3897 8.37363 19.3897H22.3943C23.084 19.3897 23.6469 18.7968 23.6469 18.0706V12.794H19.6186Z" fill="#E7E9EA"/>
<path d="M18.7627 11.4404C18.7627 11.674 18.8555 11.8981 19.0207 12.0633C19.1859 12.2285 19.4099 12.3213 19.6436 12.3213C19.8772 12.3213 20.1012 12.2285 20.2664 12.0633C20.4316 11.8981 20.5244 11.674 20.5244 11.4404C20.5244 11.2068 20.4316 10.9828 20.2664 10.8176C20.1012 10.6524 19.8772 10.5596 19.6436 10.5596C19.4099 10.5596 19.1859 10.6524 19.0207 10.8176C18.8555 10.9828 18.7627 11.2068 18.7627 11.4404V11.4404Z" fill="#E7E9EA"/>
<path d="M6.33914 8.18133C6.33914 7.45516 6.93211 6.86219 7.65828 6.86219H21.2471L20.1085 3.53855C19.8743 2.8532 19.1202 2.48367 18.4327 2.71785L5.28855 7.22527C4.6032 7.45945 4.23367 8.21355 4.46785 8.90105L6.33914 14.3602V8.18133V8.18133Z" fill="#E7E9EA"/>
</g>
<defs>
<filter id="filter0_d_942_948" x="-1" y="0" width="30" height="30" filterUnits="userSpaceOnUse" color-interpolation-filters="sRGB">
<feFlood flood-opacity="0" result="BackgroundImageFix"/>
<feColorMatrix in="SourceAlpha" type="matrix" values="0 0 0 0 0 0 0 0 0 0 0 0 0 0 0 0 0 0 127 0" result="hardAlpha"/>
<feOffset dy="4"/>
<feGaussianBlur stdDeviation="2"/>
<feComposite in2="hardAlpha" operator="out"/>
<feColorMatrix type="matrix" values="0 0 0 0 0 0 0 0 0 0 0 0 0 0 0 0 0 0 0.25 0"/>
<feBlend mode="normal" in2="BackgroundImageFix" result="effect1_dropShadow_942_948"/>
<feBlend mode="normal" in="SourceGraphic" in2="effect1_dropShadow_942_948" result="shape"/>
</filter>
</defs>
</svg>
