<svg width="14" height="14" viewBox="0 0 14 14" fill="none" xmlns="http://www.w3.org/2000/svg">
<path fill-rule="evenodd" clip-rule="evenodd" d="M2 0C0.895431 0 0 0.89543 0 2V4.3C0 5.40457 0.89543 6.3 2 6.3H4.3C5.40457 6.3 6.3 5.40457 6.3 4.3V2C6.3 0.895431 5.40457 0 4.3 0H2ZM2 7.69989C0.895431 7.69989 0 8.59532 0 9.69989V11.9999C0 13.1045 0.89543 13.9999 2 13.9999H4.3C5.40457 13.9999 6.3 13.1045 6.3 11.9999V9.69989C6.3 8.59533 5.40457 7.69989 4.3 7.69989H2ZM7.70042 9.69989C7.70042 8.59532 8.59585 7.69989 9.70042 7.69989H12.0004C13.105 7.69989 14.0004 8.59533 14.0004 9.69989V11.9999C14.0004 13.1045 13.105 13.9999 12.0004 13.9999H9.70042C8.59585 13.9999 7.70042 13.1045 7.70042 11.9999V9.69989ZM9.10042 0C8.32722 0 7.70042 0.626801 7.70042 1.4V4.9C7.70042 5.6732 8.32722 6.3 9.10042 6.3H12.6004C13.3736 6.3 14.0004 5.6732 14.0004 4.9V1.4C14.0004 0.626801 13.3736 0 12.6004 0H9.10042ZM9.10042 1.4H12.6004V4.9H9.10042V1.4Z" fill="#ADB8C9"/>
</svg>
