<svg width="15" height="15" viewBox="0 0 15 15" fill="none" xmlns="http://www.w3.org/2000/svg">
<path d="M11.6248 11.3687C11.9512 11.3307 12.0865 10.7752 12.0865 10.7752C12.0865 10.7752 12.4625 9.56872 12.0621 5.56059C11.6616 1.55245 10.9385 0.474066 10.9385 0.474066C10.9385 0.474066 10.6794 -0.0354821 10.358 0.00196761C9.93351 0.0514296 9.55797 0.341407 9.09996 0.938837L9.09768 0.941805C8.63767 1.54186 7.34197 3.232 4.6347 3.54746C4.30779 3.57574 3.98126 3.61706 3.65508 3.65834C3.49212 3.67896 3.32915 3.69959 3.1663 3.71856C2.25696 3.82452 1.54999 4.51007 1.35777 5.37362C1.31886 5.37483 1.27969 5.3777 1.24032 5.38228C0.472895 5.47171 -0.0783321 6.18033 0.00912159 6.96504C0.0965752 7.74975 0.789593 8.3134 1.55702 8.22397C1.59639 8.21939 1.63519 8.21317 1.67336 8.20539C2.05066 9.00258 2.89036 9.50791 3.79969 9.40195C3.96214 9.38302 4.12497 9.36165 4.28784 9.34029C4.6142 9.29747 4.94132 9.25455 5.2681 9.23084C7.84286 8.93082 9.57737 10.1721 10.1645 10.7032C10.7516 11.2343 11.0358 11.4374 11.6248 11.3687Z" fill="#ADB8C9"/>
<path d="M14.9863 5.21958C15.0903 6.15234 14.5926 7.01344 13.8087 7.39745C13.4604 7.56807 13.1041 7.27565 13.0603 6.8833C13.0603 6.8833 13.0359 6.16326 12.9496 5.4503C12.8634 4.73735 12.7436 4.0416 12.7436 4.0416C12.7436 4.0416 12.9828 3.28235 13.3597 3.36846C14.208 3.56228 14.8824 4.28681 14.9863 5.21958Z" fill="#ADB8C9"/>
<path d="M7.21028 13.3404C7.07591 12.8926 6.43756 11.0287 6.19319 10.7969C5.96295 10.5785 5.68299 10.6155 5.4032 10.6525C5.39114 10.6541 5.37909 10.6557 5.36704 10.6573C5.25448 10.672 5.14965 10.6863 5.04809 10.7002C4.70499 10.7471 4.39915 10.7889 3.958 10.8228C3.54098 10.8548 3.1605 10.8447 2.78659 10.7578C3.53403 12.1673 4.52101 13.639 5.12394 14.5013C5.44038 14.9539 6.01648 15.1178 6.52228 14.9127C7.13175 14.6655 7.45299 14.1492 7.21028 13.3404Z" fill="#ADB8C9"/>
</svg>
