<svg width="30" height="30" viewBox="0 0 30 30" fill="none" xmlns="http://www.w3.org/2000/svg">
<rect width="30" height="30" rx="8.57143" fill="#6D798B" fill-opacity="0.4"/>
<path d="M18.6248 19.3687C18.9512 19.3307 19.0865 18.7752 19.0865 18.7752C19.0865 18.7752 19.4625 17.5687 19.0621 13.5606C18.6616 9.55245 17.9385 8.47407 17.9385 8.47407C17.9385 8.47407 17.6794 7.96452 17.358 8.00197C16.9335 8.05143 16.558 8.34141 16.1 8.93884L16.0977 8.94181C15.6377 9.54186 14.342 11.232 11.6347 11.5475C11.3078 11.5757 10.9813 11.6171 10.6551 11.6583C10.4921 11.679 10.3291 11.6996 10.1663 11.7186C9.25696 11.8245 8.54999 12.5101 8.35777 13.3736C8.31886 13.3748 8.27969 13.3777 8.24032 13.3823C7.4729 13.4717 6.92167 14.1803 7.00912 14.965C7.09658 15.7498 7.78959 16.3134 8.55702 16.224C8.59639 16.2194 8.63519 16.2132 8.67336 16.2054C9.05066 17.0026 9.89036 17.5079 10.7997 17.4019C10.9621 17.383 11.125 17.3617 11.2878 17.3403C11.6142 17.2975 11.9413 17.2546 12.2681 17.2308C14.8429 16.9308 16.5774 18.1721 17.1645 18.7032C17.7516 19.2343 18.0358 19.4374 18.6248 19.3687Z" fill="#ADB8C9"/>
<path d="M21.9863 13.2196C22.0903 14.1523 21.5926 15.0134 20.8087 15.3975C20.4604 15.5681 20.1041 15.2757 20.0603 14.8833C20.0603 14.8833 20.0359 14.1633 19.9496 13.4503C19.8634 12.7373 19.7436 12.0416 19.7436 12.0416C19.7436 12.0416 19.9828 11.2824 20.3597 11.3685C21.208 11.5623 21.8824 12.2868 21.9863 13.2196Z" fill="#ADB8C9"/>
<path d="M14.2103 21.3404C14.0759 20.8926 13.4376 19.0287 13.1932 18.7969C12.963 18.5785 12.683 18.6155 12.4032 18.6525C12.3911 18.6541 12.3791 18.6557 12.367 18.6573C12.2545 18.672 12.1497 18.6863 12.0481 18.7002C11.705 18.7471 11.3991 18.7889 10.958 18.8228C10.541 18.8548 10.1605 18.8447 9.78659 18.7578C10.534 20.1673 11.521 21.639 12.1239 22.5013C12.4404 22.9539 13.0165 23.1178 13.5223 22.9127C14.1317 22.6655 14.453 22.1492 14.2103 21.3404Z" fill="#ADB8C9"/>
</svg>
