<svg width="16" height="16" viewBox="0 0 16 16" fill="none" xmlns="http://www.w3.org/2000/svg">
<path d="M6.25 13.25H9.75C9.75 13.7141 9.56563 14.1592 9.23744 14.4874C8.90925 14.8156 8.46413 15 8 15C7.53587 15 7.09075 14.8156 6.76256 14.4874C6.43437 14.1592 6.25 13.7141 6.25 13.25ZM12.375 12.375H1.875C1.64294 12.375 1.42038 12.2828 1.25628 12.1187C1.09219 11.9546 1 11.7321 1 11.5C1 11.2679 1.09219 11.0454 1.25628 10.8813C1.42038 10.7172 1.64294 10.625 1.875 10.625H2.75V6.25C2.75 4.85761 3.30312 3.52226 4.28769 2.53769C5.27226 1.55312 6.60761 1 8 1C9.39239 1 10.7277 1.55312 11.7123 2.53769C12.6969 3.52226 13.25 4.85761 13.25 6.25V10.625H14.125C14.3571 10.625 14.5796 10.7172 14.7437 10.8813C14.9078 11.0454 15 11.2679 15 11.5C15 11.7321 14.9078 11.9546 14.7437 12.1187C14.5796 12.2828 14.3571 12.375 14.125 12.375H12.375ZM4.5 6.25V10.625H11.5V6.25C11.5 5.32174 11.1313 4.4315 10.4749 3.77513C9.8185 3.11875 8.92826 2.75 8 2.75C7.07174 2.75 6.1815 3.11875 5.52513 3.77513C4.86875 4.4315 4.5 5.32174 4.5 6.25Z" fill="#ADB8C9" stroke="#ADB8C9" stroke-width="0.4"/>
</svg>
