<svg width="17" height="18" viewBox="0 0 17 18" fill="none" xmlns="http://www.w3.org/2000/svg">
<path d="M6.375 15.1128H10.625C10.625 15.6764 10.4011 16.2169 10.0026 16.6154C9.60409 17.0139 9.06358 17.2378 8.5 17.2378C7.93641 17.2378 7.39591 17.0139 6.9974 16.6154C6.59888 16.2169 6.375 15.6764 6.375 15.1128ZM13.8125 14.0503H1.0625C0.780707 14.0503 0.510456 13.9384 0.311199 13.7391C0.111942 13.5398 0 13.2696 0 12.9878C0 12.706 0.111942 12.4357 0.311199 12.2365C0.510456 12.0372 0.780707 11.9253 1.0625 11.9253H2.125V6.61279C2.125 4.92204 2.79665 3.30053 3.99219 2.10499C5.18774 0.909443 6.80924 0.237793 8.5 0.237793C10.1908 0.237793 11.8123 0.909443 13.0078 2.10499C14.2034 3.30053 14.875 4.92204 14.875 6.61279V11.9253H15.9375C16.2193 11.9253 16.4895 12.0372 16.6888 12.2365C16.8881 12.4357 17 12.706 17 12.9878C17 13.2696 16.8881 13.5398 16.6888 13.7391C16.4895 13.9384 16.2193 14.0503 15.9375 14.0503H13.8125ZM4.25 6.61279V11.9253H12.75V6.61279C12.75 5.48562 12.3022 4.40462 11.5052 3.60759C10.7082 2.81056 9.62717 2.36279 8.5 2.36279C7.37283 2.36279 6.29183 2.81056 5.4948 3.60759C4.69777 4.40462 4.25 5.48562 4.25 6.61279Z" fill="#F181DE"/>
</svg>
