<svg width="35" height="18" viewBox="0 0 35 18" fill="none" xmlns="http://www.w3.org/2000/svg">
<rect x="0.75" y="0.75" width="33.5" height="16.5" rx="8.25" fill="#162548" stroke="#F96AE0" stroke-width="1.5"/>
<path d="M20.2536 12.7861C20.5387 13.0713 21.001 13.0713 21.2861 12.7861C21.5713 12.501 21.5713 12.0387 21.2861 11.7536L18.5326 9L21.2861 6.24644C21.5713 5.9613 21.5713 5.499 21.2861 5.21386C21.001 4.92871 20.5387 4.92872 20.2536 5.21386L17.5 7.96742L14.7464 5.21386C14.4613 4.92871 13.999 4.92871 13.7139 5.21386C13.4287 5.499 13.4287 5.9613 13.7139 6.24644L16.4674 9L13.7139 11.7536C13.4287 12.0387 13.4287 12.501 13.7139 12.7861C13.999 13.0713 14.4613 13.0713 14.7464 12.7861L17.5 10.0326L20.2536 12.7861Z" fill="#F96AE0"/>
</svg>
