<svg width="34" height="34" viewBox="0 0 34 34" fill="none" xmlns="http://www.w3.org/2000/svg">
<rect y="0.000244141" width="34" height="34" rx="8" fill="url(#paint0_linear_0_141)"/>
<g filter="url(#filter0_d_0_141)">
<mask id="mask0_0_141" style="mask-type:alpha" maskUnits="userSpaceOnUse" x="5" y="5" width="24" height="25">
<rect x="5" y="5.00037" width="23.9667" height="24" fill="#FCFFFD" fill-opacity="0.9"/>
</mask>
<g mask="url(#mask0_0_141)">
<path fill-rule="evenodd" clip-rule="evenodd" d="M24.2395 10.7178V12.3843C25.2398 12.3843 26.0533 13.1989 26.0533 14.2006V23.2821C26.0533 24.2837 25.2398 25.0984 24.2395 25.0984H11.4921C10.3984 25.0984 8.77148 24.3727 8.77148 22.3739V11.6259C8.77148 10.1239 9.99216 8.90149 11.4921 8.90149H22.4257C23.426 8.90149 24.2395 9.7161 24.2395 10.7178ZM22.6584 10.568H11.3115C11.078 10.5785 10.8575 10.6787 10.6959 10.8479C10.5344 11.017 10.4442 11.2421 10.4442 11.4762C10.4442 11.7102 10.5344 11.9353 10.6959 12.1044C10.8575 12.2736 11.078 12.3738 11.3115 12.3843H22.6584V10.568ZM21.6065 17.0004C21.4172 17.0004 21.2637 17.1539 21.2637 17.3432V20.9432C21.2637 21.1326 21.4172 21.2861 21.6065 21.2861H22.6327C22.8221 21.2861 22.9756 21.1326 22.9756 20.9432V17.3432C22.9756 17.1539 22.8221 17.0004 22.6327 17.0004H21.6065Z" fill="#FCFFFD"/>
</g>
</g>
<defs>
<filter id="filter0_d_0_141" x="4.77148" y="6.90149" width="25.2818" height="24.1969" filterUnits="userSpaceOnUse" color-interpolation-filters="sRGB">
<feFlood flood-opacity="0" result="BackgroundImageFix"/>
<feColorMatrix in="SourceAlpha" type="matrix" values="0 0 0 0 0 0 0 0 0 0 0 0 0 0 0 0 0 0 127 0" result="hardAlpha"/>
<feOffset dy="2"/>
<feGaussianBlur stdDeviation="2"/>
<feComposite in2="hardAlpha" operator="out"/>
<feColorMatrix type="matrix" values="0 0 0 0 0 0 0 0 0 0 0 0 0 0 0 0 0 0 0.25 0"/>
<feBlend mode="normal" in2="BackgroundImageFix" result="effect1_dropShadow_0_141"/>
<feBlend mode="normal" in="SourceGraphic" in2="effect1_dropShadow_0_141" result="shape"/>
</filter>
<linearGradient id="paint0_linear_0_141" x1="38.4816" y1="34.0002" x2="-0.609065" y2="31.4797" gradientUnits="userSpaceOnUse">
<stop stop-color="#5DF3C3"/>
<stop offset="1" stop-color="#FC64D9"/>
</linearGradient>
</defs>
</svg>
