<svg width="19" height="18" viewBox="0 0 19 18" fill="none" xmlns="http://www.w3.org/2000/svg">
<path fill-rule="evenodd" clip-rule="evenodd" d="M16.2395 2.71754V4.38406C17.2398 4.38406 18.0533 5.19867 18.0533 6.20035V15.2818C18.0533 16.2835 17.2398 17.0981 16.2395 17.0981H3.49215C2.39844 17.0981 0.771484 16.3725 0.771484 14.3737V3.62568C0.771484 2.12361 1.99216 0.901245 3.49215 0.901245H14.4257C15.426 0.901245 16.2395 1.71585 16.2395 2.71754ZM14.6584 2.56777H3.31146C3.07796 2.57823 2.85748 2.67848 2.69594 2.84764C2.53439 3.01681 2.44424 3.24185 2.44424 3.47591C2.44424 3.70998 2.53439 3.93502 2.69594 4.10418C2.85748 4.27335 3.07796 4.3736 3.31146 4.38406H14.6584V2.56777ZM13.6065 9.00011C13.4172 9.00011 13.2637 9.15361 13.2637 9.34297V12.943C13.2637 13.1323 13.4172 13.2858 13.6065 13.2858H14.6327C14.8221 13.2858 14.9756 13.1323 14.9756 12.943V9.34297C14.9756 9.15361 14.8221 9.00011 14.6327 9.00011H13.6065Z" fill="#FCFFFD"/>
</svg>
