<svg width="30" height="30" viewBox="0 0 30 30" fill="none" xmlns="http://www.w3.org/2000/svg">
<path d="M1 8.57C1 4.3892 4.3892 1 8.57 1H21.43C25.6108 1 29 4.3892 29 8.57V21.43C29 25.6108 25.6108 29 21.43 29H8.57C4.3892 29 1 25.6108 1 21.43V8.57Z" fill="#F96AE0" stroke="#364666" stroke-width="2"/>
<path fill-rule="evenodd" clip-rule="evenodd" d="M22.4679 8.22741C23.0274 8.63055 23.1682 9.43122 22.7823 10.0158L14.5772 22.4442C14.3653 22.7653 14.0253 22.9685 13.653 22.9966C13.2806 23.0248 12.9162 22.8749 12.6622 22.5892L7.32887 16.5892C6.86635 16.0689 6.89519 15.2554 7.39329 14.7722C7.8914 14.289 8.67014 14.3191 9.13266 14.8395L13.4219 19.6649L17.0889 14.1104L20.7559 8.55589C21.1419 7.97134 21.9083 7.82428 22.4679 8.22741Z" fill="#FFB5F2"/>
<path fill-rule="evenodd" clip-rule="evenodd" d="M22.4679 7.22741C23.0274 7.63055 23.1682 8.43122 22.7823 9.01576L14.5772 21.4442C14.3653 21.7653 14.0253 21.9685 13.653 21.9966C13.2806 22.0248 12.9162 21.8749 12.6622 21.5891L7.32887 15.5892C6.86635 15.0689 6.89519 14.2554 7.39329 13.7722C7.8914 13.289 8.67014 13.3191 9.13266 13.8395L13.4219 18.6649L17.0889 13.1104L20.7559 7.55589C21.1419 6.97134 21.9083 6.82428 22.4679 7.22741Z" fill="#02193A"/>
</svg>
