<svg width="15" height="14" viewBox="0 0 15 14" fill="none" xmlns="http://www.w3.org/2000/svg">
<path opacity="0.5" d="M7.49682 5.10786L12.0895 0.518057C12.196 0.404959 12.324 0.31431 12.466 0.25146C12.6086 0.188389 12.7623 0.154602 12.9182 0.152103C13.074 0.149604 13.2288 0.178445 13.3733 0.236914C13.5178 0.295383 13.6491 0.382287 13.7593 0.492465C13.8695 0.602644 13.9565 0.733848 14.015 0.878283C14.0735 1.02272 14.1024 1.17744 14.0999 1.33324C14.0973 1.48905 14.0635 1.64276 14.0004 1.78525C13.9375 1.92723 13.8468 2.05518 13.7337 2.16154L9.14171 6.75195L13.7337 11.3424C13.8468 11.4487 13.9375 11.5767 14.0004 11.7187C14.0635 11.8611 14.0973 12.0149 14.0999 12.1707C14.1024 12.3265 14.0735 12.4812 14.015 12.6256C13.9565 12.7701 13.8695 12.9013 13.7593 13.0114C13.6491 13.1216 13.5178 13.2085 13.3733 13.267C13.2288 13.3255 13.074 13.3543 12.9182 13.3518C12.7623 13.3493 12.6086 13.3155 12.466 13.2524C12.324 13.1896 12.196 13.0989 12.0895 12.9859L7.49682 8.39538L2.90452 12.9861C2.79771 13.0979 2.66964 13.1874 2.52783 13.2491C2.38564 13.3111 2.2325 13.344 2.07742 13.3459C1.92233 13.3478 1.76843 13.3186 1.62477 13.2602C1.48111 13.2018 1.35059 13.1152 1.24088 13.0056C1.13118 12.896 1.04451 12.7656 0.985986 12.622C0.927457 12.4784 0.898248 12.3246 0.90008 12.1696C0.901911 12.0145 0.934745 11.8614 0.996649 11.7193C1.05839 11.5775 1.14781 11.4495 1.25965 11.3426L5.8526 6.75195L1.25967 2.16127C1.14781 2.05446 1.05839 1.92641 0.996649 1.78462C0.934745 1.64247 0.901911 1.48937 0.90008 1.33434C0.898248 1.17931 0.927457 1.02548 0.985986 0.881898C1.04451 0.73832 1.13118 0.607895 1.24088 0.498296C1.35059 0.388697 1.48111 0.302137 1.62477 0.243707C1.76843 0.185276 1.92233 0.156155 2.07742 0.158055C2.2325 0.159955 2.38564 0.192838 2.52783 0.25477C2.66964 0.31654 2.7977 0.405964 2.90451 0.517805L7.49682 5.10786Z" fill="#C4C4C4" stroke="#C4C4C4" stroke-width="0.2"/>
</svg>
