<svg width="14" height="14" viewBox="0 0 14 14" fill="none" xmlns="http://www.w3.org/2000/svg">
<path fill-rule="evenodd" clip-rule="evenodd" d="M14 6.98113C14 3.12556 10.866 0 7 0C3.13401 0 0 3.12556 0 6.98113C0 8.25629 0.342811 9.4516 0.941534 10.4804L0.057924 13.1241C-0.109917 13.6262 0.349317 14.1131 0.862155 13.9767L3.80474 13.1942C4.76266 13.6851 5.84888 13.9623 7 13.9623C10.866 13.9623 14 10.8367 14 6.98113ZM3.66667 7.97843C3.11438 7.97843 2.66667 7.53192 2.66667 6.98113C2.66667 6.43033 3.11438 5.98382 3.66667 5.98382C4.21895 5.98382 4.66667 6.43033 4.66667 6.98113C4.66667 7.53192 4.21895 7.97843 3.66667 7.97843ZM8 6.98113C8 7.53192 7.55229 7.97843 7 7.97843C6.44772 7.97843 6 7.53192 6 6.98113C6 6.43033 6.44772 5.98382 7 5.98382C7.55229 5.98382 8 6.43033 8 6.98113ZM10.3333 7.97843C9.78105 7.97843 9.33333 7.53192 9.33333 6.98113C9.33333 6.43033 9.78105 5.98382 10.3333 5.98382C10.8856 5.98382 11.3333 6.43033 11.3333 6.98113C11.3333 7.53192 10.8856 7.97843 10.3333 7.97843Z" fill="#ADB8C9"/>
</svg>
