<svg width="15" height="18" viewBox="0 0 15 18" fill="none" xmlns="http://www.w3.org/2000/svg">
<path fill-rule="evenodd" clip-rule="evenodd" d="M10.3125 4.65477H13.4375V12.189C13.4375 12.7413 12.9898 13.189 12.4375 13.189H5.84375C5.29147 13.189 4.84375 12.7413 4.84375 12.189V2.55143C4.84375 1.99914 5.29147 1.55143 5.84375 1.55143H10.3125V4.65477ZM15 3.55774L11.4172 -0.000244141H4.28125C3.72897 -0.000244141 3.28125 0.447471 3.28125 0.999756V13.7406C3.28125 14.2929 3.72897 14.7406 4.28125 14.7406H14C14.5523 14.7406 15 14.2929 15 13.7406V3.55774ZM3.5625 16.4486C2.45793 16.4486 1.5625 15.5531 1.5625 14.4486V4.81643C1.5625 4.38496 1.21272 4.03518 0.78125 4.03518C0.349777 4.03518 0 4.38495 0 4.81643V16.0002C0 17.1048 0.89543 18.0002 2 18.0002H10.1617C10.5901 18.0002 10.9375 17.6529 10.9375 17.2244C10.9375 16.7959 10.5901 16.4486 10.1617 16.4486H3.5625Z" fill="#6D798B"/>
</svg>
