<svg width="13" height="13" viewBox="0 0 13 13" fill="none" xmlns="http://www.w3.org/2000/svg">
<path d="M13 10.6244C13 10.3634 12.9811 10.1048 12.9622 9.84743L12.9587 9.77305C12.9328 9.45463 12.893 9.1375 12.8394 8.82255C12.8312 8.78005 12.8276 8.73636 12.8194 8.69267C12.7661 8.40744 12.7007 8.1246 12.6234 7.84491C12.6057 7.7776 12.5927 7.70912 12.5726 7.643C12.4982 7.39277 12.4143 7.14542 12.3212 6.9015C12.2881 6.81294 12.2598 6.72084 12.2244 6.63229C12.1359 6.41385 12.032 6.20132 11.9281 5.98761C11.8773 5.88252 11.8325 5.77507 11.7782 5.66999C11.6731 5.47162 11.5527 5.28035 11.4346 5.08789C11.3685 4.97926 11.3095 4.86709 11.2386 4.76082C11.1064 4.56246 10.9589 4.37236 10.8137 4.18226C10.7653 4.11968 10.7239 4.05474 10.6744 3.99334L11.5574 3.11015L9.88812 1.44059L9.0039 2.32378C7.3376 0.985889 5.30341 0.187309 3.17208 0.0343348C2.79079 0.00400757 2.40816 -0.00623993 2.02579 0.00363539L2.0435 0.57275L1.81802 2.3226C3.53654 2.82378 5.13295 3.67478 6.50708 4.82222L0 11.3304L1.66927 13L8.17635 6.49178C9.32368 7.86654 10.1745 9.46364 10.6755 11.1828L12.9882 10.8829C12.9906 10.7967 12.9823 10.7106 12.9823 10.6232H13V10.6244Z" fill="#ADB8C9"/>
</svg>
