<svg width="17" height="17" viewBox="0 0 17 17" fill="none" xmlns="http://www.w3.org/2000/svg">
<path d="M12.3533 1.07666H4.64668C3.85335 1.07666 3.20168 1.72833 3.20168 2.52166V14.4217C3.20168 15.215 3.85335 15.8667 4.64668 15.8667H12.3533C13.1467 15.8667 13.7983 15.215 13.7983 14.4217V2.54999C13.7983 1.72833 13.1467 1.07666 12.3533 1.07666ZM11.0217 13.3167C11.0217 13.6 10.795 13.8267 10.5117 13.8267H6.48835C6.20501 13.8267 5.97835 13.6 5.97835 13.3167V12.0133C5.97835 11.73 6.20501 11.5033 6.48835 11.5033H7.14001L7.59335 10.2C7.33835 10.03 7.16835 9.74666 7.16835 9.43499C7.16835 8.92499 7.56501 8.52833 8.07501 8.52833H8.92501C9.43501 8.52833 9.83168 8.92499 9.83168 9.43499C9.83168 9.74666 9.66168 10.03 9.40668 10.2L9.86001 11.5033H10.5117C10.795 11.5033 11.0217 11.73 11.0217 12.0133V13.3167ZM10.5967 6.74333H6.40335C6.12001 6.74333 5.86501 6.51666 5.86501 6.20499C5.86501 5.89333 6.09168 5.66666 6.40335 5.66666H10.625C10.9083 5.66666 11.1633 5.89333 11.1633 6.20499C11.1633 6.51666 10.9083 6.74333 10.5967 6.74333ZM10.5967 4.73166H6.40335C6.12001 4.73166 5.86501 4.50499 5.86501 4.19333C5.86501 3.88166 6.09168 3.65499 6.40335 3.65499H10.625C10.9083 3.65499 11.1633 3.88166 11.1633 4.19333C11.1633 4.50499 10.9083 4.73166 10.5967 4.73166ZM2.40835 13.005H1.89835C1.75668 13.005 1.64335 12.8917 1.64335 12.75V4.24999C1.64335 4.10833 1.75668 3.99499 1.89835 3.99499H2.40835V2.94666H1.89835C1.16168 2.91833 0.566681 3.51333 0.566681 4.24999V12.75C0.566681 13.4867 1.16168 14.0817 1.89835 14.0817H2.40835V13.005ZM14.5917 13.005H15.1017C15.2433 13.005 15.3567 12.8917 15.3567 12.75V4.24999C15.3567 4.10833 15.2433 3.99499 15.1017 3.99499H14.5917V2.94666H15.1017C15.8383 2.94666 16.4333 3.54166 16.4333 4.27833V12.7783C16.4333 13.515 15.8383 14.11 15.1017 14.11H14.5917V13.005Z" fill="#ADB8C9"/>
</svg>
