<svg width="14" height="17" viewBox="0 0 14 17" fill="none" xmlns="http://www.w3.org/2000/svg">
<path fill-rule="evenodd" clip-rule="evenodd" d="M7 0C4.20789 0 1.94444 2.47363 1.94444 5.525V6.8H1.55556C0.696446 6.8 0 7.56112 0 8.5V15.3C0 16.2389 0.696446 17 1.55556 17H12.4444C13.3036 17 14 16.2389 14 15.3V8.5C14 7.56112 13.3036 6.8 12.4444 6.8H12.0556V5.525C12.0556 2.47363 9.79211 0 7 0ZM9.72222 6.8V5.525C9.72222 3.88195 8.50344 2.55 7 2.55C5.49656 2.55 4.27778 3.88195 4.27778 5.525V6.8H9.72222Z" fill="#ADB8C9"/>
</svg>
