<svg width="17" height="16" viewBox="0 0 17 16" fill="none" xmlns="http://www.w3.org/2000/svg">
<path d="M8.49711 14.2849H1.77256C1.64099 14.2931 1.51749 14.3511 1.42722 14.4472C1.33695 14.5433 1.28669 14.6701 1.28669 14.8019C1.28669 14.9338 1.33695 15.0606 1.42722 15.1567C1.51749 15.2528 1.64099 15.3108 1.77256 15.319H8.49711C8.62868 15.3108 8.75218 15.2528 8.84245 15.1567C8.93272 15.0606 8.98298 14.9338 8.98298 14.8019C8.98298 14.6701 8.93272 14.5433 8.84245 14.4472C8.75218 14.3511 8.62868 14.2931 8.49711 14.2849ZM16.2457 10.2779L9.96923 6.97564L11.3713 4.54678C11.5084 4.30926 11.5456 4.02706 11.4747 3.76216C11.4038 3.49726 11.2307 3.27133 10.9933 3.13399L6.96165 0.806471C6.72413 0.669422 6.44193 0.632256 6.17703 0.703137C5.91213 0.774019 5.6862 0.947151 5.54887 1.1845L1.15051 8.79845C1.01325 9.03603 0.975965 9.31839 1.04686 9.58345C1.11775 9.84851 1.29101 10.0746 1.52854 10.2119L5.56087 12.5388C5.79824 12.6757 6.08022 12.7128 6.34495 12.6421C6.60968 12.5713 6.83554 12.3985 6.97298 12.1614L8.38243 9.7192L14.4336 13.4128C14.5524 13.4814 14.6936 13.5 14.8262 13.4645C14.9587 13.429 15.0717 13.3423 15.1403 13.2235L16.4331 10.984C16.4677 10.9254 16.4903 10.8605 16.4996 10.7931C16.5089 10.7257 16.5047 10.6572 16.4872 10.5914C16.4698 10.5257 16.4395 10.464 16.398 10.4101C16.3566 10.3562 16.3048 10.311 16.2457 10.2772V10.2779ZM6.33827 11.196C6.26965 11.3148 6.15665 11.4015 6.02412 11.437C5.89158 11.4725 5.75037 11.4539 5.63154 11.3853L2.49595 9.57385C2.37742 9.50513 2.29099 9.3922 2.25562 9.25984C2.22025 9.12747 2.23882 8.98648 2.30727 8.86779L6.18559 2.14925C6.25431 2.03054 6.36736 1.94398 6.49989 1.9086C6.63241 1.87321 6.77356 1.89191 6.89231 1.96057L10.0272 3.77071C10.2739 3.91339 10.3586 4.23008 10.2159 4.47744L6.33827 11.1953V11.196ZM14.5049 12.2587L8.91448 8.80245L9.43185 7.90705L15.281 10.916L14.5049 12.2587Z" fill="#ADB8C9" stroke="#ADB8C9" stroke-width="0.6"/>
</svg>
