<svg width="12" height="16" viewBox="0 0 12 16" fill="none" xmlns="http://www.w3.org/2000/svg">
<path fill-rule="evenodd" clip-rule="evenodd" d="M6 0.727273C6 0.325611 5.66421 0 5.25 0H1.5C0.671573 0 0 0.651222 0 1.45455V14.5455C0 15.3488 0.671573 16 1.5 16H10.5C11.3284 16 12 15.3488 12 14.5455V6.54545C12 6.14379 11.6642 5.81818 11.25 5.81818H7.5C6.67157 5.81818 6 5.16696 6 4.36364V0.727273ZM2.25 5.09091C2.25 4.68925 2.58579 4.36364 3 4.36364H3.75C4.16421 4.36364 4.5 4.68925 4.5 5.09091C4.5 5.49257 4.16421 5.81818 3.75 5.81818H3C2.58579 5.81818 2.25 5.49257 2.25 5.09091ZM2.25 8.72727C2.25 8.32561 2.58579 8 3 8H9C9.41421 8 9.75 8.32561 9.75 8.72727C9.75 9.12893 9.41421 9.45455 9 9.45455H3C2.58579 9.45455 2.25 9.12893 2.25 8.72727ZM3 11.6364C2.58579 11.6364 2.25 11.962 2.25 12.3636C2.25 12.7653 2.58579 13.0909 3 13.0909H9C9.41421 13.0909 9.75 12.7653 9.75 12.3636C9.75 11.962 9.41421 11.6364 9 11.6364H3ZM11.3015 4.72727H7.875C7.46079 4.72727 7.125 4.40166 7.125 4V0.677356C7.125 0.159011 7.77129 -0.100576 8.14927 0.265949L11.7257 3.73404C12.1037 4.10057 11.836 4.72727 11.3015 4.72727Z" fill="#ADB8C9"/>
</svg>
