<svg width="16" height="18" viewBox="0 0 16 18" fill="none" xmlns="http://www.w3.org/2000/svg">
<path fill-rule="evenodd" clip-rule="evenodd" d="M7.64922 0.430146C7.92768 0.269378 8.27076 0.269378 8.54922 0.430146L11.7992 2.30654L15.0492 4.18293C15.3277 4.3437 15.4992 4.64081 15.4992 4.96235V12.4679C15.4992 12.7894 15.3277 13.0866 15.0492 13.2473L11.7992 15.1237L8.54922 17.0001C8.27076 17.1609 7.92768 17.1609 7.64922 17.0001L4.3992 15.1237L1.14922 13.2473C0.870757 13.0866 0.699219 12.7894 0.699219 12.4679V4.96235C0.699219 4.64081 0.870757 4.3437 1.14922 4.18293L4.3992 2.30654L7.64922 0.430146ZM5.2992 3.86538L2.49922 5.48196V11.9483L8.09922 15.1815L13.6992 11.9483V5.48196L8.09922 2.2488L5.2992 3.86538Z" fill="#ADB8C9"/>
<path fill-rule="evenodd" clip-rule="evenodd" d="M8.06369 4.00073C8.56075 4.00073 8.96369 4.40368 8.96369 4.90073V8.48942L11.7979 10.1258C12.2284 10.3743 12.3759 10.9247 12.1273 11.3552C11.8788 11.7856 11.3284 11.9331 10.8979 11.6846L8.06369 10.0483L5.22948 11.6846C4.79902 11.9331 4.24859 11.7856 4.00006 11.3552C3.75153 10.9247 3.89902 10.3743 4.32948 10.1258L7.16369 8.48942V4.90073C7.16369 4.40368 7.56664 4.00073 8.06369 4.00073Z" fill="#ADB8C9"/>
</svg>
