<svg width="30" height="30" viewBox="0 0 30 30" fill="none" xmlns="http://www.w3.org/2000/svg">
<rect width="30" height="30" rx="8.57143" fill="#6D798B" fill-opacity="0.4"/>
<path fill-rule="evenodd" clip-rule="evenodd" d="M9.18182 9C7.97683 9 7 9.9481 7 11.1176V18.8824C7 20.0519 7.97683 21 9.18182 21H20.8182C22.0232 21 23 20.0519 23 18.8824V11.1176C23 9.9481 22.0232 9 20.8182 9H9.18182ZM13.4034 14.7677C13.0589 15.6015 12.4319 16.1597 11.7273 16.1597C11.0228 16.1597 10.3958 15.6016 10.0513 14.768C9.83688 14.6855 9.63274 14.4339 9.53961 14.1053C9.41858 13.6782 9.44271 13.297 9.77307 13.1788C9.80513 11.6927 10.4255 11.1176 11.7273 11.1176C13.0292 11.1176 13.6495 11.6928 13.6815 13.179C14.0111 13.2976 14.0351 13.6786 13.9142 14.1053C13.8212 14.4334 13.6175 14.6848 13.4034 14.7677ZM14.8799 17.489C15.1822 17.7895 14.8698 18.1765 14.4312 18.1765H9.02337C8.58474 18.1765 8.27237 17.7895 8.57462 17.489C9.16836 16.8987 10.3573 16.4958 11.7273 16.4958C13.0972 16.4958 14.2862 16.8987 14.8799 17.489ZM16.4545 13.2353C16.4545 12.8454 16.7802 12.5294 17.1818 12.5294H20.8182C21.2198 12.5294 21.5455 12.8454 21.5455 13.2353C21.5455 13.6251 21.2198 13.9412 20.8182 13.9412H17.1818C16.7802 13.9412 16.4545 13.6251 16.4545 13.2353ZM17.1818 15.3529C16.7802 15.3529 16.4545 15.669 16.4545 16.0588C16.4545 16.4487 16.7802 16.7647 17.1818 16.7647H19.3636C19.7653 16.7647 20.0909 16.4487 20.0909 16.0588C20.0909 15.669 19.7653 15.3529 19.3636 15.3529H17.1818Z" fill="#ADB8C9"/>
</svg>
