<svg width="16" height="16" viewBox="0 0 16 16" fill="none" xmlns="http://www.w3.org/2000/svg">
<path fill-rule="evenodd" clip-rule="evenodd" d="M8 16C12.4183 16 16 12.4183 16 8C16 3.58172 12.4183 0 8 0C3.58172 0 0 3.58172 0 8C0 12.4183 3.58172 16 8 16ZM10.4341 7.78736C9.93397 9.06784 9.02358 9.9251 8.00056 9.9251C6.97769 9.9251 6.06741 9.06808 5.56722 7.78789C5.25591 7.66113 4.95952 7.27473 4.8243 6.77007C4.64857 6.11425 4.6836 5.52873 5.16327 5.34715C5.20981 3.065 6.11046 2.18182 8.00056 2.18182C9.8908 2.18182 10.7914 3.06512 10.8379 5.34761C11.3164 5.52969 11.3513 6.11479 11.1757 6.77009C11.0407 7.27402 10.7449 7.66003 10.4341 7.78736ZM12.4318 11.9195C12.8039 12.1297 12.8366 12.6313 12.5088 12.9055C11.3649 13.8625 9.84857 14.5455 8 14.5455C6.15143 14.5455 4.63507 13.8625 3.49117 12.9055C3.16336 12.6313 3.19604 12.1297 3.56815 11.9195C4.81685 11.214 6.49104 10.9091 8 10.9091C9.50896 10.9091 11.1831 11.214 12.4318 11.9195Z" fill="#ADB8C9"/>
</svg>
