<svg width="15" height="14" viewBox="0 0 15 14" fill="none" xmlns="http://www.w3.org/2000/svg">
<path d="M14.1642 5.60033H0.833876C0.496029 5.60033 0.193334 5.37284 0.0644448 5.02504C-0.0644447 4.67505 0.00585862 4.27476 0.244109 4.00789L3.57766 0.273974C3.90379 -0.0913246 4.43106 -0.0913246 4.75524 0.273974C5.07942 0.639272 5.08137 1.22987 4.75524 1.59298L2.84533 3.73228H14.1661C14.627 3.73228 15 4.15007 15 4.6663C15 5.18253 14.625 5.60033 14.1642 5.60033ZM11.4204 13.7266L14.7539 9.99266C14.9922 9.72579 15.0644 9.32549 14.9336 8.97551C14.8047 8.62552 14.5001 8.40022 14.1642 8.40022H0.833876C0.372998 8.40022 0 8.81802 0 9.33424C0 9.85047 0.372998 10.2683 0.833876 10.2683H12.1547L10.2448 12.4076C9.91863 12.7729 9.91863 13.3635 10.2448 13.7266C10.4068 13.9081 10.6197 14 10.8345 14C11.0493 14 11.2583 13.9081 11.4204 13.7266Z" fill="#ADB8C9"/>
</svg>
