<svg width="16" height="13" viewBox="0 0 16 13" fill="none" xmlns="http://www.w3.org/2000/svg">
<path fill-rule="evenodd" clip-rule="evenodd" d="M2.18182 0.181763C0.976833 0.181763 0 1.1586 0 2.36358V3.81813H16V2.36358C16 1.1586 15.0232 0.181763 13.8182 0.181763H2.18182ZM16 5.27267H0V10.3636C0 11.5686 0.976833 12.5454 2.18182 12.5454H13.8182C15.0232 12.5454 16 11.5686 16 10.3636V5.27267ZM2.18182 8.18176C2.18182 7.7801 2.50743 7.45449 2.90909 7.45449H4.36364C4.7653 7.45449 5.09091 7.7801 5.09091 8.18176V8.90903C5.09091 9.3107 4.7653 9.63631 4.36364 9.63631H2.90909C2.50743 9.63631 2.18182 9.3107 2.18182 8.90903V8.18176Z" fill="#ADB8C9"/>
</svg>
