<svg width="22" height="22" viewBox="0 0 22 22" fill="none" xmlns="http://www.w3.org/2000/svg">
<path d="M11.375 21.4999C8.49077 21.4999 5.72467 20.3541 3.68521 18.3147C1.64576 16.2752 0.5 13.5091 0.5 10.6249C0.5 6.21862 3.03125 2.268 6.95047 0.562216C7.0886 0.502017 7.24165 0.484817 7.3897 0.512859C7.53774 0.5409 7.6739 0.612883 7.78045 0.719426C7.88699 0.82597 7.95897 0.962134 7.98701 1.11018C8.01506 1.25822 7.99786 1.41128 7.93766 1.5494C7.48766 2.58253 7.25 3.90581 7.25 5.37487C7.25 10.5442 11.4556 14.7499 16.625 14.7499C18.0941 14.7499 19.4173 14.5122 20.4505 14.0622C20.5886 14.002 20.7417 13.9848 20.8897 14.0129C21.0377 14.0409 21.1739 14.1129 21.2804 14.2194C21.387 14.326 21.459 14.4621 21.487 14.6102C21.5151 14.7582 21.4979 14.9113 21.4377 15.0494C19.7319 18.9686 15.7813 21.4999 11.375 21.4999Z" fill="#F181DE"/>
</svg>
