<svg width="18" height="14" viewBox="0 0 18 14" fill="none" xmlns="http://www.w3.org/2000/svg">
<path d="M11.2581 6.49315L11.2581 0.811723L17.5195 0.811724L17.5195 5.29729C17.5195 7.72575 17.174 9.4839 16.4817 10.5712C15.5735 12.0209 14.135 13.1171 12.1663 13.8604L10.7385 11.9574C11.9278 11.5405 12.8042 10.9197 13.3663 10.0952C13.929 9.27067 14.2426 8.06981 14.3071 6.49315L11.2581 6.49315ZM0.738095 6.49315L0.738095 0.811722L6.99886 0.811723L6.99886 5.29729C6.99886 7.72575 6.6527 9.4839 5.96039 10.5712C5.05213 12.0209 3.61368 13.1171 1.64568 13.8604L0.217859 11.9574C1.40716 11.5405 2.28418 10.9197 2.84628 10.0952C3.40837 9.27067 3.72198 8.06981 3.78709 6.49315L0.738095 6.49315Z" fill="#C4C4C4" fill-opacity="0.1"/>
</svg>
