<svg width="25" height="25" viewBox="0 0 25 25" fill="none" xmlns="http://www.w3.org/2000/svg">
<mask id="mask0_84_13534" style="mask-type:alpha" maskUnits="userSpaceOnUse" x="0" y="0" width="25" height="25">
<rect x="0.863281" y="0.758057" width="24" height="24" fill="#F181DE"/>
</mask>
<g mask="url(#mask0_84_13534)">
<path fill-rule="evenodd" clip-rule="evenodd" d="M13.5752 5.46519C12.8237 5.26434 12.0233 5.37023 11.3499 5.75956C10.6765 6.1489 10.1854 6.78978 9.98453 7.54123C9.78368 8.29269 9.88957 9.09315 10.2789 9.76653C10.4163 10.0042 10.5851 10.2192 10.779 10.4068L8.52976 14.3505L8.50849 14.3447C7.75704 14.1439 6.95658 14.2498 6.2832 14.6391C5.60982 15.0284 5.11868 15.6693 4.91783 16.4208C4.71698 17.1722 4.82287 17.9727 5.2122 18.6461C5.60153 19.3194 6.24242 19.8106 6.99387 20.0114C7.74532 20.2123 8.54578 20.1064 9.21916 19.7171C9.89254 19.3277 10.3837 18.6868 10.5845 17.9354L10.5905 17.9126L15.1298 17.9276C15.1955 18.1911 15.2981 18.4463 15.4364 18.6856C15.8257 19.359 16.4666 19.8501 17.2181 20.051C17.5901 20.1504 17.9782 20.1756 18.36 20.1251C18.7418 20.0746 19.1099 19.9494 19.4433 19.7566C19.7768 19.5638 20.069 19.3072 20.3032 19.0015C20.5375 18.6958 20.7093 18.347 20.8087 17.9749C20.9082 17.6028 20.9334 17.2148 20.8828 16.833C20.8323 16.4512 20.7071 16.083 20.5143 15.7496C20.125 15.0762 19.4841 14.5851 18.7327 14.3843C18.2526 14.2559 17.7526 14.2528 17.2785 14.3688L14.9598 10.3019C15.2863 9.95285 15.5256 9.526 15.6512 9.05586C15.8521 8.3044 15.7462 7.50394 15.3569 6.83056C14.9675 6.15718 14.3266 5.66604 13.5752 5.46519ZM12.0606 11.1319C12.616 11.2804 13.1982 11.2612 13.7361 11.0839L15.9987 15.051C15.5874 15.4262 15.288 15.914 15.142 16.4603L15.1374 16.4777L10.5954 16.4627C10.5296 16.2012 10.4275 15.9477 10.2902 15.7101C10.1525 15.4721 9.98345 15.2568 9.78916 15.069L12.0378 11.1257L12.0606 11.1319Z" fill="#F181DE"/>
</g>
</svg>
