<svg width="25" height="25" viewBox="0 0 25 25" fill="none" xmlns="http://www.w3.org/2000/svg">
<mask id="mask0_84_13489" style="mask-type:alpha" maskUnits="userSpaceOnUse" x="0" y="0" width="25" height="25">
<rect x="0.863281" y="0.751953" width="24" height="24" fill="#F181DE"/>
</mask>
<g mask="url(#mask0_84_13489)">
<path fill-rule="evenodd" clip-rule="evenodd" d="M20.1289 6.46986V8.13638C21.1306 8.13638 21.9452 8.95098 21.9452 9.95267V19.0341C21.9452 20.0358 21.1306 20.8504 20.1289 20.8504H6.50667C5.41144 20.8504 3.78223 20.1248 3.78223 18.126V7.378C3.78223 5.87593 5.00459 4.65356 6.50667 4.65356H18.3126C19.3143 4.65356 20.1289 5.46817 20.1289 6.46986ZM18.5456 6.32008H6.32573C6.0919 6.33054 5.87112 6.43079 5.70935 6.59996C5.54758 6.76912 5.4573 6.99417 5.4573 7.22823C5.4573 7.46229 5.54758 7.68734 5.70935 7.8565C5.87112 8.02567 6.0919 8.12592 6.32573 8.13638H18.5456V6.32008ZM17.4418 13.1799C17.2209 13.1799 17.0418 13.359 17.0418 13.5799V16.4125C17.0418 16.6334 17.2209 16.8125 17.4418 16.8125H18.4581C18.679 16.8125 18.8581 16.6334 18.8581 16.4125V13.5799C18.8581 13.359 18.679 13.1799 18.4581 13.1799H17.4418Z" fill="#F181DE"/>
</g>
</svg>
