<svg width="25" height="25" viewBox="0 0 25 25" fill="none" xmlns="http://www.w3.org/2000/svg">
<mask id="mask0_84_13495" style="mask-type:alpha" maskUnits="userSpaceOnUse" x="0" y="0" width="25" height="25">
<rect x="0.755859" y="0.083252" width="24" height="24" fill="#C4C4C4"/>
</mask>
<g mask="url(#mask0_84_13495)">
<path d="M12.7563 20.7159C11.0489 20.7159 9.37989 20.2096 7.96026 19.261C6.54062 18.3125 5.43415 16.9642 4.78076 15.3868C4.12737 13.8094 3.95642 12.0736 4.28951 10.3991C4.62261 8.72449 5.44479 7.1863 6.65209 5.97899C7.85939 4.77169 9.39759 3.94951 11.0722 3.61642C12.7467 3.28332 14.4825 3.45428 16.0599 4.10766C17.6373 4.76105 18.9856 5.86752 19.9341 7.28716C20.8827 8.7068 21.389 10.3758 21.389 12.0832C21.389 14.3727 20.4795 16.5685 18.8605 18.1874C17.2416 19.8064 15.0458 20.7159 12.7563 20.7159Z" stroke="#FCFFFD" stroke-opacity="0.4" stroke-width="1.8"/>
<path d="M11.757 10.4836L16.129 8.70999L14.3554 13.0819C14.2998 13.2168 14.218 13.3393 14.1148 13.4425L14.6805 14.0082L14.1148 13.4425C14.0117 13.5457 13.8891 13.6274 13.7542 13.683C13.7538 13.6832 13.7533 13.6834 13.7529 13.6836L9.38236 15.4566L11.156 11.0847C11.2116 10.9498 11.2933 10.8273 11.3965 10.7241C11.4996 10.621 11.6222 10.5392 11.757 10.4836Z" stroke="#FCFFFD" stroke-opacity="0.4" stroke-width="1.6"/>
</g>
</svg>
