<svg width="25" height="25" viewBox="0 0 25 25" fill="none" xmlns="http://www.w3.org/2000/svg">
<mask id="mask0_84_13484" style="mask-type:alpha" maskUnits="userSpaceOnUse" x="0" y="0" width="25" height="25">
<rect x="0.755859" y="0.751953" width="24" height="24" fill="#C4C4C4"/>
</mask>
<g mask="url(#mask0_84_13484)">
<path d="M16.9346 13.5799C16.9346 13.359 17.1137 13.1799 17.3346 13.1799H18.3509C18.5718 13.1799 18.7509 13.359 18.7509 13.5799V16.4125C18.7509 16.6334 18.5718 16.8125 18.3509 16.8125H17.3346C17.1137 16.8125 16.9346 16.6334 16.9346 16.4125V13.5799Z" fill="#FCFFFD" fill-opacity="0.4"/>
<path d="M20.0214 8.13638V6.46986C20.0214 5.46817 19.2068 4.65356 18.2051 4.65356H6.39924C4.89717 4.65356 3.6748 5.87593 3.6748 7.378V18.126C3.6748 20.1248 5.30402 20.8504 6.39924 20.8504H20.0214C21.0231 20.8504 21.8377 20.0358 21.8377 19.0341V9.95267C21.8377 8.95098 21.0231 8.13638 20.0214 8.13638ZM6.21831 6.32008H18.4381V8.13638H6.21831C5.98448 8.12592 5.7637 8.02567 5.60193 7.8565C5.44016 7.68734 5.34988 7.46229 5.34988 7.22823C5.34988 6.99417 5.44016 6.76912 5.60193 6.59996C5.7637 6.43079 5.98448 6.33054 6.21831 6.32008ZM20.2544 19.1854H6.24062C5.82106 19.1745 5.32158 19.0083 5.32158 18.2772V9.60796C5.60674 9.71058 5.90915 9.77597 6.22973 9.77597H20.2544V19.1854Z" fill="#FCFFFD" fill-opacity="0.4"/>
</g>
</svg>
