<svg width="25" height="25" viewBox="0 0 25 25" fill="none" xmlns="http://www.w3.org/2000/svg">
<mask id="mask0_84_13529" style="mask-type:alpha" maskUnits="userSpaceOnUse" x="0" y="0" width="25" height="25">
<rect x="0.755859" y="0.758057" width="24" height="24" fill="#C4C4C4"/>
</mask>
<g mask="url(#mask0_84_13529)">
<path fill-rule="evenodd" clip-rule="evenodd" d="M11.2425 5.75956C11.9159 5.37023 12.7163 5.26434 13.4678 5.46519C14.2192 5.66604 14.8601 6.15718 15.2494 6.83056C15.6388 7.50394 15.7447 8.3044 15.5438 9.05586C15.4181 9.526 15.1789 9.95285 14.8524 10.3019L17.1711 14.3688C17.6452 14.2528 18.1452 14.2559 18.6253 14.3843C19.3767 14.5851 20.0176 15.0762 20.4069 15.7496C20.5997 16.083 20.7249 16.4512 20.7754 16.833C20.8259 17.2148 20.8007 17.6028 20.7013 17.9749C20.6018 18.347 20.4301 18.6958 20.1958 19.0015C19.9615 19.3072 19.6693 19.5638 19.3359 19.7566C19.0025 19.9494 18.6344 20.0746 18.2526 20.1251C17.8707 20.1756 17.4827 20.1504 17.1106 20.051C16.3592 19.8501 15.7183 19.359 15.329 18.6856C15.1906 18.4463 15.0881 18.1911 15.0224 17.9276L10.4831 17.9126L10.4771 17.9354C10.2763 18.6868 9.78512 19.3277 9.11174 19.7171C8.43836 20.1064 7.6379 20.2123 6.88645 20.0114C6.135 19.8106 5.49411 19.3194 5.10478 18.6461C4.71544 17.9727 4.60956 17.1722 4.81041 16.4208C5.01126 15.6693 5.5024 15.0284 6.17578 14.6391C6.84916 14.2498 7.64962 14.1439 8.40107 14.3447L8.42233 14.3505L10.6716 10.4068C10.4777 10.2192 10.3089 10.0042 10.1715 9.76653C9.78214 9.09315 9.67626 8.29269 9.87711 7.54123C10.078 6.78978 10.5691 6.1489 11.2425 5.75956ZM13.6287 11.0839C13.0908 11.2612 12.5086 11.2804 11.9531 11.1319L11.9304 11.1257L9.68174 15.069C9.87602 15.2568 10.0451 15.4721 10.1827 15.7101C10.3201 15.9477 10.4222 16.2012 10.488 16.4627L15.03 16.4777L15.0346 16.4603C15.1806 15.914 15.48 15.4262 15.8913 15.051L13.6287 11.0839ZM9.12659 17.1341C9.11944 16.8903 9.05218 16.6497 8.9278 16.4348C8.80282 16.2188 8.62667 16.04 8.41752 15.9122C8.40435 15.9057 8.39135 15.8988 8.37853 15.8915C8.36543 15.884 8.3526 15.8762 8.34005 15.868C8.24139 15.8155 8.13636 15.774 8.02666 15.7448C7.64666 15.6434 7.24194 15.6971 6.90153 15.894C6.73298 15.9916 6.58529 16.1214 6.46689 16.276C6.3485 16.4306 6.26172 16.607 6.2115 16.7952C6.16129 16.9833 6.14863 17.1795 6.17424 17.3726C6.19986 17.5656 6.26324 17.7518 6.36078 17.9203C6.45833 18.0889 6.58811 18.2366 6.74273 18.355C6.89735 18.4733 7.07377 18.5601 7.26193 18.6103C7.45008 18.6606 7.64629 18.6732 7.83934 18.6476C8.03239 18.622 8.2185 18.5586 8.38705 18.4611C8.72746 18.2641 8.97567 17.9399 9.07708 17.5599C9.10269 17.464 9.11841 17.3664 9.12442 17.2688L9.12477 17.1827C9.12483 17.1664 9.12544 17.1502 9.12659 17.1341ZM17.1598 15.9139L17.1257 15.9336C16.9571 16.0311 16.8094 16.1608 16.691 16.3153C16.5726 16.4699 16.4858 16.6463 16.4355 16.8344C16.4102 16.9293 16.3944 17.0263 16.3882 17.1239C16.3913 17.1514 16.3928 17.1791 16.3927 17.207C16.3926 17.2361 16.3908 17.2651 16.3873 17.2937C16.3893 17.3331 16.3929 17.3724 16.3981 17.4117C16.4237 17.6047 16.487 17.7908 16.5845 17.9593C16.6819 18.1279 16.8117 18.2756 16.9662 18.394C17.1208 18.5124 17.2971 18.5992 17.4852 18.6495C17.6734 18.6998 17.8695 18.7125 18.0625 18.6869C18.2555 18.6614 18.4416 18.598 18.6102 18.5006C18.9506 18.3036 19.1988 17.9794 19.3002 17.5994C19.4016 17.2194 19.3479 16.8147 19.1509 16.4743C18.9539 16.1339 18.6298 15.8857 18.2498 15.7843C17.8828 15.6863 17.4927 15.7331 17.1598 15.9139ZM12.7559 9.78551C13.5777 9.78551 14.2439 9.11929 14.2439 8.29745C14.2439 7.47562 13.5777 6.80939 12.7559 6.80939C11.934 6.80939 11.2678 7.47562 11.2678 8.29745C11.2678 9.11929 11.934 9.78551 12.7559 9.78551Z" fill="#FCFFFD" fill-opacity="0.4"/>
</g>
</svg>
