<svg width="25" height="25" viewBox="0 0 25 25" fill="none" xmlns="http://www.w3.org/2000/svg">
<mask id="mask0_84_13504" style="mask-type:alpha" maskUnits="userSpaceOnUse" x="0" y="0" width="25" height="25">
<rect x="0.755859" y="0.420654" width="24" height="24" fill="#C4C4C4"/>
</mask>
<g mask="url(#mask0_84_13504)">
<path d="M20.7827 12.421C20.4275 11.2258 19.7884 10.1342 18.92 9.23936L19.1769 8.9825C19.2203 8.9396 19.2548 8.88851 19.2783 8.83219C19.3018 8.77587 19.3139 8.71544 19.3139 8.6544C19.3139 8.59336 19.3018 8.53293 19.2783 8.47661C19.2548 8.42028 19.2203 8.36919 19.1769 8.32629L16.8464 5.99583C16.8035 5.9524 16.7524 5.91793 16.6961 5.8944C16.6398 5.87087 16.5793 5.85875 16.5183 5.85875C16.4573 5.85875 16.3968 5.87087 16.3405 5.8944C16.2842 5.91793 16.2331 5.9524 16.1902 5.99583L15.9333 6.25268C15.0259 5.37183 13.9156 4.72789 12.7004 4.3777C11.4851 4.0275 10.2024 3.98183 8.96539 4.24469C8.8629 4.26637 8.77085 4.3223 8.70437 4.40326C8.6379 4.48423 8.60097 4.58541 8.59966 4.69016C8.59835 4.79491 8.63274 4.89698 8.69717 4.97959C8.7616 5.06219 8.85223 5.1204 8.95414 5.14463L9.40598 5.25244C10.6281 5.54268 11.7455 6.1668 12.6336 7.05513L13.886 8.30755L13.7463 8.44722C13.7029 8.49012 13.6684 8.54121 13.6449 8.59753C13.6213 8.65386 13.6092 8.71429 13.6092 8.77533C13.6092 8.83637 13.6213 8.8968 13.6449 8.95312C13.6684 9.00944 13.7029 9.06053 13.7463 9.10343L16.0768 11.4339C16.1197 11.4773 16.1708 11.5118 16.2271 11.5353C16.2834 11.5589 16.3438 11.571 16.4049 11.571C16.4659 11.571 16.5263 11.5589 16.5827 11.5353C16.639 11.5118 16.6901 11.4773 16.733 11.4339L16.8727 11.2942L18.1251 12.5466C19.0134 13.4347 19.6375 14.5521 19.9278 15.7742L20.0356 16.2261C20.0596 16.3271 20.117 16.417 20.1985 16.4813C20.28 16.5456 20.3808 16.5805 20.4846 16.5804H20.4902C20.5949 16.5791 20.6961 16.5422 20.777 16.4757C20.8579 16.4093 20.9138 16.3173 20.9355 16.2148C21.2009 14.9572 21.1483 13.6532 20.7827 12.421ZM12.4241 10.7673L4.70152 17.1134C4.6581 17.1563 4.62363 17.2074 4.6001 17.2638C4.57657 17.3201 4.56445 17.3805 4.56445 17.4416C4.56445 17.5026 4.57657 17.563 4.6001 17.6193C4.62363 17.6757 4.6581 17.7268 4.70152 17.7697L6.96086 20.3195C7.00376 20.3629 7.05485 20.3974 7.11117 20.4209C7.1675 20.4445 7.22793 20.4566 7.28897 20.4566C7.35001 20.4566 7.41044 20.4445 7.46676 20.4209C7.52309 20.3974 7.57418 20.3629 7.61708 20.3195L14.479 12.8222L12.4241 10.7673Z" stroke="#FCFFFD" stroke-opacity="0.4" stroke-width="1.3"/>
<path d="M19.1185 18.6313C19.4193 18.4775 19.6106 18.204 19.5662 17.7495C19.5081 17.1275 18.9973 16.919 18.3206 16.8609V16.4412C18.3206 16.3308 18.231 16.2412 18.1206 16.2412H17.9943C17.8838 16.2412 17.7943 16.3308 17.7943 16.4412V16.837C17.6575 16.837 17.5174 16.8404 17.3773 16.8438V16.4412C17.3773 16.3308 17.2878 16.2412 17.1773 16.2412H17.051C16.9405 16.2412 16.851 16.3308 16.851 16.4412V16.8609C16.6794 16.8661 16.4827 16.8644 15.9961 16.8619C15.8853 16.8613 15.7949 16.951 15.7949 17.0619V17.4214C16.2105 17.414 16.4285 17.3873 16.4785 17.6538V20.012C16.4467 20.2234 16.2775 20.1929 15.9009 20.1863L15.8345 20.5783C15.8138 20.7004 15.9081 20.8117 16.0319 20.8118C16.771 20.8123 16.851 20.8151 16.851 20.8151V21.0971C16.851 21.2075 16.9405 21.2971 17.051 21.2971H17.1773C17.2878 21.2971 17.3773 21.2075 17.3773 21.0971V20.8254C17.5208 20.8288 17.661 20.8288 17.7943 20.8288V21.0971C17.7943 21.2075 17.8838 21.2971 17.9943 21.2971H18.1206C18.231 21.2971 18.3206 21.2075 18.3206 21.0971V20.8151C19.2023 20.7673 19.7918 20.5451 19.8704 19.7146C19.9319 19.0482 19.6175 18.7509 19.1185 18.6313ZM17.3876 17.459C17.6849 17.459 18.6145 17.3667 18.6145 17.9853C18.6145 18.5766 17.6849 18.5082 17.3876 18.5082V17.459ZM17.3876 20.1897V19.0345C17.743 19.0345 18.8314 18.9354 18.8314 19.6121C18.8314 20.2649 17.743 20.1897 17.3876 20.1897Z" fill="#FCFFFD" fill-opacity="0.4"/>
</g>
</svg>
