<svg width="25" height="25" viewBox="0 0 25 25" fill="none" xmlns="http://www.w3.org/2000/svg">
<mask id="mask0_84_13509" style="mask-type:alpha" maskUnits="userSpaceOnUse" x="0" y="0" width="25" height="25">
<rect x="0.863281" y="0.420654" width="24" height="24" fill="#F181DE"/>
</mask>
<g mask="url(#mask0_84_13509)">
<path fill-rule="evenodd" clip-rule="evenodd" d="M21.6874 16.3694C21.8074 15.7994 21.8674 15.2194 21.8674 14.6394C21.8674 13.8294 21.7474 13.0294 21.5174 12.2494C21.1874 11.1594 20.6374 10.1294 19.9074 9.25941C19.9374 9.20941 19.9674 9.14941 19.9874 9.09941C20.0474 8.95941 20.0774 8.81941 20.0774 8.66941C20.0774 8.51941 20.0474 8.37941 19.9874 8.24941C19.9374 8.10941 19.8474 7.97941 19.7474 7.87941L17.4174 5.55941C17.3174 5.44941 17.1974 5.36941 17.0574 5.30941C16.7874 5.19941 16.4774 5.19941 16.2074 5.30941C16.1474 5.32941 16.0974 5.35941 16.0474 5.38941C15.1574 4.64941 14.1074 4.08941 12.9874 3.76941C11.6774 3.38941 10.2774 3.33941 8.94737 3.62941C8.69737 3.67941 8.47737 3.80941 8.31737 4.00941C8.15737 4.19941 8.06737 4.44941 8.05737 4.69941C8.05737 4.94941 8.13737 5.19941 8.29737 5.39941C8.44737 5.58941 8.66737 5.73941 8.91737 5.78941L9.36737 5.89941C10.4774 6.15941 11.4774 6.72941 12.2874 7.52941L13.1474 8.38941C13.0974 8.51941 13.0674 8.65941 13.0674 8.78941C13.0674 8.93941 13.0974 9.07941 13.1574 9.21941C13.2174 9.34941 13.2974 9.47941 13.3974 9.57941L15.7274 11.9094C15.8274 12.0094 15.9574 12.0994 16.0874 12.1494C16.3474 12.2594 16.6474 12.2694 16.9174 12.1594L17.7774 13.0194C18.5774 13.8294 19.1474 14.8394 19.4074 15.9394L19.5174 16.3894C19.5674 16.6294 19.7074 16.8494 19.9074 17.0094C20.1074 17.1594 20.3474 17.2494 20.6074 17.2494C20.8574 17.2394 21.1074 17.1594 21.2974 16.9994C21.4974 16.8394 21.6274 16.6094 21.6874 16.3694ZM8.20734 20.7694L15.4873 12.8194L12.5773 9.90942L4.35734 16.6694C4.24734 16.7694 4.16734 16.8894 4.11734 17.0194C4.05734 17.1594 4.02734 17.3094 4.02734 17.4594C4.02734 17.6094 4.05734 17.7494 4.10734 17.8794C4.16734 18.0194 4.24734 18.1394 4.32734 18.2194L6.61734 20.7994C6.71734 20.8994 6.83734 20.9794 6.97734 21.0394C7.10734 21.0894 7.25734 21.1194 7.39734 21.1194C7.54734 21.1194 7.68734 21.0894 7.82734 21.0394C7.96734 20.9794 8.08734 20.8994 8.20734 20.7694Z" fill="#F181DE"/>
<path d="M19.2269 18.6313C19.5277 18.4775 19.719 18.204 19.6746 17.7495C19.6165 17.1275 19.1057 16.919 18.429 16.8609V16.2412H17.9027V16.837C17.7659 16.837 17.6258 16.8404 17.4857 16.8438V16.2412H16.9594V16.8609C16.7659 16.8668 16.5405 16.8639 15.9033 16.8609V17.4214C16.3189 17.414 16.5369 17.3873 16.5869 17.6538V20.012C16.5551 20.2234 16.3859 20.1929 16.0093 20.1863L15.9033 20.8117C16.863 20.8117 16.9594 20.8151 16.9594 20.8151V21.2971H17.4857V20.8254C17.6292 20.8288 17.7694 20.8288 17.9027 20.8288V21.2971H18.429V20.8151C19.3107 20.7673 19.9002 20.5451 19.9788 19.7146C20.0403 19.0482 19.7259 18.7509 19.2269 18.6313ZM17.496 17.459C17.7933 17.459 18.7229 17.3667 18.7229 17.9853C18.7229 18.5766 17.7933 18.5082 17.496 18.5082V17.459ZM17.496 20.1897V19.0345C17.8514 19.0345 18.9398 18.9354 18.9398 19.6121C18.9398 20.2649 17.8514 20.1897 17.496 20.1897Z" fill="#F181DE"/>
</g>
</svg>
