<svg width="25" height="25" viewBox="0 0 25 25" fill="none" xmlns="http://www.w3.org/2000/svg">
<mask id="mask0_84_13499" style="mask-type:alpha" maskUnits="userSpaceOnUse" x="0" y="0" width="25" height="25">
<rect x="0.863281" y="0.083252" width="24" height="24" fill="#F181DE"/>
</mask>
<g mask="url(#mask0_84_13499)">
<path fill-rule="evenodd" clip-rule="evenodd" d="M12.8637 21.6159C10.9784 21.6159 9.13531 21.0568 7.56767 20.0094C6.00003 18.9619 4.7782 17.4731 4.05669 15.7312C3.33519 13.9893 3.14641 12.0726 3.51423 10.2235C3.88205 8.37433 4.78995 6.67577 6.12312 5.3426C7.45629 4.00943 9.15485 3.10153 11.004 2.73371C12.8532 2.36589 14.7699 2.55467 16.5117 3.27617C18.2536 3.99768 19.7424 5.21951 20.7899 6.78715C21.8373 8.35479 22.3964 10.1978 22.3964 12.0832C22.3964 14.6114 21.3921 17.0361 19.6044 18.8238C17.8166 20.6116 15.392 21.6159 12.8637 21.6159ZM16.2088 8.19009C16.2924 8.20712 16.369 8.24891 16.4285 8.31002L16.637 8.51844C16.6981 8.57802 16.7399 8.65459 16.7569 8.73821C16.7739 8.82184 16.7654 8.90866 16.7325 8.98739L14.9957 13.2687C14.9083 13.4812 14.7797 13.6743 14.6172 13.8368C14.4547 13.9993 14.2616 14.1279 14.0491 14.2153L9.76779 15.9521C9.68905 15.985 9.60224 15.9935 9.51861 15.9765C9.43498 15.9595 9.35841 15.9177 9.29884 15.8566L9.09042 15.6482C9.02931 15.5886 8.98752 15.512 8.97048 15.4284C8.95345 15.3448 8.96195 15.2579 8.99489 15.1792L10.7317 10.8979C10.819 10.6854 10.9477 10.4922 11.1102 10.3298C11.2726 10.1673 11.4658 10.0387 11.6783 9.95133L15.9596 8.2145C16.0383 8.18156 16.1252 8.17305 16.2088 8.19009Z" fill="#F181DE"/>
</g>
</svg>
