<svg width="25" height="25" viewBox="0 0 25 25" fill="none" xmlns="http://www.w3.org/2000/svg">
<mask id="mask0_84_13522" style="mask-type:alpha" maskUnits="userSpaceOnUse" x="0" y="0" width="25" height="25">
<rect x="0.863281" y="0.0893555" width="24" height="24" fill="#F181DE"/>
</mask>
<g mask="url(#mask0_84_13522)">
<path d="M20.9077 4.96232H11.1169C11.0147 4.96232 10.9318 5.04518 10.9318 5.14739V7.00921H9.45117V5.14739C9.45117 4.22745 10.1969 3.48169 11.1169 3.48169H20.9077C21.8277 3.48169 22.5734 4.22745 22.5734 5.14739V11.0699C22.5734 11.9898 21.8277 12.7356 20.9077 12.7356H20.0869V11.255H20.9077C21.0099 11.255 21.0928 11.1721 21.0928 11.0699V5.14739C21.0928 5.04518 21.0099 4.96232 20.9077 4.96232Z" fill="#F181DE"/>
<path fill-rule="evenodd" clip-rule="evenodd" d="M4.82958 6.75537C3.79386 6.75537 2.95425 7.59499 2.95425 8.6307L2.9541 17.7002C2.9541 18.736 3.79372 19.5756 4.82943 19.5756H7.78925L7.67191 20.8287C7.59223 21.1616 7.71087 21.5106 7.97688 21.726C8.2429 21.9413 8.60897 21.9847 8.91794 21.8375L12.7569 19.4892L18.2305 19.5756C19.2662 19.5756 20.1058 18.736 20.1058 17.7002L20.1059 8.6307C20.1059 7.59499 19.2663 6.75537 18.2306 6.75537H4.82958ZM11.5444 9.43323C10.9072 9.43323 10.2961 9.68635 9.84555 10.1369C9.47259 10.5099 9.23493 10.9928 9.16411 11.5095C9.12262 11.8122 9.37435 12.0357 9.64187 12.0357H10.1431C10.4281 12.0357 10.6166 11.807 10.6764 11.5933C10.7177 11.4453 10.7966 11.309 10.9071 11.1985C11.0743 11.0312 11.3005 10.9365 11.5367 10.9345C12.0741 10.979 12.3436 11.2471 12.4153 11.5488C12.4902 11.8644 12.367 12.2887 11.9647 12.664C11.8757 12.7341 11.7765 12.7976 11.6649 12.8691L11.6649 12.8692C11.5948 12.914 11.5199 12.962 11.4396 13.0167C11.2438 13.1501 11.0332 13.3138 10.8896 13.5311C10.648 13.8921 10.6171 14.3598 10.6114 14.8371C10.6081 15.1162 10.8352 15.3395 11.1102 15.3395H11.6115C11.8922 15.3395 12.1029 15.1128 12.1162 14.8497C12.1288 14.6031 12.1734 14.3993 12.3131 14.2263L12.3147 14.2242C12.4164 14.0947 12.5759 13.9736 12.7742 13.8232C12.9627 13.6804 13.1808 13.5149 13.3502 13.3107L13.3536 13.3065C13.9807 12.5078 14.0726 11.5616 13.7267 10.7983C13.3801 10.0336 12.6051 9.47651 11.5526 9.43323H11.5444ZM11.1102 15.8328C10.8341 15.8328 10.6102 16.0566 10.6102 16.3328V16.834C10.6102 17.1102 10.8341 17.334 11.1102 17.334H11.6115C11.8876 17.334 12.1115 17.1102 12.1115 16.834V16.3328C12.1115 16.0566 11.8876 15.8328 11.6115 15.8328H11.1102Z" fill="#F181DE"/>
</g>
</svg>
