<svg width="25" height="25" viewBox="0 0 25 25" fill="none" xmlns="http://www.w3.org/2000/svg">
<mask id="mask0_84_13516" style="mask-type:alpha" maskUnits="userSpaceOnUse" x="0" y="0" width="25" height="25">
<rect x="0.755859" y="0.0893555" width="24" height="24" fill="#C4C4C4"/>
</mask>
<g mask="url(#mask0_84_13516)">
<path d="M20.8003 4.96232H11.0094C10.9072 4.96232 10.8244 5.04518 10.8244 5.14739V7.00921H9.34374V5.14739C9.34374 4.22745 10.0895 3.48169 11.0094 3.48169H20.8003C21.7202 3.48169 22.466 4.22745 22.466 5.14739V11.0699C22.466 11.9898 21.7202 12.7356 20.8003 12.7356H19.9795V11.255H20.8003C20.9025 11.255 20.9854 11.1721 20.9854 11.0699V5.14739C20.9854 5.04518 20.9025 4.96232 20.8003 4.96232Z" fill="#FCFFFD" fill-opacity="0.4"/>
<path fill-rule="evenodd" clip-rule="evenodd" d="M2.84683 8.6307C2.84683 7.59499 3.68644 6.75537 4.72216 6.75537H18.1232C19.1589 6.75537 19.9985 7.59499 19.9985 8.6307L19.9984 17.7002C19.9984 18.736 19.1588 19.5756 18.123 19.5756L12.6495 19.4892L8.81052 21.8375C8.50155 21.9847 8.13548 21.9413 7.86946 21.726C7.60345 21.5106 7.48481 21.1616 7.56449 20.8287L7.68183 19.5756H4.72201C3.6863 19.5756 2.84668 18.736 2.84668 17.7002L2.84683 8.6307ZM4.5373 8.34999C4.48279 8.34999 4.4386 8.39418 4.4386 8.4487L4.4386 17.921C4.4386 17.9755 4.48279 18.0197 4.5373 18.0197H8.56336C8.83534 18.0197 9.09233 18.1443 9.26079 18.3578C9.42924 18.5713 9.49058 18.8503 9.42727 19.1148L9.26076 19.9059L12.0666 18.0197C12.1859 17.9628 12.3165 17.9333 12.4487 17.9333L18.3287 18.0197C18.3832 18.0197 18.4274 17.9755 18.4274 17.921V8.4487C18.4274 8.39418 18.3832 8.34999 18.3287 8.34999H4.5373Z" fill="#FCFFFD" fill-opacity="0.4"/>
<path fill-rule="evenodd" clip-rule="evenodd" d="M9.7377 10.137C10.1883 9.68647 10.7993 9.43335 11.4365 9.43335H11.4448C12.4973 9.47663 13.2723 10.0338 13.6189 10.7984C13.9648 11.5617 13.8728 12.5079 13.2457 13.3066L13.2424 13.3109C13.0729 13.515 12.8548 13.6806 12.6664 13.8234C12.468 13.9737 12.3086 14.0948 12.2068 14.2243L12.2052 14.2264C12.0655 14.3994 12.0209 14.6032 12.0084 14.8498C11.995 15.1129 11.7844 15.3396 11.5036 15.3396H11.0024C10.7273 15.3396 10.5002 15.1163 10.5035 14.8372C10.5092 14.3599 10.5402 13.8922 10.7818 13.5312C10.9253 13.3139 11.136 13.1502 11.3318 13.0168C11.4121 12.9621 11.487 12.9141 11.557 12.8693C11.6686 12.7978 11.7678 12.7342 11.8568 12.6641C12.2592 12.2889 12.3824 11.8645 12.3074 11.549C12.2357 11.2472 11.9662 10.9791 11.4289 10.9346C11.1926 10.9366 10.9665 11.0314 10.7992 11.1986C10.6887 11.3091 10.6099 11.4454 10.5685 11.5934C10.5088 11.8071 10.3203 12.0359 10.0353 12.0359H9.53402C9.2665 12.0359 9.01477 11.8124 9.05626 11.5096C9.12708 10.9929 9.36474 10.51 9.7377 10.137ZM10.5024 16.3329C10.5024 16.0568 10.7262 15.8329 11.0024 15.8329H11.5036C11.7798 15.8329 12.0036 16.0568 12.0036 16.3329V16.8342C12.0036 17.1103 11.7798 17.3342 11.5036 17.3342H11.0024C10.7262 17.3342 10.5024 17.1103 10.5024 16.8342V16.3329Z" fill="#FCFFFD" fill-opacity="0.4"/>
</g>
</svg>
