<svg width="111" height="86" viewBox="0 0 111 86" fill="none" xmlns="http://www.w3.org/2000/svg">
<path d="M4.75586 85.289V63.0447H25.2392V67.1538H8.86488V72.0969H22.0261V76.206H8.86488V85.289H4.75586ZM31.1913 85.289C30.0173 85.289 29.0081 84.8771 28.1636 84.0532C27.3397 83.2088 26.9278 82.1996 26.9278 81.0256V67.37H30.975V80.1605C30.975 80.7372 31.0059 81.0667 31.0677 81.1491C31.1501 81.2109 31.4797 81.2418 32.0564 81.2418H39.9963C40.573 81.2418 40.8923 81.2109 40.9541 81.1491C41.0365 81.0667 41.0777 80.7372 41.0777 80.1605V67.37H45.1249V81.0256C45.1249 82.1996 44.7027 83.2088 43.8582 84.0532C43.0343 84.8771 42.0354 85.289 40.8614 85.289H31.1913ZM48.3785 85.289V71.6335C48.3785 70.4595 48.7904 69.4606 49.6143 68.6367C50.4588 67.7923 51.468 67.37 52.642 67.37H62.5901V71.4172H53.507C52.9303 71.4172 52.6008 71.4584 52.5184 71.5408C52.4566 71.6026 52.4257 71.9219 52.4257 72.4986V85.289H48.3785ZM64.9421 85.289V67.37H68.9894V85.289H64.9421ZM64.9421 65.5781V61.5H68.9894V65.5781H64.9421ZM76.0236 85.289C74.8496 85.289 73.8404 84.8771 72.9959 84.0532C72.172 83.2088 71.7601 82.1996 71.7601 81.0256V71.6335C71.7601 70.4595 72.172 69.4606 72.9959 68.6367C73.8404 67.7923 74.8496 67.37 76.0236 67.37H85.6937C86.8677 67.37 87.8666 67.7923 88.6905 68.6367C89.535 69.4606 89.9572 70.4595 89.9572 71.6335V81.0256C89.9572 82.1996 89.535 83.2088 88.6905 84.0532C87.8666 84.8771 86.8677 85.289 85.6937 85.289H76.0236ZM76.8887 81.2418H84.8286C85.4053 81.2418 85.7246 81.2109 85.7862 81.1491C85.8688 81.0667 85.91 80.7372 85.91 80.1605V72.4986C85.91 71.9219 85.8688 71.6026 85.7862 71.5408C85.7246 71.4584 85.4053 71.4172 84.8286 71.4172H76.8887C76.312 71.4172 75.9824 71.4584 75.9 71.5408C75.8382 71.6026 75.8073 71.9219 75.8073 72.4986V80.1605C75.8073 80.7372 75.8382 81.0667 75.9 81.1491C75.9824 81.2109 76.312 81.2418 76.8887 81.2418ZM92.4594 85.289V67.37H106.393C107.567 67.37 108.566 67.7923 109.39 68.6367C110.234 69.4606 110.656 70.4595 110.656 71.6335V85.289H106.609V72.4986C106.609 71.9219 106.568 71.6026 106.486 71.5408C106.424 71.4584 106.105 71.4172 105.528 71.4172H97.588C97.0112 71.4172 96.6817 71.4584 96.5993 71.5408C96.5375 71.6026 96.5066 71.9219 96.5066 72.4986V85.289H92.4594Z" fill="#13458D"/>
<path d="M4.75586 84.289V62.0447H25.2392V66.1538H8.86488V71.0969H22.0261V75.206H8.86488V84.289H4.75586ZM31.1913 84.289C30.0173 84.289 29.0081 83.8771 28.1636 83.0532C27.3397 82.2088 26.9278 81.1996 26.9278 80.0256V66.37H30.975V79.1605C30.975 79.7372 31.0059 80.0667 31.0677 80.1491C31.1501 80.2109 31.4797 80.2418 32.0564 80.2418H39.9963C40.573 80.2418 40.8923 80.2109 40.9541 80.1491C41.0365 80.0667 41.0777 79.7372 41.0777 79.1605V66.37H45.1249V80.0256C45.1249 81.1996 44.7027 82.2088 43.8582 83.0532C43.0343 83.8771 42.0354 84.289 40.8614 84.289H31.1913ZM48.3785 84.289V70.6335C48.3785 69.4595 48.7904 68.4606 49.6143 67.6367C50.4588 66.7923 51.468 66.37 52.642 66.37H62.5901V70.4172H53.507C52.9303 70.4172 52.6008 70.4584 52.5184 70.5408C52.4566 70.6026 52.4257 70.9219 52.4257 71.4986V84.289H48.3785ZM64.9421 84.289V66.37H68.9894V84.289H64.9421ZM64.9421 64.5781V60.5H68.9894V64.5781H64.9421ZM76.0236 84.289C74.8496 84.289 73.8404 83.8771 72.9959 83.0532C72.172 82.2088 71.7601 81.1996 71.7601 80.0256V70.6335C71.7601 69.4595 72.172 68.4606 72.9959 67.6367C73.8404 66.7923 74.8496 66.37 76.0236 66.37H85.6937C86.8677 66.37 87.8666 66.7923 88.6905 67.6367C89.535 68.4606 89.9572 69.4595 89.9572 70.6335V80.0256C89.9572 81.1996 89.535 82.2088 88.6905 83.0532C87.8666 83.8771 86.8677 84.289 85.6937 84.289H76.0236ZM76.8887 80.2418H84.8286C85.4053 80.2418 85.7246 80.2109 85.7862 80.1491C85.8688 80.0667 85.91 79.7372 85.91 79.1605V71.4986C85.91 70.9219 85.8688 70.6026 85.7862 70.5408C85.7246 70.4584 85.4053 70.4172 84.8286 70.4172H76.8887C76.312 70.4172 75.9824 70.4584 75.9 70.5408C75.8382 70.6026 75.8073 70.9219 75.8073 71.4986V79.1605C75.8073 79.7372 75.8382 80.0667 75.9 80.1491C75.9824 80.2109 76.312 80.2418 76.8887 80.2418ZM92.4594 84.289V66.37H106.393C107.567 66.37 108.566 66.7923 109.39 67.6367C110.234 68.4606 110.656 69.4595 110.656 70.6335V84.289H106.609V71.4986C106.609 70.9219 106.568 70.6026 106.486 70.5408C106.424 70.4584 106.105 70.4172 105.528 70.4172H97.588C97.0112 70.4172 96.6817 70.4584 96.5993 70.5408C96.5375 70.6026 96.5066 70.9219 96.5066 71.4986V84.289H92.4594Z" fill="#FCFFFD"/>
<rect x="4.75586" y="0.5" width="44" height="44" rx="12" fill="#08295A"/>
<g filter="url(#filter0_dii_84_13657)">
<rect x="4.75586" y="0.5" width="44" height="44" rx="12" fill="#08295A"/>
</g>
<g filter="url(#filter1_di_84_13657)">
<path d="M28.5051 36.0166C24.7923 36.0166 21.2315 34.5416 18.6061 31.9163C15.9808 29.2909 14.5059 25.7301 14.5059 22.0174C14.5059 16.3452 17.7643 11.2596 22.8095 9.0638C22.9873 8.98631 23.1843 8.96417 23.3749 9.00027C23.5654 9.03636 23.7407 9.12903 23.8779 9.26618C24.015 9.40333 24.1077 9.57861 24.1438 9.76919C24.1799 9.95976 24.1577 10.1568 24.0803 10.3346C23.501 11.6645 23.195 13.368 23.195 15.2591C23.195 21.9135 28.6088 27.3274 35.2633 27.3274C37.1545 27.3274 38.8578 27.0214 40.1879 26.4421C40.3656 26.3646 40.5627 26.3425 40.7532 26.3787C40.9437 26.4147 41.1191 26.5074 41.2562 26.6445C41.3934 26.7817 41.4861 26.9569 41.5221 27.1476C41.5583 27.3381 41.5362 27.5352 41.4587 27.7129C39.2628 32.7581 34.1773 36.0166 28.5051 36.0166Z" fill="#F181DE"/>
</g>
<defs>
<filter id="filter0_dii_84_13657" x="0.755859" y="-0.5" width="52" height="53" filterUnits="userSpaceOnUse" color-interpolation-filters="sRGB">
<feFlood flood-opacity="0" result="BackgroundImageFix"/>
<feColorMatrix in="SourceAlpha" type="matrix" values="0 0 0 0 0 0 0 0 0 0 0 0 0 0 0 0 0 0 127 0" result="hardAlpha"/>
<feOffset dy="4"/>
<feGaussianBlur stdDeviation="2"/>
<feComposite in2="hardAlpha" operator="out"/>
<feColorMatrix type="matrix" values="0 0 0 0 0 0 0 0 0 0 0 0 0 0 0 0 0 0 0.25 0"/>
<feBlend mode="normal" in2="BackgroundImageFix" result="effect1_dropShadow_84_13657"/>
<feBlend mode="normal" in="SourceGraphic" in2="effect1_dropShadow_84_13657" result="shape"/>
<feColorMatrix in="SourceAlpha" type="matrix" values="0 0 0 0 0 0 0 0 0 0 0 0 0 0 0 0 0 0 127 0" result="hardAlpha"/>
<feOffset dy="-1"/>
<feGaussianBlur stdDeviation="0.5"/>
<feComposite in2="hardAlpha" operator="arithmetic" k2="-1" k3="1"/>
<feColorMatrix type="matrix" values="0 0 0 0 0 0 0 0 0 0 0 0 0 0 0 0 0 0 0.25 0"/>
<feBlend mode="normal" in2="shape" result="effect2_innerShadow_84_13657"/>
<feColorMatrix in="SourceAlpha" type="matrix" values="0 0 0 0 0 0 0 0 0 0 0 0 0 0 0 0 0 0 127 0" result="hardAlpha"/>
<feOffset dy="1"/>
<feGaussianBlur stdDeviation="0.5"/>
<feComposite in2="hardAlpha" operator="arithmetic" k2="-1" k3="1"/>
<feColorMatrix type="matrix" values="0 0 0 0 1 0 0 0 0 1 0 0 0 0 1 0 0 0 0.25 0"/>
<feBlend mode="normal" in2="effect2_innerShadow_84_13657" result="effect3_innerShadow_84_13657"/>
</filter>
<filter id="filter1_di_84_13657" x="12.5059" y="8.9834" width="31.0332" height="31.0332" filterUnits="userSpaceOnUse" color-interpolation-filters="sRGB">
<feFlood flood-opacity="0" result="BackgroundImageFix"/>
<feColorMatrix in="SourceAlpha" type="matrix" values="0 0 0 0 0 0 0 0 0 0 0 0 0 0 0 0 0 0 127 0" result="hardAlpha"/>
<feOffset dy="2"/>
<feGaussianBlur stdDeviation="1"/>
<feComposite in2="hardAlpha" operator="out"/>
<feColorMatrix type="matrix" values="0 0 0 0 0 0 0 0 0 0 0 0 0 0 0 0 0 0 0.25 0"/>
<feBlend mode="normal" in2="BackgroundImageFix" result="effect1_dropShadow_84_13657"/>
<feBlend mode="normal" in="SourceGraphic" in2="effect1_dropShadow_84_13657" result="shape"/>
<feColorMatrix in="SourceAlpha" type="matrix" values="0 0 0 0 0 0 0 0 0 0 0 0 0 0 0 0 0 0 127 0" result="hardAlpha"/>
<feOffset dy="1"/>
<feGaussianBlur stdDeviation="0.3"/>
<feComposite in2="hardAlpha" operator="arithmetic" k2="-1" k3="1"/>
<feColorMatrix type="matrix" values="0 0 0 0 1 0 0 0 0 0.725 0 0 0 0 0.953348 0 0 0 1 0"/>
<feBlend mode="normal" in2="shape" result="effect2_innerShadow_84_13657"/>
</filter>
</defs>
</svg>
