<svg width="36" height="36" viewBox="0 0 36 36" fill="none" xmlns="http://www.w3.org/2000/svg">
<circle cx="17.7759" cy="18.3398" r="16" fill="#011129" fill-opacity="0.6"/>
<circle cx="17.7759" cy="18.3398" r="16.8" stroke="white" stroke-opacity="0.1" stroke-width="1.6"/>
<path fill-rule="evenodd" clip-rule="evenodd" d="M12.9014 18.9585C12.5502 19.3097 12.5502 19.879 12.9014 20.2302L17.1414 24.4702C17.4926 24.8214 18.0619 24.8214 18.4131 24.4702L22.6531 20.2302C23.0043 19.879 23.0043 19.3097 22.6531 18.9585L22.4185 18.7239C22.0673 18.3727 21.498 18.3727 21.1468 18.7239L18.7105 21.1603L18.7105 12.7314C18.7105 12.2908 18.3533 11.9336 17.9126 11.9336L17.5137 11.9336C17.0731 11.9336 16.7158 12.2908 16.7158 12.7314L16.7158 21.0321L14.4077 18.7239C14.0565 18.3727 13.4872 18.3727 13.136 18.7239L12.9014 18.9585Z" fill="#FCFFFD" fill-opacity="0.6"/>
</svg>
