<svg width="24" height="24" viewBox="0 0 24 24" fill="none" xmlns="http://www.w3.org/2000/svg">
<mask id="mask0_322_987" style="mask-type:alpha" maskUnits="userSpaceOnUse" x="0" y="0" width="24" height="24">
<rect width="24" height="24" fill="#C4C4C4"/>
</mask>
<g mask="url(#mask0_322_987)">
<path d="M17.5278 18.4229C17.3069 18.4229 17.1278 18.2438 17.1278 18.0229V9.83589C17.1278 9.61498 16.9487 9.43589 16.7278 9.43589H14.9636C14.7427 9.43589 14.5636 9.61498 14.5636 9.83589V18.0229C14.5636 18.2438 14.3845 18.4229 14.1636 18.4229H11.6855C11.3289 18.4229 11.1505 18.8542 11.403 19.1061L15.564 23.2566C15.7202 23.4123 15.9729 23.4123 16.129 23.2566L20.29 19.1061C20.5425 18.8542 20.3642 18.4229 20.0076 18.4229H17.5278ZM8.43633 0.743591C8.28019 0.587902 8.02751 0.587923 7.8714 0.743636L3.71033 4.89416C3.45785 5.14599 3.63621 5.57736 3.99281 5.57736H6.47417C6.69508 5.57736 6.87417 5.75644 6.87417 5.97736V14.1643C6.87417 14.3853 7.05326 14.5643 7.27417 14.5643H9.03839C9.25931 14.5643 9.4384 14.3853 9.4384 14.1643V5.97736C9.4384 5.75644 9.61748 5.57736 9.8384 5.57736H12.3163C12.6729 5.57736 12.8513 5.14593 12.5987 4.89411L8.43633 0.743591Z" fill="#9BA3AF"/>
</g>
</svg>
