<svg width="17" height="10" viewBox="0 0 17 10" fill="none" xmlns="http://www.w3.org/2000/svg">
<path d="M8.25539 9.6685C8.23393 9.65991 8.2139 9.63989 8.19102 9.62844V9.62701C8.11949 9.58553 8.04081 9.55548 7.97643 9.49111C7.96499 9.4768 7.95783 9.46536 7.94639 9.45535C7.93208 9.43818 7.90919 9.43246 7.89489 9.41958L1.30263 2.57667C0.78859 2.04308 0.807179 1.19301 1.34406 0.682405C1.87139 0.180873 2.7032 0.193883 3.21459 0.71166L8.69887 6.26441C8.69887 6.26441 11.7818 3.32926 14.3016 0.736911C14.8039 0.220169 15.637 0.221166 16.1313 0.745611C16.5876 1.2298 16.5861 1.98614 16.1278 2.46848L9.4914 9.45391C9.33503 9.61656 9.13084 9.72508 8.90855 9.76367C8.68625 9.80227 8.45743 9.76892 8.25539 9.6685Z" fill="white" fill-opacity="0.7"/>
</svg>
