<svg width="37" height="37" viewBox="0 0 37 37" fill="none" xmlns="http://www.w3.org/2000/svg">
<rect x="0.164062" y="0.402344" width="36" height="36" rx="8" fill="#01132E" fill-opacity="0.5"/>
<path d="M11.8551 17.884C11.8662 17.8563 11.892 17.8305 11.9068 17.8009L11.9086 17.8009C11.9622 17.7086 12.001 17.6071 12.084 17.524C12.1025 17.5092 12.1173 17.5 12.1302 17.4852C12.1523 17.4668 12.1597 17.4372 12.1763 17.4188L21.0072 8.91143C21.6958 8.24805 22.7928 8.27204 23.4517 8.96488C24.099 9.64541 24.0822 10.7189 23.414 11.3788L16.2481 18.4563C16.2481 18.4563 20.0359 22.4349 23.3814 25.6867C24.0482 26.3349 24.047 27.4101 23.3702 28.0479C22.7453 28.6367 21.7692 28.6348 21.1468 28.0434L12.132 19.4791C11.9221 19.2773 11.7821 19.0138 11.7323 18.7269C11.6825 18.44 11.7255 18.1447 11.8551 17.884Z" fill="white"/>
</svg>
