<svg width="25" height="25" viewBox="0 0 25 25" fill="none" xmlns="http://www.w3.org/2000/svg">
<mask id="mask0_3_901" style="mask-type:alpha" maskUnits="userSpaceOnUse" x="0" y="0" width="25" height="25">
<rect x="0.617676" y="0.78125" width="24" height="24" fill="#C4C4C4"/>
</mask>
<g mask="url(#mask0_3_901)">
<path opacity="0.6" d="M20.7832 11.0844V7.12526L19.5397 8.41651C18.8454 7.32423 17.9011 6.42781 16.7912 5.80754C15.6814 5.18726 14.4408 4.86248 13.1804 4.8623C8.96886 4.8623 5.5542 8.40746 5.5542 12.7812C5.5542 17.155 8.96886 20.7001 13.1804 20.7001C14.6982 20.7004 16.1815 20.2305 17.4406 19.3505C18.6997 18.4705 19.6773 17.2204 20.2483 15.7602C20.3135 15.5935 20.3123 15.4067 20.2449 15.2409C20.1775 15.0751 20.0494 14.9439 19.8888 14.8762C19.8093 14.8427 19.7242 14.8257 19.6384 14.8263C19.5526 14.8269 19.4677 14.8451 19.3887 14.8797C19.229 14.9498 19.1027 15.0827 19.0375 15.2495C18.5641 16.4594 17.7539 17.4951 16.7105 18.2243C15.6672 18.9535 14.4381 19.3429 13.1804 19.3427C9.69058 19.3427 6.86146 16.405 6.86146 12.7812C6.86146 9.15744 9.69058 6.21974 13.1804 6.21974C15.4349 6.21974 17.4688 7.45839 18.5935 9.39839L16.9704 11.0844H20.7832Z" fill="#FCFFFD" stroke="#FCFFFD" stroke-width="0.6"/>
<path fill-rule="evenodd" clip-rule="evenodd" d="M13.6196 9.66087C13.6196 9.27808 13.3093 8.96777 12.9265 8.96777C12.5437 8.96777 12.2334 9.27808 12.2334 9.66086V13.485L14.9468 15.4005C15.2137 15.5889 15.5774 15.5578 15.8084 15.3268C16.1084 15.0268 16.0583 14.5272 15.7048 14.2928L13.6196 12.9102V9.66087Z" fill="#FCFFFD" fill-opacity="0.6"/>
</g>
</svg>
