<svg width="17" height="15" viewBox="0 0 17 15" fill="none" xmlns="http://www.w3.org/2000/svg">
<g clip-path="url(#clip0_3_859)">
<path d="M7.26407 8.00983L7.41765 8.15078C7.4586 8.18837 7.49956 8.22361 7.54051 8.2565C7.58147 8.28939 7.62242 8.32463 7.66337 8.36222L7.84767 8.53136C8.05244 8.7193 8.13435 8.88375 8.0934 9.02471C8.05244 9.16566 7.92446 9.33011 7.70945 9.51805C7.6173 9.61202 7.46628 9.75533 7.25639 9.94797C7.0465 10.1406 6.82125 10.3497 6.58065 10.5752C6.34004 10.8007 6.10711 11.0169 5.88186 11.2236C5.65661 11.4304 5.48256 11.5948 5.3597 11.717C5.1754 11.8861 5.04742 12.0341 4.97575 12.161C4.90408 12.2878 4.93479 12.4123 5.0679 12.5345C5.16004 12.6191 5.27779 12.7318 5.42113 12.8728C5.56447 13.0138 5.68733 13.1312 5.78972 13.2252C5.96377 13.3849 6.02776 13.5259 5.98169 13.6481C5.93562 13.7702 5.7846 13.8407 5.52863 13.8595C5.26243 13.8877 4.96551 13.9206 4.63788 13.9582C4.31024 13.9957 3.97237 14.031 3.62426 14.0639C3.27615 14.0968 2.93571 14.132 2.60296 14.1696C2.27021 14.2072 1.96561 14.2401 1.68917 14.2683C1.42296 14.2965 1.23867 14.2659 1.13628 14.1766C1.0339 14.0874 0.992943 13.93 1.01342 13.7044C1.0339 13.4695 1.06205 13.2064 1.09789 12.9151C1.13372 12.6238 1.17212 12.3254 1.21307 12.02C1.25403 11.7146 1.29242 11.4116 1.32826 11.1109C1.36409 10.8101 1.39737 10.5329 1.42808 10.2792C1.4588 10.0067 1.54327 9.83285 1.68149 9.75768C1.81971 9.6825 1.97585 9.72479 2.1499 9.88454C2.25229 9.97851 2.38539 10.0936 2.54921 10.2299C2.71302 10.3661 2.85124 10.4859 2.96387 10.5893C3.07649 10.6927 3.184 10.7256 3.28638 10.688C3.38877 10.6504 3.50651 10.5752 3.63961 10.4625C3.77272 10.3403 3.95445 10.1711 4.18482 9.95502C4.41519 9.73888 4.65579 9.5157 4.90664 9.28547C5.15748 9.05525 5.40065 8.82972 5.63614 8.60889C5.87162 8.38806 6.06104 8.21186 6.20438 8.0803C6.26581 8.02392 6.33492 7.96989 6.41171 7.9182C6.4885 7.86652 6.57297 7.83128 6.66511 7.81249C6.75726 7.79369 6.85197 7.79839 6.94923 7.82658C7.0465 7.85477 7.15145 7.91586 7.26407 8.00983ZM15.0352 0.905657C15.3014 0.877465 15.4856 0.908006 15.588 0.997278C15.6904 1.08655 15.7314 1.24395 15.7109 1.46948C15.6904 1.70441 15.6623 1.96752 15.6264 2.25883C15.5906 2.55014 15.5522 2.8485 15.5112 3.1539C15.4703 3.4593 15.4319 3.76471 15.3961 4.07011C15.3602 4.37552 15.3269 4.65508 15.2962 4.9088C15.2655 5.18131 15.1811 5.35281 15.0428 5.42329C14.9046 5.49377 14.7485 5.44913 14.5744 5.28938C14.472 5.19541 14.3312 5.07325 14.1521 4.92289C13.9729 4.77254 13.827 4.64568 13.7144 4.54231C13.6017 4.43895 13.5045 4.39431 13.4226 4.40841C13.3407 4.4225 13.2383 4.48593 13.1154 4.5987C12.9721 4.73026 12.7852 4.9041 12.5549 5.12023C12.3245 5.33637 12.0813 5.56424 11.8254 5.80387C11.5694 6.04349 11.3185 6.27607 11.0728 6.5016L10.5046 7.02314C10.4431 7.07952 10.3766 7.1359 10.3049 7.19228C10.2333 7.24866 10.1539 7.29095 10.0669 7.31914C9.97985 7.34733 9.88771 7.35203 9.79044 7.33324C9.69317 7.31444 9.59335 7.25336 9.49096 7.15L8.90736 6.61436C8.70259 6.42642 8.613 6.25493 8.6386 6.09988C8.6642 5.94482 8.77938 5.77333 8.98415 5.58539C9.0763 5.50081 9.22988 5.35751 9.44489 5.15547C9.6599 4.95344 9.89027 4.73965 10.136 4.51412C10.3817 4.28859 10.6198 4.06776 10.8501 3.85163C11.0805 3.6355 11.2622 3.47105 11.3953 3.35829C11.5796 3.18914 11.6948 3.05053 11.7409 2.94247C11.787 2.8344 11.7434 2.71929 11.6103 2.59713C11.5182 2.51255 11.4081 2.40918 11.2802 2.28702C11.1522 2.16486 11.037 2.0568 10.9346 1.96282C10.7605 1.80307 10.6966 1.66212 10.7426 1.53996C10.7887 1.4178 10.9397 1.34262 11.1957 1.31443C11.4516 1.28624 11.746 1.25335 12.0788 1.21576C12.4115 1.17817 12.7519 1.14293 13.1001 1.11004C13.4482 1.07715 13.7886 1.04191 14.1214 1.00433C14.4541 0.966737 14.7587 0.933848 15.0352 0.905657V0.905657Z" fill="#FCFFFD" fill-opacity="0.6"/>
</g>
<defs>
<clipPath id="clip0_3_859">
<rect width="15.2537" height="14" fill="white" transform="translate(0.996582 0.888672)"/>
</clipPath>
</defs>
</svg>
