<svg width="20" height="21" viewBox="0 0 20 21" fill="none" xmlns="http://www.w3.org/2000/svg">
<circle cx="9.87541" cy="10.7797" r="8.87541" stroke="#FCFFFD" stroke-opacity="0.5" stroke-width="2"/>
<path fill-rule="evenodd" clip-rule="evenodd" d="M9.53955 5.82324C8.98727 5.82324 8.53955 6.27096 8.53955 6.82324V11.2347C8.53955 11.787 8.98727 12.2347 9.53955 12.2347H10.2115C10.7638 12.2347 11.2115 11.787 11.2115 11.2347V6.82324C11.2115 6.27096 10.7638 5.82324 10.2115 5.82324H9.53955ZM9.53955 13.1885C8.98727 13.1885 8.53955 13.6362 8.53955 14.1885V14.7346C8.53955 15.2869 8.98727 15.7346 9.53955 15.7346H10.2115C10.7638 15.7346 11.2115 15.2869 11.2115 14.7346V14.1885C11.2115 13.6362 10.7638 13.1885 10.2115 13.1885H9.53955Z" fill="#FCFFFD" fill-opacity="0.5"/>
</svg>
