<svg width="36" height="36" viewBox="0 0 36 36" fill="none" xmlns="http://www.w3.org/2000/svg">
<circle cx="17.6133" cy="18.3398" r="16" fill="#011129" fill-opacity="0.6"/>
<circle cx="17.6133" cy="18.3398" r="16.8" stroke="white" stroke-opacity="0.1" stroke-width="1.6"/>
<path fill-rule="evenodd" clip-rule="evenodd" d="M18.4064 16.9351V16.0666L18.4064 12.964C18.4064 12.3431 17.9031 11.8398 17.2823 11.8398H16.7202C16.0994 11.8398 15.5961 12.3431 15.5961 12.964V16.0666V16.9351H14.7277H11.6251C11.0043 16.9351 10.501 17.4384 10.501 18.0592L10.501 18.6213C10.501 19.2422 11.0043 19.7455 11.6251 19.7455L14.7277 19.7455H15.5961V20.6131V23.7157C15.5961 24.3365 16.0994 24.8398 16.7202 24.8398H17.2823C17.9031 24.8398 18.4064 24.3365 18.4064 23.7157L18.4064 20.6131V19.7455H19.2742L22.3768 19.7455C22.9977 19.7455 23.501 19.2422 23.501 18.6213V18.0592C23.501 17.4384 22.9977 16.9351 22.3768 16.9351H19.2742H18.4064Z" fill="#D9D9D9"/>
</svg>
