<svg width="15" height="16" viewBox="0 0 15 16" fill="none" xmlns="http://www.w3.org/2000/svg">
<path fill-rule="evenodd" clip-rule="evenodd" d="M7.5 0.19043C3.35786 0.19043 0 3.54829 0 7.69043C0 11.8326 3.35786 15.1904 7.5 15.1904C11.6421 15.1904 15 11.8326 15 7.69043C15 3.54829 11.6421 0.19043 7.5 0.19043ZM7.16946 11.5404C6.71383 11.5404 6.34446 11.9098 6.34446 12.3654C6.34446 12.8211 6.71382 13.1904 7.16946 13.1904H7.2778C7.73344 13.1904 8.10281 12.8211 8.10281 12.3654C8.10281 11.9098 7.73344 11.5404 7.27781 11.5404H7.16946ZM10.1542 7.50893C12.0181 5.28143 10.6524 2.31143 7.51669 2.19043C6.58401 2.19043 5.68952 2.53811 5.03001 3.15698C4.59327 3.56681 4.28327 4.07333 4.12368 4.62293C3.98827 5.08922 4.39362 5.49043 4.87917 5.49043C5.36473 5.49043 5.74227 5.06871 5.99929 4.65675C6.07449 4.53622 6.16631 4.42415 6.27335 4.3237C6.60311 4.01427 7.05035 3.84043 7.51669 3.84043C9.46259 3.98343 9.81426 5.72693 8.39586 6.95893C8.24044 7.07491 8.0545 7.18695 7.8608 7.30368C7.44822 7.5523 7.0004 7.82215 6.73716 8.19643C6.47717 8.56057 6.38931 9.02355 6.35961 9.56143C6.33285 10.0462 6.73808 10.4404 7.22363 10.4404C7.70919 10.4404 8.06077 10.0396 8.16441 9.5652C8.21703 9.32436 8.3146 9.09422 8.4955 8.88393C8.68468 8.658 8.96916 8.45575 9.26739 8.24372C9.57901 8.02218 9.90563 7.78997 10.1542 7.50893Z" fill="#C4C4C4"/>
</svg>
