<svg width="25" height="25" viewBox="0 0 25 25" fill="none" xmlns="http://www.w3.org/2000/svg">
<mask id="mask0_3_905" style="mask-type:alpha" maskUnits="userSpaceOnUse" x="0" y="0" width="25" height="25">
<rect x="0.617676" y="0.78125" width="24" height="24" fill="#C4C4C4"/>
</mask>
<g mask="url(#mask0_3_905)">
<path opacity="0.6" d="M20.7832 11.3236V7.36439L19.5397 8.65565C18.8454 7.56337 17.9011 6.66695 16.7912 6.04667C15.6814 5.42639 14.4408 5.10162 13.1804 5.10144C8.96886 5.10144 5.5542 8.6466 5.5542 13.0204C5.5542 17.3941 8.96886 20.9393 13.1804 20.9393C14.6982 20.9396 16.1815 20.4697 17.4406 19.5897C18.6997 18.7096 19.6773 17.4596 20.2483 15.9993C20.3135 15.8326 20.3123 15.6458 20.2449 15.48C20.1775 15.3142 20.0494 15.183 19.8888 15.1153C19.8093 15.0818 19.7242 15.0648 19.6384 15.0654C19.5526 15.0661 19.4677 15.0842 19.3887 15.1189C19.229 15.1889 19.1027 15.3219 19.0375 15.4886C18.5641 16.6985 17.7539 17.7343 16.7105 18.4634C15.6672 19.1926 14.4381 19.582 13.1804 19.5818C9.69058 19.5818 6.86146 16.6441 6.86146 13.0204C6.86146 9.39658 9.69058 6.45887 13.1804 6.45887C15.4349 6.45887 17.4688 7.69753 18.5935 9.63752L16.9704 11.3236H20.7832Z" fill="#FCFFFD" stroke="#FCFFFD" stroke-width="0.6"/>
</g>
</svg>
