<svg width="25" height="25" viewBox="0 0 25 25" fill="none" xmlns="http://www.w3.org/2000/svg">
<mask id="mask0_3_898" style="mask-type:alpha" maskUnits="userSpaceOnUse" x="0" y="0" width="25" height="25">
<rect x="0.617676" y="0.777344" width="24" height="24" fill="#C4C4C4"/>
</mask>
<g mask="url(#mask0_3_898)">
<path fill-rule="evenodd" clip-rule="evenodd" d="M16.0035 7.34949C15.5898 7.10674 15.264 6.72481 15.162 6.25619L14.9828 5.4326C14.8995 5.05003 14.5624 4.77734 14.1728 4.77734H11.1547C10.765 4.77734 10.428 5.05003 10.3447 5.4326L10.1561 6.299C10.06 6.74072 9.75325 7.10121 9.36187 7.32744C8.95103 7.56387 8.46297 7.65487 8.01151 7.51039L7.20743 7.25308C6.83616 7.13427 6.43268 7.29132 6.23786 7.63047L4.72879 10.2576C4.53397 10.5967 4.60039 11.0264 4.8884 11.2902L5.52422 11.8725C5.86718 12.1866 6.02921 12.6456 6.02964 13.1107C6.02921 13.5757 5.86717 14.0348 5.52419 14.3489L4.8884 14.9312C4.60039 15.1949 4.53397 15.6247 4.72879 15.9638L6.23786 18.5909C6.43267 18.93 6.83616 19.0871 7.20743 18.9683L8.00357 18.7135C8.46002 18.5674 8.95342 18.6596 9.36909 18.8981C9.75622 19.1212 10.0593 19.4776 10.1544 19.9142L10.3447 20.7888C10.428 21.1713 10.765 21.444 11.1547 21.444H14.1728C14.5624 21.444 14.8995 21.1713 14.9828 20.7888L15.1639 19.9567C15.2647 19.4934 15.5867 19.1157 15.996 18.8763C16.3864 18.6488 16.8518 18.5625 17.2822 18.7002L18.1199 18.9683C18.4911 19.0871 18.8946 18.93 19.0894 18.5909L20.5985 15.9638C20.7933 15.6247 20.7269 15.1949 20.4389 14.9312L19.8038 14.3495C19.4604 14.035 19.2982 13.5754 19.2977 13.1097C19.298 12.6453 19.4599 12.1868 19.8024 11.8731L20.4389 11.2902C20.7269 11.0265 20.7933 10.5967 20.5985 10.2576L19.0894 7.63047C18.8946 7.29132 18.4911 7.13427 18.1199 7.25308L17.2739 7.52379C16.8488 7.65985 16.3889 7.57472 16.0035 7.34949ZM12.6637 16.444C14.4953 16.444 15.9801 14.9516 15.9801 13.1107C15.9801 11.2697 14.4953 9.77734 12.6637 9.77734C10.8321 9.77734 9.34722 11.2697 9.34722 13.1107C9.34722 14.9516 10.8321 16.444 12.6637 16.444Z" fill="#FCFFFD" fill-opacity="0.6"/>
</g>
</svg>
