<svg width="21" height="19" viewBox="0 0 21 19" fill="none" xmlns="http://www.w3.org/2000/svg">
<mask id="mask0_3_886" style="mask-type:alpha" maskUnits="userSpaceOnUse" x="0" y="0" width="21" height="19">
<rect x="20.2563" y="0.888672" width="18" height="19.6119" transform="rotate(90 20.2563 0.888672)" fill="#C4C4C4"/>
</mask>
<g mask="url(#mask0_3_886)">
<path d="M5.20576 14.0331C5.20576 13.8674 5.34007 13.7331 5.50575 13.7331L12.2496 13.7331C12.4153 13.7331 12.5496 13.5988 12.5496 13.4331L12.5496 12.1099C12.5496 11.9442 12.4153 11.8099 12.2496 11.8099L5.50576 11.8099C5.34007 11.8099 5.20576 11.6756 5.20576 11.5099L5.20576 9.60948C5.20576 9.34818 4.89491 9.21178 4.70262 9.38871L1.26552 12.5513C1.13637 12.6702 1.13637 12.874 1.26552 12.9929L4.70262 16.1555C4.89491 16.3324 5.20576 16.196 5.20576 15.9347L5.20576 14.0331ZM19.643 7.22336C19.7721 7.10451 19.7721 6.90069 19.6429 6.78186L16.2058 3.61921C16.0135 3.44228 15.7027 3.57867 15.7027 3.83997L15.7027 5.74283C15.7027 5.90852 15.5683 6.04283 15.4027 6.04283L8.65881 6.04283C8.49313 6.04283 8.35881 6.17715 8.35881 6.34283L8.35881 7.666C8.35881 7.83169 8.49313 7.966 8.65881 7.966L15.4027 7.966C15.5683 7.966 15.7027 8.10032 15.7027 8.266L15.7027 10.1663C15.7027 10.4276 16.0135 10.564 16.2058 10.387L19.643 7.22336Z" fill="#34F8FF"/>
</g>
</svg>
