<svg width="191" height="56" viewBox="0 0 191 56" fill="none" xmlns="http://www.w3.org/2000/svg">
<path d="M8 19C8 12.9249 12.9249 8 19 8H172C178.075 8 183 12.9249 183 19V37C183 43.0751 178.075 48 172 48H19C12.9249 48 8 43.0751 8 37V19Z" fill="#FA6BE1" stroke="url(#paint0_linear_323_2297)" stroke-width="2"/>
<g filter="url(#filter0_di_323_2297)">
<path d="M7 19C7 12.3726 12.3726 7 19 7H172C178.627 7 184 12.3726 184 19V37C184 43.6274 178.627 49 172 49H19C12.3726 49 7 43.6274 7 37V19Z" fill="#FA6BE1"/>
<path d="M19 5.5C11.5442 5.5 5.5 11.5442 5.5 19V37C5.5 44.4558 11.5442 50.5 19 50.5H172C179.456 50.5 185.5 44.4558 185.5 37V19C185.5 11.5442 179.456 5.5 172 5.5H19Z" stroke="#364666" stroke-width="3"/>
</g>
<path d="M53.3108 33H51.004L54.5189 22.8182H57.2931L60.803 33H58.4962L55.9458 25.1449H55.8662L53.3108 33ZM53.1666 28.9979H58.6155V30.6783H53.1666V28.9979ZM64.4472 33.1243C63.8672 33.1243 63.3418 32.9751 62.8712 32.6768C62.4039 32.3752 62.0326 31.9328 61.7575 31.3494C61.4858 30.7628 61.3499 30.0436 61.3499 29.1918C61.3499 28.3168 61.4907 27.5893 61.7725 27.0092C62.0542 26.4259 62.4287 25.9901 62.896 25.7017C63.3667 25.41 63.8821 25.2642 64.4422 25.2642C64.8698 25.2642 65.2261 25.3371 65.5111 25.483C65.7994 25.6255 66.0315 25.8045 66.2071 26.0199C66.3861 26.232 66.522 26.4408 66.6148 26.6463H66.6794V22.8182H68.7923V33H66.7043V31.777H66.6148C66.5154 31.9891 66.3745 32.1996 66.1922 32.4084C66.0132 32.6139 65.7796 32.7846 65.4912 32.9205C65.2062 33.0563 64.8582 33.1243 64.4472 33.1243ZM65.1183 31.4389C65.4597 31.4389 65.7481 31.3461 65.9834 31.1605C66.222 30.9716 66.4043 30.7081 66.5303 30.37C66.6595 30.032 66.7242 29.6359 66.7242 29.1818C66.7242 28.7277 66.6612 28.3333 66.5352 27.9986C66.4093 27.6638 66.227 27.4053 65.9884 27.223C65.7497 27.0407 65.4597 26.9496 65.1183 26.9496C64.7703 26.9496 64.477 27.044 64.2384 27.233C63.9997 27.4219 63.8191 27.6837 63.6965 28.0185C63.5738 28.3532 63.5125 28.741 63.5125 29.1818C63.5125 29.6259 63.5738 30.0187 63.6965 30.3601C63.8224 30.6982 64.003 30.9633 64.2384 31.1555C64.477 31.3445 64.7703 31.4389 65.1183 31.4389ZM73.3476 33.1243C72.7675 33.1243 72.2422 32.9751 71.7716 32.6768C71.3042 32.3752 70.933 31.9328 70.6579 31.3494C70.3862 30.7628 70.2503 30.0436 70.2503 29.1918C70.2503 28.3168 70.3911 27.5893 70.6729 27.0092C70.9546 26.4259 71.3291 25.9901 71.7964 25.7017C72.2671 25.41 72.7825 25.2642 73.3426 25.2642C73.7702 25.2642 74.1265 25.3371 74.4115 25.483C74.6998 25.6255 74.9318 25.8045 75.1075 26.0199C75.2865 26.232 75.4224 26.4408 75.5152 26.6463H75.5798V22.8182H77.6927V33H75.6047V31.777H75.5152C75.4157 31.9891 75.2749 32.1996 75.0926 32.4084C74.9136 32.6139 74.68 32.7846 74.3916 32.9205C74.1066 33.0563 73.7586 33.1243 73.3476 33.1243ZM74.0187 31.4389C74.3601 31.4389 74.6485 31.3461 74.8838 31.1605C75.1224 30.9716 75.3047 30.7081 75.4307 30.37C75.5599 30.032 75.6246 29.6359 75.6246 29.1818C75.6246 28.7277 75.5616 28.3333 75.4356 27.9986C75.3097 27.6638 75.1274 27.4053 74.8888 27.223C74.6501 27.0407 74.3601 26.9496 74.0187 26.9496C73.6707 26.9496 73.3774 27.044 73.1388 27.233C72.9001 27.4219 72.7195 27.6837 72.5969 28.0185C72.4742 28.3532 72.4129 28.741 72.4129 29.1818C72.4129 29.6259 72.4742 30.0187 72.5969 30.3601C72.7228 30.6982 72.9034 30.9633 73.1388 31.1555C73.3774 31.3445 73.6707 31.4389 74.0187 31.4389ZM82.714 33V22.8182H84.8667V31.2251H89.2318V33H82.714ZM90.6176 33V25.3636H92.7355V33H90.6176ZM91.6816 24.3793C91.3667 24.3793 91.0966 24.2749 90.8712 24.0661C90.6491 23.8539 90.5381 23.6004 90.5381 23.3054C90.5381 23.0137 90.6491 22.7635 90.8712 22.5547C91.0966 22.3426 91.3667 22.2365 91.6816 22.2365C91.9964 22.2365 92.2649 22.3426 92.4869 22.5547C92.7123 22.7635 92.825 23.0137 92.825 23.3054C92.825 23.6004 92.7123 23.8539 92.4869 24.0661C92.2649 24.2749 91.9964 24.3793 91.6816 24.3793ZM99.4782 35.8636V31.777H99.4136C99.3142 31.9891 99.1733 32.1996 98.991 32.4084C98.8121 32.6139 98.5784 32.7846 98.29 32.9205C98.005 33.0563 97.657 33.1243 97.246 33.1243C96.666 33.1243 96.1407 32.9751 95.67 32.6768C95.2027 32.3752 94.8315 31.9328 94.5564 31.3494C94.2846 30.7628 94.1487 30.0436 94.1487 29.1918C94.1487 28.3168 94.2896 27.5893 94.5713 27.0092C94.853 26.4259 95.2275 25.9901 95.6949 25.7017C96.1655 25.41 96.6809 25.2642 97.241 25.2642C97.6686 25.2642 98.0249 25.3371 98.3099 25.483C98.5983 25.6255 98.8303 25.8045 99.0059 26.0199C99.1849 26.232 99.3208 26.4408 99.4136 26.6463H99.5031V25.3636H101.591V35.8636H99.4782ZM97.9172 31.4389C98.2586 31.4389 98.5469 31.3461 98.7822 31.1605C99.0209 30.9716 99.2032 30.7081 99.3291 30.37C99.4584 30.032 99.523 29.6359 99.523 29.1818C99.523 28.7277 99.46 28.3333 99.3341 27.9986C99.2081 27.6638 99.0258 27.4053 98.7872 27.223C98.5486 27.0407 98.2586 26.9496 97.9172 26.9496C97.5692 26.9496 97.2758 27.044 97.0372 27.233C96.7986 27.4219 96.6179 27.6837 96.4953 28.0185C96.3727 28.3532 96.3113 28.741 96.3113 29.1818C96.3113 29.6259 96.3727 30.0187 96.4953 30.3601C96.6212 30.6982 96.8019 30.9633 97.0372 31.1555C97.2758 31.3445 97.5692 31.4389 97.9172 31.4389ZM108.188 29.7486V25.3636H110.306V33H108.273V31.6129H108.193C108.021 32.0604 107.734 32.42 107.333 32.6918C106.936 32.9635 106.45 33.0994 105.877 33.0994C105.366 33.0994 104.917 32.9834 104.529 32.7514C104.142 32.5194 103.838 32.1896 103.62 31.7621C103.404 31.3345 103.295 30.8224 103.291 30.2259V25.3636H105.409V29.848C105.413 30.2988 105.534 30.6551 105.772 30.9169C106.011 31.1787 106.331 31.3097 106.732 31.3097C106.987 31.3097 107.226 31.2517 107.448 31.1357C107.67 31.0163 107.849 30.8407 107.985 30.6087C108.124 30.3767 108.192 30.09 108.188 29.7486ZM112 33V25.3636H114.118V33H112ZM113.064 24.3793C112.749 24.3793 112.479 24.2749 112.254 24.0661C112.032 23.8539 111.921 23.6004 111.921 23.3054C111.921 23.0137 112.032 22.7635 112.254 22.5547C112.479 22.3426 112.749 22.2365 113.064 22.2365C113.379 22.2365 113.648 22.3426 113.87 22.5547C114.095 22.7635 114.208 23.0137 114.208 23.3054C114.208 23.6004 114.095 23.8539 113.87 24.0661C113.648 24.2749 113.379 24.3793 113.064 24.3793ZM118.629 33.1243C118.049 33.1243 117.523 32.9751 117.053 32.6768C116.585 32.3752 116.214 31.9328 115.939 31.3494C115.667 30.7628 115.532 30.0436 115.532 29.1918C115.532 28.3168 115.672 27.5893 115.954 27.0092C116.236 26.4259 116.61 25.9901 117.078 25.7017C117.548 25.41 118.064 25.2642 118.624 25.2642C119.051 25.2642 119.408 25.3371 119.693 25.483C119.981 25.6255 120.213 25.8045 120.389 26.0199C120.568 26.232 120.704 26.4408 120.796 26.6463H120.861V22.8182H122.974V33H120.886V31.777H120.796C120.697 31.9891 120.556 32.1996 120.374 32.4084C120.195 32.6139 119.961 32.7846 119.673 32.9205C119.388 33.0563 119.04 33.1243 118.629 33.1243ZM119.3 31.4389C119.641 31.4389 119.93 31.3461 120.165 31.1605C120.404 30.9716 120.586 30.7081 120.712 30.37C120.841 30.032 120.906 29.6359 120.906 29.1818C120.906 28.7277 120.843 28.3333 120.717 27.9986C120.591 27.6638 120.409 27.4053 120.17 27.223C119.931 27.0407 119.641 26.9496 119.3 26.9496C118.952 26.9496 118.659 27.044 118.42 27.233C118.181 27.4219 118.001 27.6837 117.878 28.0185C117.755 28.3532 117.694 28.741 117.694 29.1818C117.694 29.6259 117.755 30.0187 117.878 30.3601C118.004 30.6982 118.185 30.9633 118.42 31.1555C118.659 31.3445 118.952 31.4389 119.3 31.4389ZM124.715 33V25.3636H126.833V33H124.715ZM125.779 24.3793C125.464 24.3793 125.194 24.2749 124.969 24.0661C124.747 23.8539 124.636 23.6004 124.636 23.3054C124.636 23.0137 124.747 22.7635 124.969 22.5547C125.194 22.3426 125.464 22.2365 125.779 22.2365C126.094 22.2365 126.363 22.3426 126.585 22.5547C126.81 22.7635 126.923 23.0137 126.923 23.3054C126.923 23.6004 126.81 23.8539 126.585 24.0661C126.363 24.2749 126.094 24.3793 125.779 24.3793ZM132.592 25.3636V26.9545H127.993V25.3636H132.592ZM129.037 23.5341H131.155V30.6534C131.155 30.849 131.185 31.0014 131.244 31.1108C131.304 31.2169 131.387 31.2914 131.493 31.3345C131.602 31.3776 131.728 31.3991 131.871 31.3991C131.97 31.3991 132.07 31.3909 132.169 31.3743C132.268 31.3544 132.345 31.3395 132.398 31.3295L132.731 32.9055C132.625 32.9387 132.476 32.9768 132.283 33.0199C132.091 33.0663 131.857 33.0945 131.582 33.1044C131.072 33.1243 130.624 33.0563 130.24 32.9006C129.859 32.7448 129.562 32.5028 129.35 32.1747C129.138 31.8466 129.034 31.4323 129.037 30.9318V23.5341ZM135.279 35.8636C135.01 35.8636 134.758 35.8421 134.523 35.799C134.291 35.7592 134.099 35.7079 133.946 35.6449L134.424 34.0639C134.672 34.1402 134.896 34.1816 135.095 34.1882C135.297 34.1948 135.471 34.1484 135.617 34.049C135.766 33.9496 135.887 33.7805 135.98 33.5419L136.104 33.2188L133.365 25.3636H135.592L137.173 30.9716H137.252L138.848 25.3636H141.09L138.122 33.8253C137.98 34.2363 137.786 34.5942 137.541 34.8991C137.299 35.2074 136.992 35.4444 136.621 35.6101C136.25 35.7791 135.802 35.8636 135.279 35.8636Z" fill="white"/>
<defs>
<filter id="filter0_di_323_2297" x="0" y="0" width="191" height="56" filterUnits="userSpaceOnUse" color-interpolation-filters="sRGB">
<feFlood flood-opacity="0" result="BackgroundImageFix"/>
<feColorMatrix in="SourceAlpha" type="matrix" values="0 0 0 0 0 0 0 0 0 0 0 0 0 0 0 0 0 0 127 0" result="hardAlpha"/>
<feOffset/>
<feGaussianBlur stdDeviation="2"/>
<feComposite in2="hardAlpha" operator="out"/>
<feColorMatrix type="matrix" values="0 0 0 0 0 0 0 0 0 0 0 0 0 0 0 0 0 0 0.25 0"/>
<feBlend mode="normal" in2="BackgroundImageFix" result="effect1_dropShadow_323_2297"/>
<feBlend mode="normal" in="SourceGraphic" in2="effect1_dropShadow_323_2297" result="shape"/>
<feColorMatrix in="SourceAlpha" type="matrix" values="0 0 0 0 0 0 0 0 0 0 0 0 0 0 0 0 0 0 127 0" result="hardAlpha"/>
<feOffset/>
<feGaussianBlur stdDeviation="1.5"/>
<feComposite in2="hardAlpha" operator="arithmetic" k2="-1" k3="1"/>
<feColorMatrix type="matrix" values="0 0 0 0 0 0 0 0 0 0 0 0 0 0 0 0 0 0 0.8 0"/>
<feBlend mode="normal" in2="shape" result="effect2_innerShadow_323_2297"/>
</filter>
<linearGradient id="paint0_linear_323_2297" x1="-54.6172" y1="-24.523" x2="86.3247" y2="12.8575" gradientUnits="userSpaceOnUse">
<stop stop-color="#6C54FF"/>
<stop offset="0.296962" stop-color="#54E0FF"/>
<stop offset="1" stop-color="#F182DE"/>
</linearGradient>
</defs>
</svg>
