<svg width="191" height="56" viewBox="0 0 191 56" fill="none" xmlns="http://www.w3.org/2000/svg">
<path d="M19 8H172C178.075 8 183 12.9249 183 19V37C183 43.0751 178.075 48 172 48H19C12.9249 48 8 43.0751 8 37V19C8 12.9249 12.9249 8 19 8Z" fill="#FA6BE1" stroke="url(#paint0_linear_323_2297)" stroke-width="2"/>
<g filter="url(#filter0_di_323_2297)">
<path d="M7 19C7 12.3726 12.3726 7 19 7H172C178.627 7 184 12.3726 184 19V37C184 43.6274 178.627 49 172 49H19C12.3726 49 7 43.6274 7 37V19Z" fill="#FA6BE1"/>
<path d="M172 5.5H19C11.5442 5.5 5.5 11.5442 5.5 19V37C5.5 44.4558 11.5442 50.5 19 50.5H172C179.456 50.5 185.5 44.4558 185.5 37V19C185.5 11.5442 179.456 5.5 172 5.5Z" stroke="#364666" stroke-width="3"/>
</g>
<path d="M38.0822 33V22.8182H42.0993C42.8682 22.8182 43.5244 22.9557 44.068 23.2308C44.6149 23.5026 45.0308 23.8887 45.3159 24.3892C45.6042 24.8864 45.7484 25.4714 45.7484 26.1442C45.7484 26.8203 45.6026 27.402 45.3109 27.8892C45.0192 28.3731 44.5967 28.7443 44.0431 29.0028C43.493 29.2614 42.8268 29.3906 42.0446 29.3906H39.3549V27.6605H41.6966C42.1075 27.6605 42.4489 27.6042 42.7207 27.4915C42.9925 27.3788 43.1947 27.2098 43.3272 26.9844C43.4631 26.759 43.5311 26.4789 43.5311 26.1442C43.5311 25.8061 43.4631 25.5211 43.3272 25.2891C43.1947 25.0571 42.9908 24.8814 42.7157 24.7621C42.444 24.6394 42.1009 24.5781 41.6866 24.5781H40.2349V33H38.0822ZM43.5808 28.3665L46.1113 33H43.7349L41.2591 28.3665H43.5808ZM50.587 33.1491C49.8015 33.1491 49.1254 32.9901 48.5586 32.6719C47.9951 32.3504 47.561 31.8963 47.256 31.3097C46.9511 30.7197 46.7987 30.022 46.7987 29.2166C46.7987 28.4311 46.9511 27.7417 47.256 27.1484C47.561 26.5552 47.9902 26.0928 48.5437 25.7614C49.1005 25.4299 49.7534 25.2642 50.5025 25.2642C51.0063 25.2642 51.4753 25.3454 51.9094 25.5078C52.3469 25.6669 52.7281 25.9072 53.0529 26.2287C53.381 26.5502 53.6362 26.9545 53.8185 27.4418C54.0008 27.9257 54.092 28.4924 54.092 29.142V29.7237H47.6438V28.4112H52.0984C52.0984 28.1063 52.0321 27.8362 51.8995 27.6009C51.7669 27.3655 51.583 27.1816 51.3477 27.049C51.1156 26.9131 50.8455 26.8452 50.5373 26.8452C50.2158 26.8452 49.9308 26.9197 49.6822 27.0689C49.4369 27.2147 49.2447 27.4119 49.1055 27.6605C48.9663 27.9058 48.895 28.1792 48.8917 28.4808V29.7287C48.8917 30.1065 48.9613 30.433 49.1005 30.7081C49.243 30.9832 49.4435 31.1953 49.7021 31.3445C49.9606 31.4936 50.2672 31.5682 50.6218 31.5682C50.8571 31.5682 51.0726 31.535 51.2681 31.4688C51.4637 31.4025 51.631 31.303 51.7702 31.1705C51.9094 31.0379 52.0155 30.8755 52.0884 30.6832L54.0472 30.8125C53.9478 31.2831 53.744 31.6941 53.4357 32.0455C53.1308 32.3935 52.7364 32.6652 52.2525 32.8608C51.7719 33.053 51.2167 33.1491 50.587 33.1491ZM55.4741 33V25.3636H57.4925V26.7109H57.582C57.7411 26.2635 58.0063 25.9105 58.3775 25.652C58.7487 25.3935 59.1928 25.2642 59.7099 25.2642C60.2335 25.2642 60.6793 25.3951 61.0472 25.657C61.4151 25.9155 61.6604 26.2668 61.783 26.7109H61.8626C62.0183 26.2734 62.3001 25.9238 62.7077 25.6619C63.1187 25.3968 63.6043 25.2642 64.1644 25.2642C64.877 25.2642 65.4554 25.4912 65.8995 25.9453C66.3469 26.3961 66.5707 27.0357 66.5707 27.8643V33H64.4577V28.282C64.4577 27.8577 64.3451 27.5395 64.1197 27.3274C63.8943 27.1153 63.6126 27.0092 63.2745 27.0092C62.89 27.0092 62.5901 27.1319 62.3746 27.3771C62.1592 27.6191 62.0515 27.9389 62.0515 28.3366V33H59.9982V28.2372C59.9982 27.8627 59.8905 27.5644 59.6751 27.3423C59.463 27.1203 59.1829 27.0092 58.8349 27.0092C58.5996 27.0092 58.3874 27.0689 58.1985 27.1882C58.0129 27.3042 57.8654 27.4683 57.756 27.6804C57.6467 27.8892 57.592 28.1345 57.592 28.4162V33H55.4741ZM71.6939 33.1491C70.9216 33.1491 70.2538 32.9851 69.6903 32.657C69.1302 32.3255 68.6977 31.8648 68.3928 31.2749C68.0878 30.6816 67.9354 29.9938 67.9354 29.2116C67.9354 28.4228 68.0878 27.7334 68.3928 27.1435C68.6977 26.5502 69.1302 26.0895 69.6903 25.7614C70.2538 25.4299 70.9216 25.2642 71.6939 25.2642C72.4661 25.2642 73.1323 25.4299 73.6925 25.7614C74.2559 26.0895 74.6901 26.5502 74.995 27.1435C75.3 27.7334 75.4524 28.4228 75.4524 29.2116C75.4524 29.9938 75.3 30.6816 74.995 31.2749C74.6901 31.8648 74.2559 32.3255 73.6925 32.657C73.1323 32.9851 72.4661 33.1491 71.6939 33.1491ZM71.7038 31.5085C72.0552 31.5085 72.3485 31.4091 72.5838 31.2102C72.8191 31.008 72.9964 30.733 73.1158 30.3849C73.2384 30.0369 73.2997 29.6409 73.2997 29.1967C73.2997 28.7526 73.2384 28.3565 73.1158 28.0085C72.9964 27.6605 72.8191 27.3854 72.5838 27.1832C72.3485 26.9811 72.0552 26.88 71.7038 26.88C71.3492 26.88 71.0509 26.9811 70.8089 27.1832C70.5703 27.3854 70.3897 27.6605 70.267 28.0085C70.1477 28.3565 70.0881 28.7526 70.0881 29.1967C70.0881 29.6409 70.1477 30.0369 70.267 30.3849C70.3897 30.733 70.5703 31.008 70.8089 31.2102C71.0509 31.4091 71.3492 31.5085 71.7038 31.5085ZM83.7028 25.3636L81.033 33H78.6467L75.9769 25.3636H78.2141L79.8001 30.8274H79.8796L81.4606 25.3636H83.7028ZM88.0206 33.1491C87.2351 33.1491 86.5589 32.9901 85.9922 32.6719C85.4287 32.3504 84.9946 31.8963 84.6896 31.3097C84.3847 30.7197 84.2322 30.022 84.2322 29.2166C84.2322 28.4311 84.3847 27.7417 84.6896 27.1484C84.9946 26.5552 85.4238 26.0928 85.9773 25.7614C86.5341 25.4299 87.187 25.2642 87.9361 25.2642C88.4399 25.2642 88.9089 25.3454 89.343 25.5078C89.7805 25.6669 90.1617 25.9072 90.4865 26.2287C90.8146 26.5502 91.0698 26.9545 91.2521 27.4418C91.4344 27.9257 91.5256 28.4924 91.5256 29.142V29.7237H85.0774V28.4112H89.532C89.532 28.1063 89.4657 27.8362 89.3331 27.6009C89.2005 27.3655 89.0166 27.1816 88.7812 27.049C88.5492 26.9131 88.2791 26.8452 87.9709 26.8452C87.6494 26.8452 87.3643 26.9197 87.1158 27.0689C86.8705 27.2147 86.6783 27.4119 86.5391 27.6605C86.3999 27.9058 86.3286 28.1792 86.3253 28.4808V29.7287C86.3253 30.1065 86.3949 30.433 86.5341 30.7081C86.6766 30.9832 86.8771 31.1953 87.1357 31.3445C87.3942 31.4936 87.7008 31.5682 88.0554 31.5682C88.2907 31.5682 88.5062 31.535 88.7017 31.4688C88.8973 31.4025 89.0646 31.303 89.2038 31.1705C89.343 31.0379 89.4491 30.8755 89.522 30.6832L91.4808 30.8125C91.3814 31.2831 91.1776 31.6941 90.8693 32.0455C90.5644 32.3935 90.17 32.6652 89.6861 32.8608C89.2055 33.053 88.6503 33.1491 88.0206 33.1491ZM96.1877 33V22.8182H98.3404V31.2251H102.705V33H96.1877ZM104.091 33V25.3636H106.209V33H104.091ZM105.155 24.3793C104.84 24.3793 104.57 24.2749 104.345 24.0661C104.123 23.8539 104.012 23.6004 104.012 23.3054C104.012 23.0137 104.123 22.7635 104.345 22.5547C104.57 22.3426 104.84 22.2365 105.155 22.2365C105.47 22.2365 105.739 22.3426 105.961 22.5547C106.186 22.7635 106.299 23.0137 106.299 23.3054C106.299 23.6004 106.186 23.8539 105.961 24.0661C105.739 24.2749 105.47 24.3793 105.155 24.3793ZM112.952 35.8636V31.777H112.887C112.788 31.9891 112.647 32.1996 112.465 32.4084C112.286 32.6139 112.052 32.7846 111.764 32.9205C111.479 33.0563 111.131 33.1243 110.72 33.1243C110.14 33.1243 109.614 32.9751 109.144 32.6768C108.676 32.3752 108.305 31.9328 108.03 31.3494C107.758 30.7628 107.622 30.0436 107.622 29.1918C107.622 28.3168 107.763 27.5893 108.045 27.0092C108.327 26.4259 108.701 25.9901 109.169 25.7017C109.639 25.41 110.155 25.2642 110.715 25.2642C111.142 25.2642 111.499 25.3371 111.784 25.483C112.072 25.6255 112.304 25.8045 112.48 26.0199C112.659 26.232 112.794 26.4408 112.887 26.6463H112.977V25.3636H115.065V35.8636H112.952ZM111.391 31.4389C111.732 31.4389 112.021 31.3461 112.256 31.1605C112.494 30.9716 112.677 30.7081 112.803 30.37C112.932 30.032 112.997 29.6359 112.997 29.1818C112.997 28.7277 112.934 28.3333 112.808 27.9986C112.682 27.6638 112.499 27.4053 112.261 27.223C112.022 27.0407 111.732 26.9496 111.391 26.9496C111.043 26.9496 110.749 27.044 110.511 27.233C110.272 27.4219 110.092 27.6837 109.969 28.0185C109.846 28.3532 109.785 28.741 109.785 29.1818C109.785 29.6259 109.846 30.0187 109.969 30.3601C110.095 30.6982 110.276 30.9633 110.511 31.1555C110.749 31.3445 111.043 31.4389 111.391 31.4389ZM121.662 29.7486V25.3636H123.78V33H121.747V31.6129H121.667C121.495 32.0604 121.208 32.42 120.807 32.6918C120.409 32.9635 119.924 33.0994 119.35 33.0994C118.84 33.0994 118.391 32.9834 118.003 32.7514C117.615 32.5194 117.312 32.1896 117.093 31.7621C116.878 31.3345 116.768 30.8224 116.765 30.2259V25.3636H118.883V29.848C118.886 30.2988 119.007 30.6551 119.246 30.9169C119.485 31.1787 119.804 31.3097 120.205 31.3097C120.461 31.3097 120.699 31.2517 120.921 31.1357C121.143 31.0163 121.322 30.8407 121.458 30.6087C121.597 30.3767 121.665 30.09 121.662 29.7486ZM125.474 33V25.3636H127.592V33H125.474ZM126.538 24.3793C126.223 24.3793 125.953 24.2749 125.728 24.0661C125.506 23.8539 125.395 23.6004 125.395 23.3054C125.395 23.0137 125.506 22.7635 125.728 22.5547C125.953 22.3426 126.223 22.2365 126.538 22.2365C126.853 22.2365 127.121 22.3426 127.343 22.5547C127.569 22.7635 127.681 23.0137 127.681 23.3054C127.681 23.6004 127.569 23.8539 127.343 24.0661C127.121 24.2749 126.853 24.3793 126.538 24.3793ZM132.102 33.1243C131.522 33.1243 130.997 32.9751 130.526 32.6768C130.059 32.3752 129.688 31.9328 129.413 31.3494C129.141 30.7628 129.005 30.0436 129.005 29.1918C129.005 28.3168 129.146 27.5893 129.428 27.0092C129.709 26.4259 130.084 25.9901 130.551 25.7017C131.022 25.41 131.537 25.2642 132.097 25.2642C132.525 25.2642 132.881 25.3371 133.166 25.483C133.455 25.6255 133.687 25.8045 133.862 26.0199C134.041 26.232 134.177 26.4408 134.27 26.6463H134.335V22.8182H136.448V33H134.36V31.777H134.27C134.171 31.9891 134.03 32.1996 133.847 32.4084C133.669 32.6139 133.435 32.7846 133.146 32.9205C132.861 33.0563 132.513 33.1243 132.102 33.1243ZM132.774 31.4389C133.115 31.4389 133.403 31.3461 133.639 31.1605C133.877 30.9716 134.06 30.7081 134.186 30.37C134.315 30.032 134.379 29.6359 134.379 29.1818C134.379 28.7277 134.316 28.3333 134.191 27.9986C134.065 27.6638 133.882 27.4053 133.644 27.223C133.405 27.0407 133.115 26.9496 132.774 26.9496C132.426 26.9496 132.132 27.044 131.894 27.233C131.655 27.4219 131.474 27.6837 131.352 28.0185C131.229 28.3532 131.168 28.741 131.168 29.1818C131.168 29.6259 131.229 30.0187 131.352 30.3601C131.478 30.6982 131.658 30.9633 131.894 31.1555C132.132 31.3445 132.426 31.4389 132.774 31.4389ZM138.189 33V25.3636H140.307V33H138.189ZM139.253 24.3793C138.938 24.3793 138.668 24.2749 138.442 24.0661C138.22 23.8539 138.109 23.6004 138.109 23.3054C138.109 23.0137 138.22 22.7635 138.442 22.5547C138.668 22.3426 138.938 22.2365 139.253 22.2365C139.568 22.2365 139.836 22.3426 140.058 22.5547C140.284 22.7635 140.396 23.0137 140.396 23.3054C140.396 23.6004 140.284 23.8539 140.058 24.0661C139.836 24.2749 139.568 24.3793 139.253 24.3793ZM146.065 25.3636V26.9545H141.466V25.3636H146.065ZM142.51 23.5341H144.628V30.6534C144.628 30.849 144.658 31.0014 144.718 31.1108C144.778 31.2169 144.86 31.2914 144.966 31.3345C145.076 31.3776 145.202 31.3991 145.344 31.3991C145.444 31.3991 145.543 31.3909 145.643 31.3743C145.742 31.3544 145.818 31.3395 145.871 31.3295L146.204 32.9055C146.098 32.9387 145.949 32.9768 145.757 33.0199C145.565 33.0663 145.331 33.0945 145.056 33.1044C144.546 33.1243 144.098 33.0563 143.714 32.9006C143.332 32.7448 143.036 32.5028 142.824 32.1747C142.612 31.8466 142.507 31.4323 142.51 30.9318V23.5341ZM148.752 35.8636C148.484 35.8636 148.232 35.8421 147.997 35.799C147.765 35.7592 147.572 35.7079 147.42 35.6449L147.897 34.0639C148.146 34.1402 148.369 34.1816 148.568 34.1882C148.771 34.1948 148.945 34.1484 149.09 34.049C149.24 33.9496 149.36 33.7805 149.453 33.5419L149.578 33.2188L146.838 25.3636H149.066L150.646 30.9716H150.726L152.322 25.3636H154.564L151.596 33.8253C151.454 34.2363 151.26 34.5942 151.014 34.8991C150.772 35.2074 150.466 35.4444 150.095 35.6101C149.723 35.7791 149.276 35.8636 148.752 35.8636Z" fill="white"/>
<defs>
<filter id="filter0_di_323_2297" x="0" y="0" width="191" height="56" filterUnits="userSpaceOnUse" color-interpolation-filters="sRGB">
<feFlood flood-opacity="0" result="BackgroundImageFix"/>
<feColorMatrix in="SourceAlpha" type="matrix" values="0 0 0 0 0 0 0 0 0 0 0 0 0 0 0 0 0 0 127 0" result="hardAlpha"/>
<feOffset/>
<feGaussianBlur stdDeviation="2"/>
<feComposite in2="hardAlpha" operator="out"/>
<feColorMatrix type="matrix" values="0 0 0 0 0 0 0 0 0 0 0 0 0 0 0 0 0 0 0.25 0"/>
<feBlend mode="normal" in2="BackgroundImageFix" result="effect1_dropShadow_323_2297"/>
<feBlend mode="normal" in="SourceGraphic" in2="effect1_dropShadow_323_2297" result="shape"/>
<feColorMatrix in="SourceAlpha" type="matrix" values="0 0 0 0 0 0 0 0 0 0 0 0 0 0 0 0 0 0 127 0" result="hardAlpha"/>
<feOffset/>
<feGaussianBlur stdDeviation="1.5"/>
<feComposite in2="hardAlpha" operator="arithmetic" k2="-1" k3="1"/>
<feColorMatrix type="matrix" values="0 0 0 0 0 0 0 0 0 0 0 0 0 0 0 0 0 0 0.8 0"/>
<feBlend mode="normal" in2="shape" result="effect2_innerShadow_323_2297"/>
</filter>
<linearGradient id="paint0_linear_323_2297" x1="-54.6172" y1="-24.523" x2="86.3247" y2="12.8575" gradientUnits="userSpaceOnUse">
<stop stop-color="#6C54FF"/>
<stop offset="0.296962" stop-color="#54E0FF"/>
<stop offset="1" stop-color="#F182DE"/>
</linearGradient>
</defs>
</svg>
